<svg width="281" height="162" viewBox="0 0 281 162" fill="none" xmlns="http://www.w3.org/2000/svg">
<mask id="path-1-inside-1_53_2031" fill="white">
<path fill-rule="evenodd" clip-rule="evenodd" d="M140.483 0.728516C140.483 0.728516 118.903 20.5108 102.062 27.6638C88.695 33.3409 73.3696 36.0409 58.7308 38.6199C27.2172 44.1718 -1.11431 49.1632 0.128532 82.0882C1.35917 114.69 33.4484 119.71 63.6213 124.43C78.0755 126.691 92.09 128.883 102.062 134.006C132.849 149.822 140.483 161.292 140.483 161.292L140.483 161.134C140.483 161.134 148.117 149.822 178.904 134.006C188.876 128.883 202.89 126.691 217.344 124.43C247.517 119.71 279.607 114.69 280.837 82.0882C282.08 49.1632 253.749 44.1718 222.235 38.6199C207.596 36.0409 192.271 33.3409 178.904 27.6638C162.063 20.5108 140.483 0.728516 140.483 0.728516Z"/>
</mask>
<path fill-rule="evenodd" clip-rule="evenodd" d="M140.483 0.728516C140.483 0.728516 118.903 20.5108 102.062 27.6638C88.695 33.3409 73.3696 36.0409 58.7308 38.6199C27.2172 44.1718 -1.11431 49.1632 0.128532 82.0882C1.35917 114.69 33.4484 119.71 63.6213 124.43C78.0755 126.691 92.09 128.883 102.062 134.006C132.849 149.822 140.483 161.292 140.483 161.292L140.483 161.134C140.483 161.134 148.117 149.822 178.904 134.006C188.876 128.883 202.89 126.691 217.344 124.43C247.517 119.71 279.607 114.69 280.837 82.0882C282.08 49.1632 253.749 44.1718 222.235 38.6199C207.596 36.0409 192.271 33.3409 178.904 27.6638C162.063 20.5108 140.483 0.728516 140.483 0.728516Z" fill="#EA0001"/>
<path d="M102.062 27.6638L100.107 23.0617L100.107 23.0617L102.062 27.6638ZM140.483 0.728516L143.862 4.41421L153.336 -4.27148L140.483 -4.27148V0.728516ZM58.7308 38.6199L57.8633 33.6957L57.8633 33.6957L58.7308 38.6199ZM0.128532 82.0882L-4.86791 82.2768L-4.86791 82.2768L0.128532 82.0882ZM63.6213 124.43L64.3941 119.49L64.3941 119.49L63.6213 124.43ZM102.062 134.006L99.7768 138.453L99.7768 138.453L102.062 134.006ZM140.483 161.292L136.321 164.062L145.485 177.83L145.483 161.291L140.483 161.292ZM140.483 161.134L136.338 158.337L135.483 159.605L135.483 161.135L140.483 161.134ZM178.904 134.006L181.189 138.453L181.189 138.453L178.904 134.006ZM217.344 124.43L216.572 119.49L216.572 119.49L217.344 124.43ZM280.837 82.0882L275.841 81.8996L275.841 81.8996L280.837 82.0882ZM222.235 38.6199L223.103 33.6957L223.103 33.6957L222.235 38.6199ZM178.904 27.6638L180.859 23.0617L180.859 23.0617L178.904 27.6638ZM104.016 32.2659C113.07 28.4207 123.102 21.3433 130.66 15.459C134.488 12.4781 137.776 9.72808 140.108 7.72205C141.276 6.71815 142.206 5.89827 142.848 5.32614C143.17 5.04001 143.419 4.81568 143.59 4.66108C143.675 4.58377 143.741 4.52389 143.787 4.48242C143.81 4.46168 143.827 4.44555 143.84 4.43414C143.846 4.42843 143.851 4.42391 143.855 4.42058C143.856 4.41892 143.858 4.41756 143.859 4.41649C143.86 4.41596 143.86 4.41539 143.861 4.41513C143.861 4.41463 143.862 4.41421 140.483 0.728516C137.104 -2.95718 137.105 -2.95745 137.105 -2.95764C137.105 -2.95761 137.105 -2.95773 137.105 -2.95766C137.105 -2.95751 137.104 -2.95708 137.103 -2.95634C137.102 -2.95487 137.099 -2.95221 137.095 -2.94838C137.086 -2.94071 137.073 -2.92837 137.054 -2.91145C137.017 -2.87763 136.96 -2.82556 136.883 -2.75623C136.73 -2.61755 136.499 -2.40989 136.197 -2.14112C135.593 -1.60347 134.707 -0.821965 133.588 0.140494C131.347 2.06718 128.188 4.70985 124.516 7.56864C117.073 13.3637 107.895 19.7539 100.107 23.0617L104.016 32.2659ZM59.5983 43.544C74.1174 40.9861 90.0298 38.2062 104.016 32.2659L100.107 23.0617C87.3602 28.4755 72.6218 31.0956 57.8633 33.6957L59.5983 43.544ZM5.12497 81.8996C4.8421 74.4059 6.2488 68.8897 8.66646 64.6744C11.0865 60.4549 14.7401 57.1546 19.5805 54.4565C29.5523 48.8978 43.5608 46.3695 59.5983 43.544L57.8633 33.6957C42.3872 36.4222 26.4731 39.1656 14.7115 45.7219C8.68516 49.0811 3.51929 53.5491 -0.00804793 59.6992C-3.53779 65.8534 -5.20646 73.3081 -4.86791 82.2768L5.12497 81.8996ZM64.3941 119.49C49.0855 117.095 34.3613 114.744 23.2415 109.234C17.7885 106.532 13.4496 103.178 10.3981 98.8936C7.37445 94.6482 5.40019 89.1906 5.12497 81.8996L-4.86791 82.2768C-4.52781 91.2868 -2.02942 98.6823 2.25272 104.695C6.50691 110.668 12.3069 114.977 18.8016 118.195C31.5773 124.525 47.9842 127.044 62.8486 129.37L64.3941 119.49ZM104.346 129.558C93.5007 123.987 78.5645 121.706 64.3941 119.49L62.8486 129.37C77.5866 131.675 90.6793 133.78 99.7768 138.453L104.346 129.558ZM140.483 161.292C144.645 158.521 144.644 158.519 144.642 158.516C144.641 158.515 144.639 158.513 144.638 158.511C144.636 158.507 144.633 158.503 144.631 158.499C144.625 158.491 144.619 158.483 144.613 158.473C144.6 158.455 144.586 158.433 144.569 158.409C144.535 158.361 144.494 158.302 144.444 158.233C144.343 158.094 144.209 157.913 144.036 157.692C143.691 157.25 143.195 156.647 142.516 155.897C141.16 154.398 139.079 152.314 136.037 149.754C129.954 144.635 120.025 137.613 104.346 129.558L99.7768 138.453C114.885 146.215 124.167 152.836 129.598 157.406C132.313 159.69 134.065 161.462 135.102 162.607C135.62 163.18 135.96 163.597 136.153 163.844C136.249 163.968 136.309 164.049 136.336 164.086C136.349 164.104 136.354 164.111 136.351 164.108C136.35 164.106 136.347 164.101 136.342 164.093C136.339 164.09 136.336 164.085 136.332 164.08C136.331 164.077 136.329 164.075 136.327 164.072C136.326 164.07 136.324 164.068 136.324 164.067C136.322 164.065 136.321 164.062 140.483 161.292ZM135.483 161.135L135.483 161.292L145.483 161.291L145.483 161.134L135.483 161.135ZM140.483 161.134C144.627 163.931 144.626 163.934 144.624 163.936C144.624 163.937 144.622 163.939 144.621 163.941C144.619 163.943 144.617 163.946 144.615 163.949C144.612 163.954 144.609 163.958 144.606 163.962C144.601 163.97 144.598 163.975 144.596 163.977C144.594 163.98 144.598 163.973 144.612 163.955C144.638 163.919 144.698 163.839 144.794 163.718C144.986 163.474 145.326 163.062 145.845 162.495C146.883 161.362 148.636 159.607 151.352 157.34C156.787 152.804 166.074 146.218 181.189 138.453L176.619 129.558C160.947 137.61 151.024 144.588 144.944 149.663C141.904 152.2 139.824 154.262 138.468 155.744C137.79 156.485 137.294 157.08 136.948 157.517C136.776 157.735 136.641 157.914 136.541 158.051C136.49 158.12 136.449 158.178 136.415 158.226C136.398 158.25 136.384 158.271 136.371 158.29C136.364 158.299 136.359 158.307 136.353 158.315C136.35 158.319 136.348 158.323 136.345 158.327C136.344 158.329 136.342 158.331 136.342 158.332C136.34 158.335 136.338 158.337 140.483 161.134ZM181.189 138.453C190.287 133.78 203.379 131.675 218.117 129.37L216.572 119.49C202.401 121.706 187.465 123.987 176.619 129.558L181.189 138.453ZM218.117 129.37C232.982 127.044 249.388 124.525 262.164 118.195C268.659 114.977 274.459 110.668 278.713 104.695C282.995 98.6823 285.494 91.2868 285.834 82.2768L275.841 81.8996C275.566 89.1906 273.591 94.6482 270.568 98.8936C267.516 103.178 263.177 106.532 257.724 109.234C246.605 114.744 231.88 117.095 216.572 119.49L218.117 129.37ZM285.834 82.2768C286.172 73.3081 284.504 65.8534 280.974 59.6992C277.447 53.5491 272.281 49.0811 266.254 45.7219C254.493 39.1656 238.579 36.4222 223.103 33.6957L221.367 43.544C237.405 46.3695 251.414 48.8978 261.385 54.4565C266.226 57.1546 269.879 60.4549 272.299 64.6744C274.717 68.8897 276.124 74.4059 275.841 81.8996L285.834 82.2768ZM223.103 33.6957C208.344 31.0956 193.606 28.4755 180.859 23.0617L176.95 32.2659C190.936 38.2062 206.848 40.9861 221.367 43.544L223.103 33.6957ZM180.859 23.0617C173.071 19.7539 163.893 13.3637 156.45 7.56864C152.778 4.70985 149.618 2.06718 147.378 0.140495C146.259 -0.821963 145.372 -1.60347 144.769 -2.14112C144.467 -2.40989 144.236 -2.61755 144.083 -2.75622C144.006 -2.82555 143.949 -2.87762 143.912 -2.91144C143.893 -2.92835 143.88 -2.94069 143.871 -2.94834C143.867 -2.95217 143.864 -2.95481 143.863 -2.95626C143.862 -2.95699 143.861 -2.95741 143.861 -2.9575C143.861 -2.95755 143.861 -2.95735 143.861 -2.95734C143.862 -2.95699 145.143 2.5416 140.483 5.72852V-4.27148C135.823 -1.08457 137.104 4.41417 137.105 4.41482C137.105 4.41514 137.106 4.41579 137.107 4.41634C137.108 4.41745 137.109 4.41884 137.111 4.42051C137.115 4.42386 137.12 4.42839 137.126 4.4341C137.138 4.44552 137.156 4.46166 137.179 4.4824C137.224 4.52388 137.29 4.58377 137.376 4.66107C137.547 4.81567 137.796 5.04001 138.117 5.32613C138.76 5.89827 139.69 6.71814 140.858 7.72204C143.19 9.72808 146.478 12.4781 150.306 15.459C157.864 21.3433 167.896 28.4207 176.95 32.2659L180.859 23.0617Z" fill="url(#paint0_linear_53_2031)" mask="url(#path-1-inside-1_53_2031)"/>
<path fill-rule="evenodd" clip-rule="evenodd" d="M197.522 55.4614C198.99 56.8299 199.101 55.1044 199.175 59.2545C199.212 61.1288 199.249 62.9881 199.249 64.8624L199.113 76.2417C199.126 78.1308 199.015 79.9753 199.015 81.8347C199.027 82.5785 199.113 83.9618 198.941 84.5717C198.694 85.4493 197.954 85.3898 197.732 86.089C197.263 87.6211 200.618 86.6244 201.321 86.5798C202.591 86.5203 205.132 87.1302 206.008 86.6691C206.378 84.5271 204.33 86.7434 204.429 82.8313L204.577 58.6C204.552 57.7224 204.404 56.6068 204.935 56.0415C205.305 55.6548 206.538 55.3424 206.045 54.4202C205.749 53.8698 202.271 54.5094 201.457 54.5094C198.891 54.5094 197.399 53.6169 197.522 55.4614ZM188.408 56.8745C188.852 57.9158 188.605 73.5196 188.507 75.9145C188.457 77.1788 187.89 78.5473 187.446 79.4398C185.929 82.4743 183.08 84.4081 180.243 85.613C177.801 86.6542 175.668 85.6427 174.521 83.828C172.572 80.7191 175.002 79.0233 175.002 76.0781C175.002 73.5196 173.053 71.333 171.302 70.7529C169.082 69.9943 165.554 72.9841 166.899 74.7096C167.281 75.0964 167.639 74.5906 168.428 74.3377C169.106 74.1295 169.822 74.07 170.34 74.546C171.413 75.5277 170.969 77.0896 170.253 78.1755C166.886 83.3371 173.3 91.7266 184.967 84.7056C187.187 83.3668 188.766 82.2215 190.258 80.5257C195.339 74.7394 193.6 65.6656 193.674 57.9307C193.699 54.8515 194.821 55.4168 195.117 54.316C194.328 52.5013 190.751 54.5392 189.567 54.9854C187.051 55.9225 180.009 58.5108 177.555 57.9307C175.742 57.4993 175.544 55.1342 177.851 53.0963C177.444 52.7244 173.793 52.9475 173.386 56.6812C173.226 58.0794 173.657 59.4182 174.2 60.3107C176.001 63.241 180.946 61.9171 183.487 60.4892C185.522 59.3438 187.89 56.8597 188.408 56.8745ZM141.406 69.3992C141.159 67.644 142.861 64.4905 143.515 63.5534C145.895 60.1173 148.263 57.9009 152.173 57.0382C153.554 56.7258 157.723 56.4432 158.709 57.0679C158.894 58.0199 158.783 60.8313 158.771 62.0659C158.759 62.7353 158.968 66.5135 158.66 66.9895C158.056 67.7481 154.763 67.5845 153.764 67.3316C152.185 66.93 150.878 66.0078 149.386 65.9631C144.97 65.8441 142.467 69.6521 141.406 69.3992ZM142.874 86.6244C142.96 86.6691 146.635 86.8178 147.104 86.4608C146.808 85.1221 146.734 87.0856 144.428 83.5305C142.306 80.2431 140.839 76.926 140.876 72.4486C140.888 71.1842 140.826 70.6339 141.751 70.3215C144.539 69.3695 147.955 69.2207 150.717 70.1727C155.934 72.0024 157.155 68.3283 158.783 68.477C158.968 70.6041 158.845 80.0497 158.82 83.3371C158.808 86.0741 157.106 84.78 157.242 86.3716C158.08 86.9666 160.029 86.4608 161.139 86.4459C162.138 86.4311 164.42 87.0261 165.049 86.4162C165.012 85.2262 163.717 85.9551 163.63 83.828C163.495 80.8976 163.606 73.475 163.618 70.3066C163.63 68.7448 163.47 57.886 163.704 56.9043C163.865 56.22 164.148 55.8779 164.531 55.6102C165.135 55.1788 165.431 55.2829 165.369 54.2863C164.247 53.5277 163.655 54.0632 162.397 54.3458C156.588 55.6697 155.281 54.2268 151.568 54.2565C146.574 54.3012 142.713 56.6812 140.53 59.9537C132.773 71.5859 143.466 84.7056 143.577 85.2262C143.749 86.0443 143.145 86.1931 142.874 86.6244ZM134.808 53.483C135.252 53.7359 135.77 53.3789 136.041 54.0929C136.288 54.7028 136.016 55.4019 135.77 55.6994C135.56 55.9672 134.018 57.0679 133.611 57.3803L122.82 66.1268C122.277 66.6028 121.216 67.7035 120.439 67.6291C120.143 66.2755 120.291 61.9618 120.316 60.2512C120.353 57.8414 120.008 56.7109 121.266 55.6845C123.584 53.7805 118.935 54.7623 117.948 54.7325C116.875 54.7177 114.766 54.1078 114.038 54.6879C113.878 56.0862 115.222 55.3573 115.42 57.2613L115.346 79.3655C115.358 80.4513 115.494 82.8908 115.37 83.8131C115.161 85.4196 113.681 84.9882 114.112 86.4608C114.47 86.5947 117.06 86.3121 117.812 86.2674C118.935 86.2079 119.786 86.4459 120.698 86.4459C122.684 86.4608 120.748 84.9138 120.735 84.899C120.291 84.3337 120.279 83.7685 120.291 82.8313C120.316 81.0761 120.267 79.3208 120.279 77.5507C120.291 75.7955 120.279 74.0402 120.267 72.285C120.254 71.2735 120.119 70.6636 120.686 70.143C122.363 68.6258 122.154 68.9084 124.892 73.475L130.306 81.7752C130.75 82.4595 131.293 83.2181 131.687 83.9023C132.575 85.4047 131.12 85.4196 130.984 86.2972C131.7 87.0409 133.981 86.327 135.03 86.2823C136.016 86.2526 138.767 86.7732 139.396 86.2972C139.433 85.3303 139.1 85.5832 138.372 85.4047C137.348 85.137 136.362 83.1735 135.535 81.8942L128.9 71.6007C128.283 70.6934 125.792 67.1085 125.78 66.1863C126.692 65.2343 134.536 59.0165 136.3 57.6629C136.966 57.1423 137.842 56.4729 138.101 55.5358C138.952 52.3228 135.313 51.3559 134.808 53.483ZM101.964 86.4608C102.655 86.9666 104.912 86.3269 105.923 86.3567C107.132 86.3864 108.883 86.9368 109.722 86.2972C109.734 85.1518 108.969 85.5088 108.624 84.5271C108.365 83.7685 108.501 75.8252 108.513 74.7542L108.661 57.4398C108.747 55.3275 110.351 56.4729 110.166 54.8069C109.5 54.2565 107.008 54.8367 105.923 54.8218C105.023 54.8069 101.52 53.8698 102.137 55.3722C102.371 55.9225 103.173 55.6994 103.481 56.577L103.395 76.8962C103.395 78.8151 103.407 80.7488 103.432 82.6677C103.444 83.709 103.567 84.5271 103 85.0775C102.507 85.5683 101.631 85.4791 101.964 86.4608ZM96.2537 78.0416C95.2301 85.4196 88.8784 84.1998 84.8824 84.2296C80.1095 84.2593 79.9491 84.8395 79.9491 82.6677C79.9491 79.2316 79.7395 67.406 79.8998 65.1748C80.0355 63.4195 81.4908 64.6988 82.4405 65.1748C84.6851 66.2755 92.4181 69.8455 93.8981 71.1247C95.2671 72.2999 96.6977 74.8286 96.2537 78.0416ZM80.0848 61.9469C79.9121 60.8015 80.0231 59.5967 80.0478 58.4364C80.0848 55.5209 79.5791 56.5622 87.2011 56.4729C89.0264 56.458 90.9257 56.1754 92.3071 57.2167C93.3924 58.0199 94.4284 59.5074 94.4901 61.7238C94.5517 63.9253 93.4911 65.621 92.5784 66.4094C90.8887 67.8374 90.0008 66.8854 88.2988 66.0078L80.0848 61.9469ZM74.9665 86.3864L92.1221 86.5054C95.4274 86.4757 98.2024 85.137 99.5837 81.448C101.199 77.1937 99.7934 71.8387 96.3401 69.8306C95.7974 69.5182 94.7121 69.1315 94.3544 68.6555C94.5147 67.3911 96.8827 67.4804 97.7214 63.0476C98.3504 59.7305 97.1541 57.4398 95.6617 55.9672C93.7871 54.1227 91.5794 54.5243 88.7058 54.4499L80.6398 54.3607C73.7332 54.2863 74.9542 53.7359 74.8925 57.1125L74.8062 76.7326C74.8555 79.8415 74.7691 83.3073 74.9665 86.3864Z" fill="white"/>
<path d="M83.9109 106.623H80.4189L79.8189 108.327H78.3909L81.3789 99.9754H82.9629L85.9509 108.327H84.5109L83.9109 106.623ZM83.5269 105.507L82.1709 101.631L80.8029 105.507H83.5269ZM92.7581 108.411C92.1981 108.411 91.6941 108.315 91.2461 108.123C90.7981 107.923 90.4461 107.643 90.1901 107.283C89.9341 106.923 89.8061 106.503 89.8061 106.023H91.2701C91.3021 106.383 91.4421 106.679 91.6901 106.911C91.9461 107.143 92.3021 107.259 92.7581 107.259C93.2301 107.259 93.5981 107.147 93.8621 106.923C94.1261 106.691 94.2581 106.395 94.2581 106.035C94.2581 105.755 94.1741 105.527 94.0061 105.351C93.8461 105.175 93.6421 105.039 93.3941 104.943C93.1541 104.847 92.8181 104.743 92.3861 104.631C91.8421 104.487 91.3981 104.343 91.0541 104.199C90.7181 104.047 90.4301 103.815 90.1901 103.503C89.9501 103.191 89.8301 102.775 89.8301 102.255C89.8301 101.775 89.9501 101.355 90.1901 100.995C90.4301 100.635 90.7661 100.359 91.1981 100.167C91.6301 99.9754 92.1301 99.8794 92.6981 99.8794C93.5061 99.8794 94.1661 100.083 94.6781 100.491C95.1981 100.891 95.4861 101.443 95.5421 102.147H94.0301C94.0061 101.843 93.8621 101.583 93.5981 101.367C93.3341 101.151 92.9861 101.043 92.5541 101.043C92.1621 101.043 91.8421 101.143 91.5941 101.343C91.3461 101.543 91.2221 101.831 91.2221 102.207C91.2221 102.463 91.2981 102.675 91.4501 102.843C91.6101 103.003 91.8101 103.131 92.0501 103.227C92.2901 103.323 92.6181 103.427 93.0341 103.539C93.5861 103.691 94.0341 103.843 94.3781 103.995C94.7301 104.147 95.0261 104.383 95.2661 104.703C95.5141 105.015 95.6381 105.435 95.6381 105.963C95.6381 106.387 95.5221 106.787 95.2901 107.163C95.0661 107.539 94.7341 107.843 94.2941 108.075C93.8621 108.299 93.3501 108.411 92.7581 108.411ZM101.38 107.223H104.2V108.327H100.012V99.9874H101.38V107.223ZM109.472 101.091V103.539H112.352V104.655H109.472V107.211H112.712V108.327H108.104V99.9754H112.712V101.091H109.472ZM118.525 101.091V103.539H121.405V104.655H118.525V107.211H121.765V108.327H117.157V99.9754H121.765V101.091H118.525ZM136.551 104.043C136.999 104.123 137.379 104.359 137.691 104.751C138.003 105.143 138.159 105.587 138.159 106.083C138.159 106.507 138.047 106.891 137.823 107.235C137.607 107.571 137.291 107.839 136.875 108.039C136.459 108.231 135.975 108.327 135.423 108.327H132.087V99.9874H135.267C135.835 99.9874 136.323 100.083 136.731 100.275C137.139 100.467 137.447 100.727 137.655 101.055C137.863 101.375 137.967 101.735 137.967 102.135C137.967 102.615 137.839 103.015 137.583 103.335C137.327 103.655 136.983 103.891 136.551 104.043ZM133.455 103.491H135.147C135.595 103.491 135.943 103.391 136.191 103.191C136.447 102.983 136.575 102.687 136.575 102.303C136.575 101.927 136.447 101.635 136.191 101.427C135.943 101.211 135.595 101.103 135.147 101.103H133.455V103.491ZM135.303 107.211C135.767 107.211 136.131 107.099 136.395 106.875C136.659 106.651 136.791 106.339 136.791 105.939C136.791 105.531 136.651 105.207 136.371 104.967C136.091 104.727 135.719 104.607 135.255 104.607H133.455V107.211H135.303ZM143.774 99.9874V108.327H142.406V99.9874H143.774ZM152.926 108.327L149.698 104.595V108.327H148.33V99.9874H149.698V103.791L152.938 99.9874H154.654L151.03 104.163L154.714 108.327H152.926ZM163.712 106.623H160.22L159.62 108.327H158.192L161.18 99.9754H162.764L165.752 108.327H164.312L163.712 106.623ZM163.328 105.507L161.972 101.631L160.604 105.507H163.328ZM176.663 108.327H175.295L171.179 102.099V108.327H169.811V99.9754H171.179L175.295 106.191V99.9754H176.663V108.327ZM182.587 101.091V103.539H185.467V104.655H182.587V107.211H185.827V108.327H181.219V99.9754H185.827V101.091H182.587ZM194.604 108.327L192.684 104.991H191.64V108.327H190.272V99.9874H193.152C193.792 99.9874 194.332 100.099 194.772 100.323C195.22 100.547 195.552 100.847 195.768 101.223C195.992 101.599 196.104 102.019 196.104 102.483C196.104 103.027 195.944 103.523 195.624 103.971C195.312 104.411 194.828 104.711 194.172 104.871L196.236 108.327H194.604ZM191.64 103.899H193.152C193.664 103.899 194.048 103.771 194.304 103.515C194.568 103.259 194.7 102.915 194.7 102.483C194.7 102.051 194.572 101.715 194.316 101.475C194.06 101.227 193.672 101.103 193.152 101.103H191.64V103.899ZM201.982 99.9874V108.327H200.614V99.9874H201.982Z" fill="white"/>
<defs>
<linearGradient id="paint0_linear_53_2031" x1="45.5765" y1="47.3984" x2="173.171" y2="81.0101" gradientUnits="userSpaceOnUse">
<stop stop-color="#F59E2A"/>
<stop offset="1" stop-color="#956226"/>
</linearGradient>
</defs>
</svg>
