<svg width="90" height="47" viewBox="0 0 90 47" fill="none" xmlns="http://www.w3.org/2000/svg">
<path d="M1.51272 6.58338C4.631 5.93275 7.83435 5.43216 11.0067 5.02293C12.5491 4.80686 14.0927 4.63732 15.6375 4.47167C16.9328 4.35183 18.2546 4.22808 19.5454 4.10847C20.9511 4.00909 22.3591 3.91262 23.7636 3.84247L26.7141 3.72067L29.7773 3.64175L32.9001 3.64077L35.9804 3.71093L39.0528 3.82688C40.5353 3.89314 42.0239 3.99057 43.5181 4.08216C45.0065 4.20006 46.4351 4.31772 47.8994 4.43562C53.1245 4.88651 58.3266 5.42144 63.5551 5.847C64.9587 5.9649 66.363 6.0828 67.7366 6.17634L70.5504 6.34174C71.9272 6.40605 73.3274 6.45574 74.7375 6.47718C76.0571 6.49374 77.4054 6.52102 78.7558 6.52102C80.8018 6.49374 82.8555 6.42164 84.9336 6.29789C86.1991 6.22213 87.4658 6.15198 88.7256 6.037C89.0036 6.01069 89.291 5.95905 89.5704 5.94054L89.6381 45.7072C88.7083 45.7529 87.8117 45.8007 86.9084 45.8485C84.0143 45.9729 81.1245 46.046 78.1948 46.0479L76.1742 46.0508C74.7675 46.0265 73.3639 45.9807 71.9272 45.9371C70.5297 45.8689 69.1193 45.7948 67.7172 45.7033C66.3126 45.6097 64.9058 45.5152 63.5264 45.3973C58.3047 44.9552 53.0774 44.4097 47.8512 43.9589C45.9075 43.8215 43.9685 43.6636 42.0319 43.5399L39.0538 43.3765C37.532 43.3082 36.0184 43.2644 34.5047 43.2147L31.4208 43.1922L28.3208 43.2264L25.3395 43.3423L22.4706 43.4931L19.7167 43.7055C18.4259 43.8088 17.1397 43.9267 15.8467 44.0726C14.6697 44.1925 13.5111 44.3396 12.333 44.478C10.9814 44.6706 9.63428 44.8626 8.28833 45.076C7.47914 45.2183 6.63095 45.3437 5.7896 45.4859C4.38161 45.7471 2.95173 46.0129 1.5484 46.348L0.785177 46.5176L0.726562 6.75098C1.00127 6.68082 1.2541 6.63113 1.51272 6.58338Z" fill="#EA1D2B"/>
<path d="M35.9591 4.66029L38.9624 4.77429C40.4541 4.84445 41.9461 4.93799 43.4335 5.03323C44.8956 5.15503 46.3276 5.24272 47.7907 5.36257C53.0136 5.81151 58.2433 6.35107 63.4374 6.79636C64.8454 6.91621 66.2499 7.03094 67.6579 7.1274L70.468 7.29304C71.8679 7.36125 73.2759 7.4012 74.707 7.42848C75.8356 7.45284 76.9897 7.47428 78.139 7.47428C81.5666 7.4431 84.9939 7.29889 88.3904 7.0095L88.45 7.01169L88.5053 44.8222C85.2721 44.9899 82.0401 45.0658 78.8113 45.097C77.4701 45.0989 76.115 45.097 74.792 45.0736L71.9875 44.9821C70.6037 44.9118 69.2106 44.8456 67.8257 44.7504C66.4165 44.6568 65.0188 44.5604 63.612 44.4464C58.4133 43.9974 53.1814 43.457 47.9551 43.0096C46.493 42.8898 45.0632 42.7926 43.6013 42.6825C42.084 42.5861 40.5932 42.4925 39.1049 42.4253L36.0429 42.3074L32.9568 42.2394H29.8318L26.7754 42.3191L23.8227 42.4604L20.9837 42.6348C19.6389 42.7566 18.308 42.8521 16.9655 42.9941L14.4932 43.263C10.2508 43.7646 6.06363 44.3928 1.90627 45.2695L1.84766 7.485C4.60046 6.91109 7.38427 6.47871 10.1313 6.09505C11.2335 5.94987 12.3002 5.80566 13.3955 5.68411C15.023 5.49313 16.6839 5.32652 18.3103 5.17939C19.6907 5.06149 21.0412 4.95942 22.4089 4.86783L25.2778 4.71973L28.2616 4.62229L31.3523 4.59013L34.4164 4.61449L35.9591 4.66029" fill="white"/>
<path d="M75.2878 40.1727V39.8892C75.6027 39.2161 75.9097 38.5294 76.2982 37.4542H76.9773L76.8107 37.8135H76.8373C77.0877 37.5516 77.3359 37.3802 77.6487 37.3802L77.844 37.4036L77.6246 38.0483L77.3946 38.0045C77.0348 38.0045 76.7233 38.2702 76.4992 38.6454C76.335 38.9384 76.1072 39.5257 75.9969 39.8365L75.8522 40.1727H75.2878ZM75.2878 38.5996L75.3153 38.5519C75.4844 38.1263 75.4544 37.8369 75.2878 37.6489V38.5996ZM75.2878 37.6489V38.5996C75.2615 38.6931 75.205 38.7935 75.1477 38.8608L74.1719 38.8627V38.4798H74.6742C74.8418 38.0766 74.7833 37.8408 74.4201 37.8408L74.1672 37.8886L74.1719 37.4337C74.3097 37.4055 74.4488 37.386 74.5855 37.386C74.9224 37.386 75.1477 37.4795 75.2878 37.6489ZM75.2878 39.8892V40.1727H75.1808C75.2142 40.0781 75.2624 39.9807 75.2878 39.8892ZM74.1753 40.1958V39.7205C74.3431 39.6729 74.5063 39.6251 74.7073 39.5774L74.3994 40.1484L74.1753 40.1958V40.1958ZM74.1719 37.4337L74.1672 37.8886C73.9132 38.0045 73.6891 38.2179 73.55 38.4817L74.1719 38.4798V38.8627L73.3809 38.8666L73.3556 38.957C73.1556 39.4597 73.3522 39.743 73.8075 39.743C73.9132 39.7449 74.0269 39.7449 74.1753 39.7205V40.1958C73.9419 40.2183 73.7534 40.2436 73.5453 40.2475C73.1074 40.2436 72.8535 40.1503 72.7108 39.9807V38.8412C72.9027 38.3901 73.3522 37.6508 74.1719 37.4337ZM72.7098 37.8408L72.8786 37.462L72.7098 37.4581V37.8408ZM72.7098 37.4581V37.8408L72.6489 37.9869H72.0292C71.9155 38.2227 71.5523 39.0583 71.4994 39.2483C71.3835 39.486 71.3569 39.6768 71.5856 39.6768C71.7764 39.6768 71.8626 39.6309 72.0029 39.6037L71.6948 40.1783C71.4994 40.2241 71.3028 40.2475 71.1028 40.2504C70.9674 40.2504 70.8247 40.2475 70.7443 40.1997V39.3876C70.935 38.9862 71.3019 38.1028 71.3603 37.9869H71.019L71.2432 37.462H71.6029L71.8305 36.9582L72.5315 36.7929L72.257 37.462L72.7098 37.4581ZM72.7108 38.8412L72.6799 38.915C72.5627 39.1762 72.4258 39.6768 72.7108 39.9807V38.8412ZM70.7409 37.8155L70.9053 37.462H70.7362L70.7409 37.8155ZM70.7362 37.462L70.7409 37.8155L70.68 37.9869L70.0639 37.9909C69.9467 38.2266 69.595 39.0583 69.5019 39.2502C69.4203 39.486 69.3926 39.6768 69.6247 39.6787C69.8098 39.6787 69.8949 39.6309 70.0374 39.6037L69.7317 40.1823C69.5351 40.2221 69.3341 40.2504 69.1422 40.2504C68.665 40.2504 68.4927 40.0859 68.7249 39.5589C68.8318 39.2766 69.3329 38.1302 69.3879 37.9869L69.0525 37.9909L69.2732 37.462H69.6408L69.8398 36.9604L70.5421 36.7929L70.288 37.462H70.7362ZM70.7443 39.3876L70.6846 39.555C70.5455 39.9165 70.5755 40.1045 70.7443 40.1997V39.3876ZM67.2882 40.2036V39.7294C67.4767 39.6807 67.6514 39.6368 67.8455 39.5833L67.5376 40.1581L67.2882 40.2036V40.2036ZM67.2882 38.8714H68.2949C68.3524 38.7788 68.4053 38.6551 68.4628 38.5635C68.7444 37.7735 68.4007 37.3919 67.7296 37.3919C67.5871 37.3899 67.4226 37.4142 67.2835 37.4415V37.8973C67.3639 37.873 67.4514 37.8447 67.5629 37.8447C67.9296 37.8447 67.9846 38.0844 67.8168 38.4856L67.2882 38.4895V38.8714ZM67.2835 37.4415V37.8973C67.056 38.0123 66.8273 38.2285 66.6858 38.4856L67.2882 38.4895V38.8714H66.5238L66.4938 38.9647C66.3031 39.4695 66.4975 39.7488 66.9503 39.7488C67.0594 39.7488 67.1698 39.7488 67.2882 39.7294V40.2036C67.0848 40.226 66.8916 40.2504 66.687 40.2524C66.2168 40.2504 65.9352 40.1328 65.8237 39.9428V38.9209C65.9825 38.4856 66.4375 37.681 67.2835 37.4415V37.4415ZM65.8193 37.4659L65.8468 37.3743C65.9825 37.0148 65.934 36.7996 65.8193 36.6817V37.4659ZM65.8193 36.6817V37.4659C65.6261 37.8944 65.2836 38.1789 64.8917 38.3024C65.2595 38.3716 65.3733 38.7068 65.2042 39.184C65.0342 39.5872 64.7814 39.8512 64.4216 40.0168L64.4194 39.3019L64.5261 39.0923C64.6423 38.8247 64.5548 38.6834 64.4194 38.6356V38.0386C64.7814 37.9928 65.0089 37.7512 65.0871 37.5176C65.2549 37.1102 64.9767 37.0684 64.6985 37.0684H64.4113V36.5415L65.3399 36.5395C65.5377 36.5395 65.7077 36.5619 65.8193 36.6817V36.6817ZM65.8239 38.9209C65.709 39.1586 65.594 39.6368 65.8239 39.9428V38.9209ZM64.4113 36.5415V37.0684L64.1054 37.0644L63.6825 38.0386L64.271 38.0366L64.4194 38.0386V38.6356C64.3331 38.5898 64.195 38.5898 64.0766 38.5918H63.4584L63.0114 39.6592H63.6067C64.0262 39.6592 64.2778 39.5202 64.4194 39.3019L64.4216 40.0168C64.1653 40.1328 63.8859 40.1842 63.5814 40.1862L62.0551 40.1842C62.3376 39.6407 63.0365 37.9967 63.6067 36.5415H64.4113ZM59.139 40.19L59.1332 38.2877C59.4413 38.023 59.7287 37.759 60.0366 37.4756L60.7884 37.4717L59.386 38.6931C59.508 39.2161 59.6688 39.6874 59.7826 40.19H59.139ZM59.1332 37.5458C59.301 37.1648 59.4413 36.8289 59.5804 36.5454L59.1276 36.5493L59.1332 37.5458ZM59.1276 36.5493L59.1332 37.5458C58.7656 38.4076 58.3493 39.4295 58.0414 40.19H57.4253V40.0002C57.9529 38.8314 58.4345 37.6887 58.8793 36.5493H59.1276ZM59.1332 38.2877C58.9977 38.4076 58.8516 38.548 58.7125 38.6678C58.7931 39.1918 58.9665 39.6651 59.0218 40.19H59.139L59.1332 38.2877ZM57.4207 38.3141L57.447 38.2877C57.5586 37.9548 57.5586 37.7395 57.4207 37.5972V38.3141ZM57.4207 37.5972V38.3141C57.3103 38.6454 56.9391 39.4081 56.638 40.1938H55.9058C56.1611 39.669 56.4069 39.1459 56.6334 38.6211C56.7725 38.214 56.6863 38.023 56.3265 38.0249C55.9287 38.0269 55.5908 38.3375 55.3735 38.7409C55.1161 39.1703 54.8345 39.9544 54.7231 40.1958H54.2209V39.7635C54.5219 39.0749 54.861 38.3619 55.1933 37.4795H55.9012L55.7126 37.9284C56.0644 37.5497 56.4656 37.4055 56.8507 37.4036C57.1125 37.4036 57.3103 37.4523 57.4207 37.5972V37.5972ZM57.4253 40.0002L57.3437 40.1919L57.4253 40.19V40.0002ZM54.2174 37.9323C54.2725 37.7872 54.3541 37.6235 54.4082 37.4795H54.2174V37.9323ZM54.2174 37.0284V36.5054H54.8345L54.6082 37.0265L54.2174 37.0284ZM54.2174 36.5054V37.0284L53.9047 37.0265L54.0956 36.5054H54.2174ZM54.2174 37.4795V37.9323C53.9047 38.5996 53.6265 39.3155 53.292 40.1977L52.6438 40.1958L52.6416 40.0061C53.037 39.1703 53.3727 38.316 53.7071 37.4795H54.2174ZM54.2209 39.7635C54.1634 39.9145 54.0771 40.0567 54.0231 40.1977L54.2209 40.1958V39.7635ZM52.6416 38.318V38.2955C52.7783 37.9587 52.7542 37.7453 52.637 37.6069L52.6416 38.318ZM52.637 37.6069L52.6416 38.318C52.4979 38.6512 52.1381 39.41 51.83 40.1997H51.0956C51.3808 39.6729 51.6346 39.1479 51.8266 38.6259C51.9703 38.2207 51.8807 38.0308 51.5175 38.0327C51.1277 38.0308 50.7852 38.3423 50.5945 38.7496C50.3416 39.1762 50.0301 39.9602 49.9188 40.1997L49.7762 40.2016L49.775 38.9404C50.1394 38.1487 50.4508 37.3422 50.7818 36.556H51.4911C51.2634 37.007 51.0634 37.4795 50.8749 37.9343C51.2371 37.5293 51.6278 37.4084 52.0417 37.4084C52.3082 37.4123 52.5301 37.462 52.637 37.6069V37.6069ZM52.6416 40.0061L52.5301 40.1977L52.6438 40.1958L52.6416 40.0061ZM49.7704 37.1502H50.0807L50.3314 36.5599H49.7704V37.1502ZM49.7704 36.5599V37.1502C49.575 37.1269 49.3439 37.1269 49.0703 37.1269C48.6533 38.0561 48.2579 39.0124 47.7819 40.2016L47.0256 40.2036C47.4429 39.296 47.8923 38.1789 48.3429 37.1269C47.6119 37.1269 47.5245 37.1541 47.3038 37.1541L47.5591 36.5599H49.7704ZM49.775 38.9404C49.6084 39.3681 49.4118 39.7986 49.214 40.2016H49.7762L49.775 38.9404ZM43.1556 40.5398V39.7527L43.2017 39.6816H43.9361L43.1556 40.5398ZM43.143 38.4914V37.6333L43.2579 37.4961L43.9614 37.4923L43.143 38.4914ZM43.143 37.6333V38.4914L41.3214 40.825C41.0926 41.1359 40.7638 41.5195 40.1202 41.5195V40.9741L40.1972 40.9985C40.5329 40.9985 40.8432 40.5895 41.0673 40.2797L41.2605 37.4961L41.9637 37.4923C41.8534 38.2042 41.8259 38.9023 41.6833 39.6134H41.7143C42.1569 38.9501 42.6684 38.3024 43.143 37.6333ZM43.1556 39.7527L42.3671 40.8728L42.8372 40.8787L43.1556 40.5398V39.7527ZM40.1168 39.2337C40.2846 38.8314 40.45 38.4973 40.5087 38.3063C40.7294 37.7336 40.5007 37.4961 40.1168 37.4474V39.2337ZM40.1168 37.4474V39.2337C39.9731 39.5452 39.8294 39.8784 39.6903 40.2144H38.9627C39.2408 39.6855 39.4937 39.1645 39.6893 38.6415C39.8281 38.2325 39.7478 38.0464 39.3777 38.0464C38.9892 38.0464 38.6501 38.3541 38.4548 38.7594C38.2007 39.1918 37.8938 39.973 37.78 40.2144H37.3868V39.5511C37.8307 38.543 38.2536 37.5692 38.6455 36.5716L39.3444 36.5677C39.1536 37.0167 38.9249 37.498 38.7317 37.9451C39.1008 37.5419 39.4915 37.424 39.9144 37.424L40.1168 37.4474V37.4474ZM40.1202 40.9741V41.5195C39.949 41.5195 39.7811 41.4972 39.6099 41.4455L39.7811 40.8767C39.8627 40.9263 39.9443 40.9761 40.1202 40.9741V40.9741ZM37.3812 38.023H37.4663L37.6962 37.5L37.3812 37.498V38.023ZM37.3812 37.498V38.023H36.841C36.7686 38.2596 36.372 39.0943 36.3216 39.2843C36.2329 39.5257 36.2122 39.7147 36.403 39.7205C36.6008 39.7147 36.7099 39.667 36.8261 39.6407L36.5192 40.2144C36.3226 40.2602 36.1214 40.2855 35.9594 40.2855C35.8434 40.2855 35.756 40.2875 35.6722 40.2621V39.2161C35.8698 38.7594 36.1538 38.1185 36.1779 38.0269H35.8388L36.0651 37.5H36.4317L36.6595 36.9982L37.3583 36.8289L37.0824 37.5L37.3812 37.498ZM37.3868 39.5511C37.3009 39.7605 37.1927 39.9963 37.0848 40.2144H37.3868V39.5511ZM35.671 37.1219C35.756 36.9331 35.8342 36.7373 35.926 36.5736L35.6664 36.5716L35.671 37.1219ZM35.6664 36.5716L35.671 37.1219C35.2215 38.1448 34.7802 39.1918 34.3527 40.2183H33.74V39.9788C34.2089 38.9531 34.6571 37.9323 35.1928 36.5736L35.6664 36.5716ZM35.6722 39.2161C35.595 39.3554 35.5375 39.5016 35.4997 39.5968C35.3653 40.0002 35.4262 40.19 35.6722 40.2621V39.2161ZM33.732 38.2877L33.7895 38.1448C33.8998 37.8847 33.8711 37.6917 33.7366 37.5972L33.732 38.2877ZM33.7366 37.5972L33.732 38.2877C33.5654 38.7175 33.2056 39.5035 32.9228 40.2221H32.2229C32.3286 39.9807 32.4434 39.741 32.8653 38.8149C32.4974 39.0749 31.6826 39.0505 31.4826 39.5338C31.4103 39.7888 31.5769 39.8609 31.7745 39.8609C31.9126 39.8609 32.0505 39.817 32.1905 39.7635L31.9126 40.2416C31.7494 40.2903 31.5769 40.2903 31.432 40.2903C31.125 40.2903 30.955 40.2241 30.8666 40.1279V39.4597C31.3148 38.4378 32.8653 38.7652 33.0906 38.1701C33.2009 37.907 32.9503 37.8886 32.7469 37.8847C32.439 37.8847 32.0746 37.9771 31.7114 38.0989L31.9608 37.5994C32.3574 37.5038 32.7469 37.4318 33.1147 37.4318C33.34 37.4318 33.5917 37.4776 33.7366 37.5972V37.5972ZM33.74 39.9788C33.7113 40.082 33.6801 40.1484 33.6263 40.2183H33.74V39.9788ZM30.8666 38.5519C30.9838 38.2042 30.9838 37.907 30.8666 37.7473V38.5519ZM30.8666 37.7473V38.5519L30.8378 38.5996C30.7872 38.6931 30.7297 38.8169 30.6941 38.9112H29.6908L29.6883 38.5313L30.194 38.5294C30.3609 38.1283 30.309 37.8886 29.9436 37.8886L29.6883 37.9353L29.6908 37.4795C29.8274 37.4581 29.9677 37.4376 30.1322 37.4337C30.4734 37.4337 30.7297 37.5293 30.8666 37.7473V37.7473ZM30.8666 39.4597V40.1279C30.7009 39.9408 30.7872 39.6729 30.8413 39.5338L30.8666 39.4597ZM29.6908 40.2475V39.7693C29.8574 39.7235 30.0642 39.6729 30.2252 39.6251L29.9161 40.1997L29.6908 40.2475ZM29.6908 37.4795L29.6883 37.9353C29.4308 38.0541 29.2102 38.2702 29.0701 38.5294L29.6883 38.5313L29.6908 38.9112L28.901 38.915L28.8723 39.0086C28.6769 39.5113 28.8769 39.7947 29.3263 39.7927C29.4309 39.7927 29.547 39.7947 29.6908 39.7693V40.2475C29.4608 40.268 29.2735 40.2923 29.0723 40.2923C28.7057 40.2962 28.455 40.2241 28.3115 40.1045V38.7233C28.5378 38.2722 28.9619 37.6732 29.6908 37.4795V37.4795ZM28.3115 37.1044V36.5794L28.531 36.5833C28.4482 36.7451 28.3895 36.937 28.3115 37.1044V37.1044ZM17.8544 36.595L17.6004 37.1882L17.4659 37.1862V36.595H17.8544ZM28.3115 36.5794V37.1044C27.8575 38.1526 27.4127 39.2005 26.9908 40.2241L26.2057 40.226C26.4322 39.7732 26.6229 39.3184 26.9345 38.6073H25.2783C25.0196 39.1801 24.8242 39.7051 24.607 40.2299H23.8231C24.3219 39.1099 24.8219 38.0386 25.3816 36.5853H26.1448C25.9713 36.9429 25.8301 37.2963 25.5278 38.0366H27.1574C27.2139 37.9412 27.5518 37.1044 27.7771 36.5833L28.3115 36.5794ZM28.3115 38.7233C28.2597 38.8227 28.2253 38.8887 28.1941 38.9628C28.0838 39.2483 27.9493 39.7947 28.3115 40.1045V38.7233ZM17.4682 40.2816V39.0923C18.1061 38.5236 19.2348 38.6892 19.4325 38.1848C19.5451 37.9265 19.2934 37.9012 19.0911 37.9012C18.752 37.9012 18.3935 37.9928 18.0543 38.1146L18.3061 37.6157C18.7003 37.5195 19.0911 37.4474 19.4635 37.4474C19.875 37.4474 20.3601 37.5653 20.1325 38.1604C19.9957 38.5411 19.5738 39.4237 19.2394 40.2377H18.5659C18.6739 39.9963 18.79 39.7527 19.1785 38.8314C18.8393 39.0923 18.0027 39.0719 17.8314 39.5452C17.7199 39.8053 17.913 39.8784 18.1084 39.8784C18.2475 39.8784 18.3957 39.8326 18.5371 39.781L18.2222 40.2563C18.0543 40.3059 17.913 40.3079 17.7463 40.3059C17.636 40.3079 17.5487 40.304 17.4682 40.2816V40.2816ZM22.3266 38.0444L22.5439 37.5117L21.9313 37.5176L22.2094 36.8474L21.5072 37.0148L21.2819 37.5176H20.9164L20.6922 38.0444H21.0646C21.0083 38.1809 20.4715 39.3281 20.3887 39.6134C20.1624 40.1386 20.3324 40.304 20.8083 40.304C20.9842 40.304 21.1726 40.2797 21.3991 40.2338L21.7082 39.6592C21.5669 39.6874 21.4796 39.7294 21.2887 39.7313C21.0646 39.7313 21.0956 39.5413 21.1726 39.3058C21.26 39.1128 21.6254 38.278 21.7071 38.0444H22.3266ZM17.4659 37.1862C17.2372 37.1619 16.9832 37.1619 16.7636 37.1619L15.9487 37.1648L15.5556 38.1185L16.343 38.1166C16.5026 38.1146 16.7361 38.1146 17.0142 38.0922L16.7682 38.6648H15.2993L14.8821 39.6651L15.8384 39.6612C15.9751 39.6651 16.1165 39.6612 16.5614 39.6407L16.2855 40.2397H13.8672C14.2625 39.5016 15.1602 37.3305 15.4338 36.595H17.4659V37.1862ZM17.4682 39.0923C17.351 39.2083 17.2372 39.3554 17.1544 39.5472C17.0728 39.7586 16.9877 40.1881 17.4682 40.2816V39.0923Z" fill="#318F3C"/>
<path d="M45.1881 35.6328L81.4558 30.35C82.835 30.1385 83.9029 29.112 83.9029 27.8709L83.8776 15.7283C83.8822 15.0397 83.5728 14.4202 83.0374 13.9691C79.6008 11.0657 68.1622 8.69966 45.1492 8.72207C22.1397 8.74838 10.7045 11.1434 7.28279 14.0529C6.74944 14.5057 6.43915 15.1254 6.44142 15.8118L6.46208 27.9606C6.46446 29.1976 7.51038 30.2185 8.90685 30.4299L45.1881 35.6328Z" fill="#EA1D2B"/>
<path d="M41.5581 27.1558C47.8465 25.839 55.4656 27.2854 59.3977 28.7082C55.7438 28.6169 51.476 28.9782 47.7452 29.7701C43.805 30.6125 40.5777 31.7064 37.5778 33.7109C35.0457 32.0716 34.3665 28.7141 41.5581 27.1558" fill="#318F3C"/>
<path d="M76.1704 22.5951L76.1726 21.1204C76.3923 21.0446 76.6461 21.0027 76.9518 21.0027C76.7864 20.5487 76.2198 19.1658 76.2198 19.1658L76.1624 19.3078L76.1565 16.2894C76.6646 16.2855 77.1416 16.2855 77.2266 16.2855C77.5094 16.2855 78.0117 16.4054 78.2738 16.9469C78.5233 17.4738 81.5701 25.1635 81.6298 25.3312C81.708 25.5426 81.6254 25.6349 81.4301 25.6349H79.238C79.0679 25.6407 78.7851 25.6866 78.5576 25.0954C78.4219 24.7642 77.6049 22.7402 77.5416 22.599C77.4841 22.5951 76.814 22.5951 76.1704 22.5951V22.5951ZM76.1565 16.2894L76.1624 19.3078C75.9417 19.9565 75.6554 20.7864 75.3819 21.5491L75.4888 21.553C75.6888 21.3591 75.9117 21.2159 76.1726 21.1204L76.1704 22.5951C75.6072 22.6009 75.0659 22.6009 75.0416 22.6009C74.9865 22.7889 74.3473 24.7409 74.3198 24.8822C74.2648 24.9998 74.1245 25.6427 73.2543 25.6427C73.1693 25.6446 72.6624 25.6446 72.4705 25.6446C72.2729 25.6446 72.1017 25.5969 72.212 25.3136C72.3786 24.958 74.8935 17.4017 74.9485 17.2363C75.0382 17.0268 75.1188 16.7608 74.8589 16.5252C74.6991 16.382 74.9222 16.2894 75.1176 16.2894H76.1565ZM43.0176 22.6331V21.1574C43.2395 21.0846 43.4843 21.0388 43.7693 21.0388C43.5981 20.5847 43.0371 19.2035 43.0371 19.2035L43.0117 19.3438L43.0061 16.3459H44.0463C44.3245 16.3255 44.828 16.4619 45.0818 16.9849C45.3062 17.5098 48.3611 25.1977 48.4105 25.3671C48.4921 25.5803 48.4105 25.6729 48.2173 25.669C47.7679 25.6729 46.1383 25.6749 46.0245 25.6729C45.853 25.6749 45.5761 25.7225 45.3519 25.1314C45.2301 24.8003 44.4475 22.7782 44.3888 22.6312C44.3004 22.6331 43.6302 22.6331 43.0176 22.6331V22.6331ZM71.7039 25.0056C71.7039 25.4792 71.2544 25.6485 71.005 25.6485C70.7753 25.6466 69.6292 25.6485 69.3751 25.6485C69.1213 25.6485 69.0063 25.5328 69.0039 25.0573C69.0039 22.675 68.9995 17.4611 68.9995 17.3218C68.9995 17.1544 68.9937 16.7452 68.8546 16.5252C68.7408 16.3674 68.7671 16.3177 69.0787 16.3177C69.219 16.3177 69.6971 16.3177 70.3166 16.3138C71.2164 16.3138 71.689 16.9547 71.69 17.6492C71.69 17.6492 71.7039 24.5052 71.7039 25.0056V25.0056ZM55.3505 21.0281C55.0046 20.6451 52.3034 17.7447 51.6576 17.0005C51.207 16.4792 50.4784 16.3401 50.0506 16.3362C49.4334 16.3401 48.9598 16.3401 48.8127 16.3401C48.4782 16.3401 48.4819 16.3878 48.5966 16.5532C48.7369 16.7705 48.7403 17.1778 48.7369 17.3413C48.7403 17.4816 48.7462 22.7207 48.7462 25.1021C48.7484 25.5823 48.8646 25.669 49.114 25.6729C49.3634 25.6729 49.8738 25.669 50.1242 25.669C50.522 25.669 50.7702 25.5036 50.7702 25.144C50.7702 24.8364 50.7609 20.4795 50.7609 20.1455C50.93 20.316 54.732 24.5032 55.2138 25.0222C55.6942 25.5211 56.2793 25.6661 56.6172 25.6622H57.4079C57.4079 25.6183 57.394 17.4718 57.3906 17.2614C57.3906 16.7588 57.0861 16.3079 56.4907 16.3079C55.871 16.3079 55.5607 16.3099 55.4218 16.3079C55.1137 16.3079 55.0862 16.382 55.1965 16.5454C55.3402 16.7627 55.3412 17.1678 55.3412 17.3354C55.3412 17.3997 55.3493 19.118 55.3505 21.0281V21.0281ZM65.4869 21.0105C65.4869 19.1119 65.4823 17.388 65.4823 17.3218C65.4776 17.1544 65.4776 16.753 65.3432 16.5359C65.2294 16.3693 65.2594 16.3002 65.5639 16.3002C65.703 16.2982 66.0111 16.2982 66.6327 16.2982C67.2247 16.2982 67.5362 16.7452 67.5409 17.248C67.5362 17.465 67.5477 25.6066 67.5523 25.6485C67.4614 25.6485 66.9007 25.6524 66.7616 25.6524C66.4201 25.6524 65.834 25.5133 65.3592 25.0076C64.8789 24.4915 61.0766 20.3073 60.91 20.1338C60.91 20.4668 60.9134 24.8286 60.9134 25.1373C60.9134 25.4909 60.6652 25.6583 60.2733 25.6622C60.0182 25.6583 59.5169 25.6622 59.2584 25.6622C59.0032 25.6622 58.8906 25.5687 58.8952 25.0895C58.8906 22.7071 58.8792 17.4718 58.8792 17.3296C58.8792 17.1639 58.8792 16.7549 58.7354 16.5398C58.6205 16.3781 58.6205 16.3294 58.9596 16.3294C59.1055 16.3294 59.5836 16.3294 60.1963 16.3274C60.6228 16.3294 61.3536 16.4716 61.8008 16.9907C62.4468 17.731 65.1536 20.6334 65.4869 21.0105V21.0105ZM43.0061 16.3459L43.012 19.3438C42.7833 19.9906 42.4751 20.8264 42.2281 21.5851H42.3051C42.5051 21.3932 42.728 21.2519 43.0176 21.1574V22.6331C42.4235 22.6331 41.9166 22.637 41.8578 22.637C41.7982 22.8269 41.1602 24.8042 41.1314 24.9219C41.0786 25.0398 40.9349 25.6807 40.0947 25.6827C40.0431 25.6827 39.9006 25.6807 39.7603 25.6807L39.7556 23.3295C40.5373 20.9686 41.7382 17.3978 41.7948 17.2762C41.882 17.0619 41.9338 16.8007 41.7085 16.5854C41.5441 16.418 41.7382 16.3498 41.9338 16.3459H43.0061ZM39.7464 18.1839C39.9983 18.1839 40.2246 18.1819 40.2764 18.1839C40.474 18.1839 40.474 18.0387 40.474 17.7106C40.474 17.3257 40.3269 16.7286 39.7464 16.4697V18.1839ZM39.7464 16.4697V18.1839C39.1052 18.1839 38.1511 18.1858 38.0846 18.1858C37.897 18.1858 37.7752 18.3018 37.7752 18.5434C37.7833 20.3772 37.7879 24.6629 37.7879 25.0437C37.7925 25.5426 37.3431 25.6827 37.089 25.6827H35.5741C35.349 25.6827 35.2362 25.5687 35.2353 25.0954C35.2353 23.4035 35.226 20.2595 35.2226 18.5451C35.2226 18.2579 35.1157 18.1858 34.6353 18.1917H33.088C32.9755 18.1956 32.9204 18.1439 32.9238 17.9763L32.9204 16.5252C32.9226 16.4541 32.9755 16.3537 33.1467 16.3537C33.3145 16.3576 38.0846 16.3537 39.0719 16.3537C39.3201 16.3498 39.5408 16.3995 39.7464 16.4697V16.4697ZM39.7556 23.3295C39.3924 24.4253 39.0855 25.2317 39.0568 25.3477C38.9464 25.6407 39.1143 25.6807 39.2867 25.6807C39.3924 25.6827 39.589 25.6827 39.7603 25.6807L39.7556 23.3295ZM24.3574 23.5827L24.3528 20.4152C25.0286 20.2478 25.3895 19.7229 25.3895 19.1519C25.3895 18.627 25.2194 18.2004 24.346 18.104V16.3674H24.8803C29.3825 16.3615 28.6814 20.8127 26.1872 21.437C26.4067 21.9581 28.1262 24.6483 29.1664 25.4354C29.3976 25.5988 29.3101 25.669 29.1147 25.669C28.7998 25.7187 27.1974 25.7723 26.2367 25.4149C25.4816 25.1274 24.8333 24.3415 24.3574 23.5827V23.5827ZM32.3421 25.0476C32.3409 24.5684 32.3319 17.6911 32.3319 17.6911C32.3319 16.9985 31.8503 16.3576 30.9536 16.3615C30.3342 16.3576 29.8514 16.3654 29.7123 16.3615C29.3825 16.3615 29.3527 16.4112 29.4594 16.599C29.6285 16.7871 29.6285 17.1961 29.6285 17.3637C29.6285 17.503 29.6377 22.7207 29.6446 25.0982C29.6446 25.5764 29.7549 25.6944 30.0136 25.6944C30.2306 25.6905 31.4157 25.6905 31.6398 25.6905C31.8639 25.6905 32.3409 25.5455 32.3421 25.0476V25.0476ZM14.9152 20.7367C15.9278 20.7552 16.7152 21.4029 16.7152 22.3312C16.7152 23.236 16.2324 23.8029 14.9176 23.8798L14.9221 25.7089H16.3853C20.3989 25.706 21.015 20.4649 16.9922 19.9224C19.4633 19.5173 19.4817 14.9209 15.1577 14.9287H14.906V16.7345C15.36 16.8787 15.744 17.2097 15.7508 17.8752C15.7508 18.5169 15.4141 18.8988 14.9106 19.0683L14.9152 20.7367ZM24.346 16.3674V18.104C24.0632 18.0825 23.7287 18.0825 23.3137 18.1322C23.3137 18.1322 23.3195 20.3677 23.3195 20.5116L23.7942 20.5107C23.9873 20.5116 24.1838 20.4629 24.3528 20.4152L24.3574 23.5827C23.8459 22.7743 23.5149 21.9386 23.3137 21.6329C23.3137 21.8188 23.3195 24.5811 23.3241 25.0573C23.3241 25.5589 22.8758 25.7002 22.6506 25.7021C22.3908 25.7002 21.2438 25.7021 20.992 25.7002C20.738 25.707 20.6242 25.6085 20.6242 25.1119C20.615 22.751 20.6104 17.5118 20.6081 17.3958C20.6081 17.2265 20.6081 16.8007 20.4667 16.5854C20.3564 16.418 20.3909 16.3723 20.7254 16.3693C21.0644 16.3693 23.3137 16.3693 24.346 16.3674V16.3674ZM14.5784 23.9003C14.4164 23.9042 14.2704 23.9003 14.1245 23.9042C13.1751 23.9042 13.1188 23.4289 13.1176 23.2856C13.1176 23.1697 13.1176 21.0005 13.1107 20.879C13.1107 20.7591 13.1417 20.7387 13.3096 20.7387C13.8418 20.7367 14.4107 20.7328 14.8566 20.7367H14.9152L14.9106 19.0683C14.6544 19.1658 14.3406 19.1899 14.0325 19.1899C13.0808 19.1899 13.1107 19.1675 13.1107 18.929C13.1107 18.8345 13.1107 16.8787 13.1061 16.7812C13.1061 16.6653 13.1349 16.639 13.3015 16.6412C13.8337 16.5932 13.9233 16.6156 14.3406 16.639C14.5451 16.639 14.7452 16.6653 14.906 16.7345V14.9287C13.9728 14.9287 10.7154 14.9326 10.351 14.9326C10.0372 14.9326 10.0143 15.0047 10.1315 15.1421C10.2395 15.3584 10.2683 15.7411 10.2706 15.9048C10.2683 16.0468 10.2798 23.2895 10.2844 24.2656C10.2867 25.1479 10.9557 25.7109 11.797 25.7109C11.9992 25.7109 13.6555 25.7089 14.9221 25.7089L14.9176 23.8798C14.8026 23.9003 14.6934 23.9042 14.5784 23.9003" fill="white"/>
<path d="M86.5839 0.226123C87.3965 0.222225 88.131 0.507718 88.6886 0.964455C89.231 1.41169 89.5621 2.05819 89.5677 2.74682C89.5677 4.12605 88.2206 5.24999 86.5932 5.24999V4.82053C87.938 4.82443 89.0345 3.8883 89.0311 2.74878C89.0252 2.17414 88.747 1.65309 88.3254 1.27406H88.3C87.8735 0.890402 87.2574 0.680912 86.5839 0.680912V0.226123ZM86.5839 0.226123V0.680912C85.2359 0.682861 84.1382 1.61119 84.1382 2.75267C84.1382 3.32341 84.4232 3.84275 84.8542 4.204C85.299 4.58961 85.9209 4.82443 86.5932 4.82053V5.24999C85.7771 5.25194 85.0208 4.99202 84.4888 4.51555C83.9426 4.06174 83.6094 3.44131 83.6094 2.75267C83.6035 1.37345 84.9577 0.228071 86.5839 0.226123" fill="#EA1D2B"/>
<path d="M86.6459 1.48425H86.6987C87.0091 1.48425 87.2322 1.50666 87.3988 1.53394C87.5367 1.57779 87.6505 1.6762 87.7389 1.78996C87.8195 1.90785 87.878 2.0316 87.878 2.1953C87.878 2.38627 87.7942 2.52658 87.6814 2.65203C87.5447 2.79332 87.3516 2.86347 87.0931 2.88783C87.2069 2.95994 87.316 3.02887 87.4057 3.10292C87.4895 3.19646 87.5998 3.31631 87.7425 3.52872L88.1067 4.03321H87.4057L86.9587 3.46247C86.8091 3.26662 86.6987 3.15262 86.6459 3.10682V2.5546C86.8391 2.5546 86.9587 2.52829 87.0115 2.52829L87.1769 2.40868L87.2653 2.21673C87.2644 2.12514 87.2322 2.05889 87.1769 2.00529C87.1148 1.96535 87.0344 1.93709 86.9241 1.9137H86.6459V1.48425ZM85.4116 4.03321L85.4023 1.48425H86.6459V1.9137H86.4966H86.023V2.5546H86.4793H86.6459V3.10682L86.4493 2.98332C86.3884 2.96188 86.2815 2.96188 86.139 2.96188H86.023L86.0286 4.03516L85.4116 4.03321Z" fill="#EA1D2B"/>
</svg>
