<svg width="99" height="90" viewBox="0 0 99 90" fill="none" xmlns="http://www.w3.org/2000/svg">
<path d="M58.4404 74.7741L58.4395 74.7728C57.7883 74.0541 56.811 73.9728 55.8842 73.9728C54.9069 73.9728 53.9952 74.1174 52.7505 74.9692C54.3084 71.0472 56.7705 65.6864 56.7952 65.6295L56.9171 65.3687L56.6318 65.3963C56.6173 65.397 55.1292 65.5522 52.1296 66.2662L52.0456 66.2882L51.8243 66.8963L45.5694 83.3779C45.5694 83.3779 45.1109 84.3753 43.745 85.1769C43.0306 85.5952 42.6284 85.6461 42.3906 85.6814C42.3551 85.6911 42.3178 85.6913 42.2822 85.6821C42.2466 85.6729 42.214 85.6546 42.1874 85.6289C42.1609 85.6032 42.1413 85.5711 42.1306 85.5355C42.12 85.5 42.1185 85.4623 42.1265 85.426C42.3076 84.9218 42.8152 83.5197 42.8152 83.5197C44.331 79.228 45.273 76.6427 45.6939 75.6163L46.244 74.2742H42.1143C42.1143 74.2742 42.0425 74.4091 42.0154 74.4567C41.5398 74.1676 40.9819 74.0005 40.329 74.0005C39.4127 74.0005 38.2329 74.529 36.6173 75.6656C34.9566 76.8452 33.5294 78.2163 32.3664 79.7462C30.9171 81.6821 30.183 83.6173 30.183 85.4976C30.183 86.3635 30.3819 87.1168 30.7765 87.7379C31.1016 88.2587 31.7458 88.8812 32.9579 88.8812C34.5291 88.8812 36.0481 88.2894 37.4809 87.1564C37.5916 87.5444 37.8288 87.9024 38.2797 88.2254C38.8686 88.6534 39.696 88.8605 40.0287 88.8768C40.3623 88.8922 41.5919 88.8332 42.6814 88.2664C43.6053 87.7855 44.1775 87.1654 44.6949 86.3615C44.9624 87.0175 45.3145 87.574 45.7522 88.012C46.3227 88.5888 47.0414 88.8812 47.8856 88.8812C50.2508 88.8812 52.733 87.7023 55.2616 85.382C57.9918 82.8823 59.3792 80.1708 59.3792 77.3211C59.3792 76.3283 59.063 75.4721 58.4404 74.7741V74.7741ZM52.8447 83.3599C51.2334 85.7797 50.7024 85.9235 50.1333 85.9678C49.8068 85.9955 49.5674 85.8912 49.3823 85.7271C49.3081 85.6592 49.2504 85.5748 49.2139 85.4807C49.1773 85.3865 49.1628 85.285 49.1715 85.1842C49.1715 85.1842 49.207 84.8698 49.238 84.7446C49.2713 84.6187 49.7143 83.0345 50.4498 81.3561C51.1846 79.6743 51.4784 79.2503 52.044 78.5776C52.9916 77.4486 54.036 76.9774 54.5581 77.2708C55.5838 77.8459 54.0765 81.5056 52.8447 83.3599V83.3599ZM34.9586 85.7017C34.1121 85.2855 34.7725 83.4218 36.2329 80.7573C37.4226 78.5826 38.6067 77.4879 39.7263 77.4879C39.865 77.4879 40.0211 77.5192 40.2161 77.7394C40.3956 77.9425 40.4776 78.138 40.4776 78.3535C40.4776 78.9516 40.1624 80.1675 38.6519 82.5483C37.3235 84.6407 35.6503 86.0404 34.9586 85.7017V85.7017ZM85.968 75.1834C85.4015 74.5739 84.6028 74.2652 83.5932 74.2652C82.8314 74.2652 82.0583 74.6116 81.2547 75.191C81.3465 74.929 81.5172 74.4457 81.5172 74.4457L77.2142 74.4407L73.8987 84.4379C73.4333 84.9338 72.8569 85.382 72.6066 85.5329C72.0677 85.8499 71.3006 86.1423 70.6534 85.8779C70.6534 85.8779 70.3408 85.7181 70.4109 85.5282L71.6286 81.9049C72.514 79.2606 73.2959 77.063 73.8928 75.5474L74.4142 74.2203H70.0588L69.8217 74.848C69.0529 76.9085 68.4139 78.4634 67.8685 79.6053C67.0138 81.423 66.1577 82.8257 65.326 83.7768C64.5612 84.6377 63.8771 85.3301 63.0102 85.3264C62.941 85.3264 62.8626 85.3271 62.7984 85.3118C62.6779 85.2828 62.5843 85.1319 62.6291 85.0337C63.2832 83.286 66.7983 74.2203 66.7983 74.2203H62.3488C62.3488 74.2203 58.0949 85.1383 58.0234 86.105C57.9661 86.901 58.3746 87.5717 58.921 88.0982C59.4628 88.6191 60.1265 88.8808 60.8923 88.8808C62.306 88.8808 63.9117 88.0403 65.7644 86.3944C65.7628 86.4011 65.7493 86.4344 65.7493 86.4344C65.7493 86.4387 65.6643 86.8777 65.6643 86.8777C65.6643 87.2966 65.8949 87.8977 66.9907 88.3996C67.6995 88.719 68.3672 88.8812 68.9716 88.8812C70.0206 88.8812 70.8928 88.7283 72.0005 87.9663C72.4768 87.6393 72.8068 87.3063 73.0608 86.9719L72.4271 88.8812H76.7172L76.922 88.1885C77.4458 86.4034 77.9648 84.8569 78.4675 83.5937C79.173 81.776 79.8854 80.3094 80.5864 79.231C81.392 78.0008 81.8347 77.8246 82.2217 77.6684C82.2217 77.6684 82.5139 77.5239 83.0692 77.4676C83.5379 77.4197 84.0082 77.7853 84.1433 78.0684C84.2922 78.3771 84.1041 78.9036 83.9312 79.3379C83.7747 79.7302 83.6637 80.013 83.7846 80.1965C83.8221 80.2544 83.9005 80.323 84.0487 80.323C84.8985 80.323 85.6116 80.0006 86.1113 79.3952C86.5724 78.8274 86.806 78.1497 86.806 77.3797C86.806 76.5128 86.5237 75.7745 85.968 75.1834V75.1834ZM23.8464 64.8515L23.853 64.8568C23.8118 64.8295 19.6409 62.2958 15.6117 62.0721C10.8351 61.807 2.37408 63.9547 0.951172 73.6808L1.27001 73.7464C2.39186 69.416 6.43396 65.3168 10.8799 63.9986C13.5682 63.205 16.5794 63.5124 19.3567 64.8678C22.6854 66.5619 25.3853 70.551 25.7739 74.3505C25.9992 76.5591 25.5714 79.7539 22.2529 82.4264C19.4828 84.6957 14.7039 85.5695 12.9566 84.1265C12.1411 83.4521 12.3673 82.3868 12.8631 80.8495L18.3274 66.7891L18.275 66.7165C18.1696 66.5679 15.6763 63.0865 13.2932 64.2044C12.5284 64.5641 7.43 81.6285 5.88522 86.85L5.84174 86.9972L5.98338 87.0505C13.2889 89.7797 19.6439 89.8822 24.8744 87.3486C28.788 85.7017 31.5723 81.6068 31.7939 77.1629C32.0377 72.2324 29.1415 67.7465 23.8464 64.8515V64.8515ZM11.7145 33.1622C11.4744 32.654 10.4125 30.7671 8.63419 30.2579C6.8167 29.7383 5.15302 30.479 4.35395 31.0678L11.7145 33.1622Z" fill="#1B5C29"/>
<path d="M7.70162 33.9947C9.36003 34.4769 11.1166 33.5641 11.7141 33.1611L4.35352 31.0664C4.88249 31.9666 5.63248 33.3929 7.70162 33.9947" fill="#52B12F"/>
<path d="M13.1237 29.2806C13.2074 28.6039 13.2512 26.5185 12.0523 25.1391C10.7753 23.6721 9.04507 23.3814 8.05859 23.4666L13.1237 29.2806Z" fill="#1B5C29"/>
<path d="M9.32518 27.7982C10.4974 29.0803 12.4048 29.3118 13.1242 29.2808L8.05906 23.4668C8.05016 24.5128 7.86406 26.1996 9.32518 27.7982ZM18.6017 48.42C17.8386 48.1365 14.996 47.613 13.1845 48.8995C11.3225 50.219 10.7576 52.4336 10.6384 53.6099L18.6017 48.42" fill="#52B12F"/>
<path d="M16.0473 53.0803C17.9363 51.8395 18.5638 49.3694 18.6023 48.4199L10.6387 53.6098C12.051 54.0228 14.2226 54.2772 16.047 53.0803" fill="#1B5C29"/>
<path d="M18.1392 45.7853C17.6682 45.04 15.1754 42.3768 12.4163 42.1337C9.75458 41.9019 7.37418 43.0555 6.33203 43.9363L18.1392 45.7853Z" fill="#52B12F"/>
<path d="M11.7585 47.5189C14.4745 48.0141 17.2057 46.5538 18.1388 45.7842L6.33203 43.9355C7.5135 45.4212 9.18113 47.049 11.7588 47.5192" fill="#1B5C29"/>
<path d="M38.4596 22.655C38.1507 21.9196 36.6388 19.2847 34.2196 18.3556C31.5638 17.3342 29.0638 18.0675 27.9199 18.7322L38.46 22.655" fill="#52B12F"/>
<path d="M32.2272 23.0445C34.6165 24.0296 37.4106 23.186 38.4596 22.6552L27.9199 18.7324C28.742 20.3053 29.9617 22.1097 32.2272 23.0445Z" fill="#1B5C29"/>
<path d="M24.6631 52.2197C24.7187 51.3599 24.6496 49.4656 23.4335 48.0509C22.1226 46.5269 20.3693 46.2252 19.4336 46.1699L24.6631 52.2197Z" fill="#52B12F"/>
<path d="M20.7558 50.4417C21.9705 51.8617 23.8928 52.2953 24.6642 52.2197L19.4346 46.1699C19.3467 47.213 19.5809 49.0706 20.7558 50.4417" fill="#1B5C29"/>
<path d="M25.277 44.7037C25.0201 44.0267 24.1215 42.195 22.4203 41.458C20.5867 40.6611 18.8891 41.1107 18.0195 41.4613L25.277 44.7037Z" fill="#52B12F"/>
<path d="M20.8085 44.6698C22.6464 45.5923 24.6108 45.1037 25.2788 44.7037L18.0213 41.4614C18.4205 42.4265 19.2071 43.8642 20.8085 44.6701V44.6698ZM17.8398 38.1737C17.4004 37.6129 15.9545 36.026 13.9772 35.8788C11.8567 35.7203 10.3653 36.9865 9.66406 37.6852L17.8398 38.1737" fill="#1B5C29"/>
<path d="M13.7806 39.9985C15.6544 40.1037 17.3395 38.694 17.8398 38.1721L9.66406 37.6836C10.3689 38.4486 11.6331 39.8772 13.7806 39.9985Z" fill="#52B12F"/>
<path d="M43.4888 14.2018C43.9104 13.4775 45.0069 11.2389 44.3261 9.00325C43.5936 6.60512 41.6087 5.51711 40.5508 5.04688L43.4888 14.2018Z" fill="#1B5C29"/>
<path d="M39.8575 10.5513C40.5415 12.654 42.7095 13.8746 43.4878 14.2012L40.5497 5.04611C40.0202 6.14953 39.0734 8.1398 39.8575 10.5513V10.5513ZM51.8677 9.923C52.347 9.28817 53.6027 7.29316 53.1943 5.12657C52.7578 2.80319 51.0251 1.53293 50.0731 0.983889L51.8677 9.923" fill="#52B12F"/>
<path d="M48.8074 6.04071C49.3095 8.31202 51.323 9.53612 51.8684 9.92188L50.0737 0.982759C49.4353 1.87614 48.2978 3.72857 48.8074 6.04071" fill="#1B5C29"/>
<path d="M52.6867 20.6143C53.2976 20.1261 54.9165 18.2388 54.8151 16.1324C54.7205 14.1775 53.0589 12.4698 52.1465 11.832L52.6867 20.614" fill="#52B12F"/>
<path d="M50.1289 16.4668C50.3271 18.6848 52.1746 20.181 52.6872 20.6143L52.147 11.832C51.3571 12.6023 49.926 14.2079 50.1289 16.4668Z" fill="#1B5C29"/>
<path d="M55.6859 26.1689C56.3739 25.8555 58.284 24.7165 58.7514 22.4433C59.1358 20.5673 58.0083 18.5385 57.316 17.7109L55.6855 26.1689" fill="#52B12F"/>
<path d="M54.3186 21.6074C53.9781 23.6172 55.3163 25.6324 55.6862 26.1689L57.3166 17.7109C56.3967 18.2471 54.6908 19.4177 54.3186 21.6074" fill="#1B5C29"/>
<path d="M63.7793 36.8934C64.5514 36.9804 66.8379 36.9657 68.4051 35.2016C69.6975 33.7476 69.7338 31.3418 69.5348 30.2422L63.7793 36.8934" fill="#52B12F"/>
<path d="M64.8635 32.1142C63.5644 33.7293 63.7163 36.2207 63.7772 36.8918L69.5327 30.2405C68.6002 30.1573 66.3839 30.2222 64.8635 32.1142Z" fill="#1B5C29"/>
<path d="M79.9062 32.0661C80.6974 32.1234 82.9892 31.9635 84.6835 30.2384C86.0933 28.8001 86.256 26.3153 86.1341 25.207L79.9062 32.0661Z" fill="#52B12F"/>
<path d="M81.2344 27.1524C79.7604 28.8302 79.8582 31.3695 79.907 32.0655L86.1341 25.2062C85.1704 25.0989 82.704 25.4806 81.234 27.152" fill="#1B5C29"/>
<path d="M66.1309 23.5853C66.8505 23.4151 69.0191 22.6009 69.9243 20.7402C70.7846 18.9735 70.3538 16.8302 69.9068 15.8594L66.1309 23.5856" fill="#52B12F"/>
<path d="M66.0577 18.8809C65.1595 20.7792 65.9174 22.9782 66.1328 23.5856L69.9088 15.8594C68.8953 16.1305 66.9938 16.9044 66.0577 18.8809" fill="#1B5C29"/>
<path d="M64.2871 15.3307C65.0249 15.2375 67.3019 14.6597 68.4306 12.8813C69.5008 11.1935 69.2719 9.01486 69.0127 7.95117L64.2871 15.3311" fill="#52B12F"/>
<path d="M64.7794 10.5478C63.6536 12.3648 64.1463 14.6953 64.2896 15.3307L69.0152 7.95117C67.9701 8.11702 65.9513 8.65519 64.7794 10.5478" fill="#1B5C29"/>
<path d="M72.2933 19.225C72.9112 19.3425 74.8855 19.4764 76.2271 18.3421C77.4981 17.2657 77.8403 15.4537 77.8891 14.5312L72.293 19.225" fill="#52B12F"/>
<path d="M73.846 15.5073C72.4995 16.6726 72.3315 18.6764 72.293 19.2249L77.8887 14.5312C77.008 14.388 75.2508 14.2921 73.846 15.5073Z" fill="#1B5C29"/>
<path d="M79.6914 24.2959C80.337 24.1504 82.3287 23.6278 83.2411 21.7792C84.1327 19.9722 83.6917 18.2591 83.3867 17.3359L79.6914 24.2962" fill="#52B12F"/>
<path d="M79.7737 19.9755C78.9077 21.6836 79.4624 23.5955 79.693 24.2962L83.3886 17.3359C82.4772 17.5681 80.6768 18.1965 79.7737 19.9755Z" fill="#1B5C29"/>
<path d="M74.3184 33.894C74.9814 33.7348 77.0235 33.1633 77.9329 31.2444C78.8199 29.3708 78.3397 27.6154 78.01 26.6699L74.3184 33.894Z" fill="#52B12F"/>
<path d="M74.3345 29.4493C73.4705 31.2221 74.0733 33.1793 74.3197 33.8953L78.0113 26.6719C77.0769 26.9253 75.2343 27.6017 74.3345 29.4493Z" fill="#1B5C29"/>
<path d="M86.1543 30.3874C86.7254 30.5839 88.5202 31.1247 90.1019 30.12C91.6473 29.1386 92.1117 27.5966 92.3107 26.7324L86.1546 30.3874" fill="#52B12F"/>
<path d="M88.2551 27.0633C86.7752 27.9794 86.3071 29.7302 86.1543 30.3846L92.3107 26.7296C91.4922 26.4768 89.7959 26.1081 88.2551 27.0633Z" fill="#1B5C29"/>
<path d="M83.3398 36.6867C83.8583 37.0381 85.4933 38.0112 87.3609 37.499C89.2241 36.9888 89.9346 35.5431 90.4768 34.7148L83.3398 36.6864" fill="#52B12F"/>
<path d="M86.3286 33.9385C84.603 34.45 83.6669 36.0742 83.3398 36.6873L90.4768 34.7151C89.7251 34.2372 88.1257 33.4036 86.3286 33.9385V33.9385ZM89.5739 38.084C90.0733 38.6495 91.704 40.2514 94.0083 40.2234C96.3667 40.1958 97.6568 38.8546 98.4203 37.8959L89.5739 38.084Z" fill="#1B5C29"/>
<path d="M93.8261 35.7365C91.6875 35.8287 90.1279 37.4589 89.5762 38.083L98.4226 37.8948C97.6894 37.1132 96.054 35.6419 93.8261 35.7368" fill="#52B12F"/>
<path d="M82.9274 37.8223C82.8823 38.4517 82.9054 40.4379 84.2799 41.8176C85.6263 43.1704 87.3263 43.1058 88.2377 43.1171L82.9274 37.8223Z" fill="#1B5C29"/>
<path d="M86.8442 39.092C85.5497 37.8295 83.6153 37.8059 82.9266 37.8222L88.2368 43.117C88.275 42.2211 88.1936 40.4065 86.8442 39.092ZM69.5078 44.5087C70.1106 44.3179 71.9419 43.5762 72.6619 41.7459C73.3651 39.9585 72.7894 38.419 72.4274 37.5664L69.5078 44.509" fill="#52B12F"/>
<path d="M69.224 40.3159C68.536 42.0073 69.2336 43.8616 69.5066 44.5094L72.4262 37.5664C71.5787 37.8611 69.9411 38.5515 69.224 40.3159Z" fill="#1B5C29"/>
<path d="M78.9649 47.245C79.2076 46.6073 79.4352 44.5062 78.453 43.0678C77.4277 41.5632 75.7406 41.1266 74.8477 40.9688L78.9649 47.245Z" fill="#52B12F"/>
<path d="M75.4703 45.3084C76.444 46.6752 78.2878 47.1235 78.9644 47.245L74.8471 40.9688C74.6014 41.7937 74.3633 43.7555 75.4703 45.3084Z" fill="#1B5C29"/>
<path d="M71.3281 15.4789C72.0465 15.3324 74.1585 14.6077 75.1621 12.7764C76.1094 11.048 75.6996 8.9033 75.3686 7.87891L71.3281 15.4789Z" fill="#52B12F"/>
<path d="M71.4364 10.7462C70.4592 12.6141 71.1011 14.8121 71.3271 15.4768L75.3675 7.87679C74.3514 8.11324 72.4532 8.79928 71.4364 10.7462ZM36.1804 9.17594C36.5473 8.4566 37.1257 6.71253 36.5348 5.12198C35.8661 3.3223 34.2176 2.51304 33.3418 2.20898L36.1804 9.17594" fill="#1B5C29"/>
<path d="M33.128 6.57632C33.7954 8.08161 35.5075 8.91518 36.1804 9.17594L33.3415 2.20898C32.9528 3.1418 32.297 4.70004 33.1277 6.57632" fill="#52B12F"/>
<path d="M48.0423 16.5776C48.6203 15.9628 49.6858 14.3936 49.5432 12.6302C49.3828 10.6343 47.9323 9.3495 47.1289 8.79102L48.0423 16.5772" fill="#1B5C29"/>
<path d="M45.665 13.1062C45.9084 14.805 47.4344 16.1208 48.0431 16.5747L47.1298 8.78818C46.4674 9.61076 45.361 10.9862 45.665 13.1066V13.1062ZM56.3095 14.3524C56.9765 13.9175 58.3032 12.6936 58.5729 11.0288C58.8802 9.14385 57.8542 7.5946 57.2498 6.89258L56.3095 14.3524" fill="#52B12F"/>
<path d="M54.9347 10.5719C54.7701 12.201 55.861 13.7916 56.3109 14.3524L57.2513 6.89258C56.4594 7.50069 55.1383 8.53707 54.9347 10.5719" fill="#1B5C29"/>
<path d="M59.3418 17.8068C59.9455 17.5597 61.2179 16.7568 61.7028 15.4623C62.2838 13.912 61.6343 12.4977 61.2535 11.8359L59.3418 17.8071" fill="#52B12F"/>
<path d="M58.7934 14.5551C58.4344 15.8493 59.0638 17.2849 59.3418 17.8068L61.2535 11.8359C60.5223 12.2039 59.2627 12.8537 58.7934 14.5551Z" fill="#1B5C29"/>
<path d="M61.2539 26.007C61.9235 25.7389 63.3494 24.9006 63.8823 23.4819C64.5196 21.7848 63.8302 20.2143 63.4027 19.4883L61.2539 26.007Z" fill="#52B12F"/>
<path d="M60.6469 22.4708C60.2549 23.8901 60.945 25.4314 61.2549 26.0058L63.4037 19.4872C62.5951 19.8865 61.1607 20.6071 60.6469 22.4708V22.4708ZM36.9167 17.6991C37.1782 15.7892 36.747 14.0238 35.6996 12.755C34.3801 11.1558 32.0623 10.6739 31.0488 10.7522L36.9167 17.6991" fill="#1B5C29"/>
<path d="M32.261 15.6454C33.3538 16.8686 34.6753 17.5613 36.9157 17.7009L31.0479 10.7539C30.926 11.748 30.897 14.1208 32.261 15.6454" fill="#52B12F"/>
<path d="M42.687 32.6301C43.469 30.9626 43.7114 29.111 43.0931 27.6583C42.1676 25.489 40.1719 24.686 39.2246 24.4629L42.687 32.6301Z" fill="#1B5C29"/>
<path d="M38.9225 29.3051C39.5721 30.7385 40.6801 31.8495 42.6867 32.6301L39.2243 24.4629C38.8306 25.3338 38.1113 27.5154 38.9225 29.3051" fill="#52B12F"/>
<path d="M61.2676 10.215C62.7728 9.60089 64.0067 8.62711 64.5258 7.25737C65.1713 5.55892 64.4385 3.42421 63.9296 2.65625L61.2676 10.215Z" fill="#1B5C29"/>
<path d="M60.6356 5.64851C60.1138 7.02658 60.376 8.39432 61.2673 10.215L63.929 2.65625C63.0015 2.94499 61.2785 3.9424 60.6359 5.64851" fill="#52B12F"/>
<path d="M48.1538 27.4283C49.138 25.8124 49.7644 23.9045 49.3758 22.3796C48.7236 19.8293 46.5836 18.7403 45.668 18.3496L48.1538 27.4283Z" fill="#1B5C29"/>
<path d="M44.5351 23.7164C45.0071 25.3225 46.3467 26.6104 48.1546 27.4283L45.6688 18.3496C44.875 19.5019 43.9468 21.7109 44.5354 23.7164H44.5351ZM66.8582 28.1843C68.8292 28.9612 71.1342 29.0478 72.787 28.2775C75.4424 27.0386 76.2847 24.3115 76.6697 23.2488L66.8582 28.1843" fill="#52B12F"/>
<path d="M70.386 23.3365C68.6693 24.2457 67.4984 26.0814 66.8574 28.1834L76.6689 23.2479C75.2252 22.6728 72.6834 22.1196 70.386 23.3365" fill="#1B5C29"/>
<path d="M73.7871 39.8465C75.7667 40.397 78.0762 40.2638 79.6184 39.3923C82.091 37.9919 82.7079 35.4159 82.9869 34.3379L73.7874 39.8465" fill="#52B12F"/>
<path d="M76.7904 34.9853C75.1945 35.9901 74.2249 37.7235 73.7871 39.8455L82.9869 34.3369C81.512 33.9339 78.8532 33.6862 76.7904 34.9853" fill="#1B5C29"/>
<path d="M87.2691 50.7896C87.8109 48.6179 87.5043 46.4915 86.585 45.1081C85.1404 42.9344 82.649 42.3553 81.6016 42.1602L87.2691 50.7896Z" fill="#52B12F"/>
<path d="M82.4696 48.165C83.4824 49.5774 85.243 50.3836 87.2696 50.7893L81.6024 42.1595C81.1587 43.6591 81.0325 46.1578 82.4696 48.165ZM41.5766 21.8791C42.4281 20.3185 42.6925 18.4855 42.1702 17.0678C41.4235 15.043 39.6089 14.0309 38.7012 13.6992L41.5766 21.8791" fill="#1B5C29"/>
<path d="M38.0972 18.4136C38.6542 19.9505 39.6344 20.9786 41.5764 21.8791L38.701 13.6992C38.2563 14.5398 37.4312 16.5749 38.0972 18.4132V18.4136ZM20.1917 27.1932C20.2529 26.5235 20.3162 24.4174 19.0915 23.1412C17.7895 21.7825 16.0768 21.607 15.1094 21.7548L20.1917 27.1932Z" fill="#52B12F"/>
<path d="M16.498 25.9334C17.693 27.1136 19.4858 27.2705 20.191 27.1922L15.1087 21.7539C15.0461 22.6031 15.0076 24.4577 16.498 25.9334ZM28.5732 22.9781C28.3493 22.3147 27.8167 20.4428 25.845 19.4034C24.2202 18.5462 22.0664 18.9914 21.1639 19.4643L28.5732 22.9778" fill="#1B5C29"/>
<path d="M24.2203 23.1955C25.8277 23.9049 27.9037 23.2935 28.5747 22.9787L21.166 19.465C21.4667 20.2999 22.2095 22.307 24.2206 23.1959L24.2203 23.1955ZM29.9162 15.7883C29.8691 14.9638 29.6758 12.7827 27.689 10.8552C26.2022 9.4105 24.1525 9.43848 23.1574 9.64262L29.9162 15.7883Z" fill="#52B12F"/>
<path d="M25.1463 14.2194C26.4958 15.4339 28.3265 15.9025 29.9157 15.7883L23.1576 9.64258C23.2215 10.5284 23.4293 12.6728 25.1467 14.2194H25.1463ZM30.1436 28.0021C29.8146 27.3833 28.7346 25.4078 26.8621 24.9056C24.8707 24.3701 23.0785 25.1397 22.2656 25.7558L30.1436 28.0021Z" fill="#1B5C29"/>
<path d="M25.9256 28.9253C27.7145 29.3602 29.5313 28.4234 30.1436 28.0021L22.2656 25.7559C22.6958 26.5285 23.6912 28.3808 25.9256 28.9253" fill="#52B12F"/>
<path d="M37.6083 31.1499C37.5124 30.5165 36.8886 28.4617 35.5714 27.6098C34.1222 26.675 32.31 27.007 31.498 27.3467L37.6083 31.1499Z" fill="#1B5C29"/>
<path d="M33.7953 31.0499C35.1873 31.8339 36.9936 31.4226 37.6085 31.1508L31.4986 27.3477C31.6949 28.0893 32.1135 30.1015 33.795 31.0499H33.7953ZM21.9681 38.0282C22.2694 36.9892 22.4094 34.1944 21.3482 32.2995C19.6941 29.3472 16.9052 28.5879 15.9355 28.4187L21.9681 38.0282Z" fill="#52B12F"/>
<path d="M16.8392 34.5717C18.1995 36.8662 21.0704 37.9362 21.9709 38.0275L15.9384 28.418C15.6686 29.6132 15.4354 32.2028 16.8392 34.5717" fill="#1B5C29"/>
<path d="M34.3103 36.8651C34.1745 35.7854 33.1973 33.0542 31.4565 31.7155C28.7481 29.6294 25.8163 30.0387 24.8516 30.2648L34.3103 36.8654" fill="#52B12F"/>
<path d="M28.065 35.697C30.3047 37.3329 33.5122 37.131 34.3103 36.8643L24.8516 30.2637C25.0041 31.4456 25.9023 34.1168 28.065 35.697Z" fill="#1B5C29"/>
<path d="M55.3984 44.7984C54.6376 46.64 54.769 48.2395 55.715 48.3185C56.6583 48.3974 58.0054 46.9324 58.711 45.0984C59.3921 43.3234 59.2189 41.8564 58.3319 41.7698C57.4458 41.6842 56.1415 43.0177 55.3984 44.7984V44.7984ZM50.9881 31.4706C50.1047 32.9415 49.9789 34.317 50.7295 34.4968C51.4779 34.682 52.7815 33.6016 53.6165 32.1313C54.4278 30.7056 54.4926 29.4348 53.7911 29.2539C53.0872 29.0734 51.8431 30.0482 50.9881 31.4706V31.4706ZM42.4339 45.2393C43.4197 44.8706 43.0294 43.2897 41.5959 41.7485C40.206 40.2582 38.3601 39.3713 37.4372 39.7277C36.5133 40.0807 36.8114 41.551 38.1375 43.0556C39.508 44.6062 41.4477 45.6043 42.4339 45.2393Z" fill="#F4711F"/>
<path d="M45.4727 43.0641C42.0208 38.1672 41.2497 36.4821 36.7323 32.6043C37.7666 34.5359 54.2703 56.7072 38.8865 45.1175C38.8865 45.1175 30.0381 38.9209 18.4668 39.5659C18.4668 39.5659 40.9994 41.9771 44.9588 57.325C44.9951 57.4649 45.0491 58.2575 45.0303 58.5089C44.8765 60.572 44.1706 62.3024 43.5669 63.4444C43.0718 64.3809 42.1367 65.5541 41.8499 65.8595C40.4279 67.3721 37.9201 67.9503 36.9639 68.4045C38.0551 69.1908 41.7458 68.5261 43.4035 68.4082L49.551 68.6703C49.7186 68.6603 50.3286 68.7009 50.6373 68.7009L51.6096 65.9008C51.6096 65.9008 54.3516 65.334 55.405 65.1482C56.4567 64.9607 57.6355 64.8335 57.6355 64.8335L55.8767 68.8028C57.8167 69.0649 63.6657 69.7203 64.7402 69.0476C63.5198 68.5421 59.982 68.1574 58.539 66.0753C58.3348 65.8665 56.8885 60.8168 56.9382 59.0324C56.9392 58.9692 56.9458 58.806 56.9514 58.7803C59.676 40.4005 78.2522 33.7539 78.2522 33.7539C66.2266 36.5097 59.7422 46.0553 59.7422 46.0553C47.5464 61.4719 56.0061 38.7936 58.5238 36.1164C53.9818 39.6692 52.3171 44.924 52.3171 44.924C53.7034 30.011 66.1585 28.586 66.1585 28.586C59.7422 28.4055 54.8035 33.8285 54.8035 33.8285C44.2685 45.33 48.2029 28.8541 52.6791 26.5039C52.2786 26.7194 43.9394 30.2924 45.4723 43.0641" fill="#F4711F"/>
</svg>
