<svg width="116" height="56" viewBox="0 0 116 56" fill="none" xmlns="http://www.w3.org/2000/svg">
<path d="M11.5562 28.2847C11.5562 31.9656 14.9975 32.4267 16.7985 32.4267C21.5511 32.4267 23.6637 30.2349 24.6008 30.2349C25.5371 30.2349 24.0423 32.4639 22.6288 33.3541C10.8478 40.4738 1.16406 46.6052 1.16406 52.2795C1.16406 54.8459 3.53449 55.0156 5.33716 55.0156C7.14063 55.0156 15.9556 53.8878 29.4491 32.973C30.0827 31.9911 31.1241 31.4229 32.1218 30.7044C33.1191 29.9864 36.3357 27.6345 36.973 27.6309C37.6074 27.6269 37.5852 27.9057 37.5609 28.191C37.5254 28.6027 37.0946 29.5148 37.0946 30.6244C37.0946 31.7361 38.2253 33.0244 40.0631 33.0244C44.163 33.0244 47.155 30.1056 49.6094 27.4709C48.798 27.2999 47.8706 27.0959 46.839 26.853C45.8655 27.6802 44.9098 28.3001 44.4007 28.3122C43.4619 28.336 43.1726 27.8002 43.1322 27.3165C43.0987 26.9213 43.1888 26.4744 43.3734 25.9935C41.2961 25.4493 39.2302 24.8623 37.177 24.2329C36.583 24.6006 35.9579 24.8806 35.5021 24.8176C35.3594 24.7974 35.2717 24.6644 35.5881 24.2135L35.8666 23.8247C34.1633 23.2859 32.4689 22.7191 30.7843 22.1247C27.3664 25.2633 23.4309 28.41 21.2735 28.41C20.4111 28.41 19.6062 27.8346 19.6062 26.4562C19.6062 25.5441 20.8108 22.5769 23.1933 19.2261C21.3539 18.4699 19.529 17.6785 17.7199 16.8525C13.5055 21.3323 11.5562 25.3918 11.5562 28.2847V28.2847ZM6.82059 49.8642C6.82059 47.3463 15.5709 40.7397 16.609 40.7305C16.8773 40.7268 16.9476 40.8335 16.9492 41.0469C16.9597 43.0641 10.5686 51.0725 8.00176 51.0725C7.18872 51.0725 6.82059 50.63 6.82059 49.8642V49.8642ZM84.7532 29.3398C84.7435 30.816 85.1076 33.1811 87.6166 33.1811C92.57 33.1811 98.7333 26.9039 99.0275 26.8587C99.232 26.8263 99.2655 26.9112 99.2655 27.1112C99.2655 27.3351 98.568 29.8191 91.3246 38.6142C84.0808 47.4105 80.5741 50.8595 80.5741 52.7571C80.5741 54.6544 82.1832 55.3438 82.9307 55.3438C83.6783 55.3438 86.84 55.1712 94.3707 42.9267C99.7464 34.1857 102.284 28.7939 105.138 24.4495C99.9864 26.6934 93.5067 28.1546 84.7532 29.3398V29.3398ZM54.6558 28.5542C54.6558 30.3177 55.2405 32.8433 59.3413 32.8433C61.6143 32.8433 63.6897 31.6213 65.4609 29.8482C62.016 29.5823 58.4127 29.1188 54.6586 28.4221C54.6569 28.4661 54.6559 28.5102 54.6558 28.5542ZM69.8833 30.0882C69.3483 30.9016 68.8909 31.5922 68.5777 32.08C68.5777 32.08 68.195 32.5402 68.77 32.5402H74.1352C74.3651 32.5402 74.5951 32.3483 74.787 32.08C74.8525 31.9874 75.4012 31.1498 76.1015 30.0753C74.0295 30.1484 71.9556 30.1527 69.8833 30.0882" fill="url(#paint0_radial_4699_116460)"/>
<path d="M110.208 11.6824C110.208 12.6014 111.611 13.2338 112.078 13.2338C112.796 13.2338 115.181 11.6824 115.181 9.55569C115.181 8.77861 114.635 7.91627 113.831 7.91627C112.71 7.91627 110.208 10.4463 110.208 11.6824ZM103.856 19.0693C100.465 22.7486 96.3824 27.6931 92.7023 27.6931C91.3425 27.6931 90.921 26.8312 90.921 25.9676C90.921 25.3364 91.416 24.7513 92.358 24.4729C95.8276 23.4501 101.27 18.9287 101.27 15.8499C101.27 15.0449 100.868 14.1769 99.8329 14.1769C98.3297 14.1769 94.14 14.876 88.9212 21.1156C88.336 21.8139 87.7064 22.2891 87.2413 22.2891C86.754 22.2891 86.1786 21.369 86.1786 19.5296C86.1786 19.3344 86.1862 19.1497 86.198 18.9711C82.4043 20.3418 78.5404 21.4074 74.6651 22.1938C73.3865 24.7056 71.3442 27.8628 69.8822 30.0894C71.9545 30.1539 74.0284 30.1496 76.1004 30.0765C77.4493 28.0071 79.3611 25.0665 79.4617 24.9141C79.6144 24.6846 79.844 24.5315 80.0739 24.5315C80.9176 24.5315 79.8836 26.678 83.0258 26.678C83.908 26.678 84.7804 26.227 85.0115 26.227C85.2415 26.227 85.2702 26.4287 85.2702 26.6C85.2702 26.9439 84.839 27.7363 84.7703 28.8423C84.7598 29.0084 84.7537 29.1746 84.7521 29.341C93.5056 28.1558 99.9853 26.6946 105.137 24.4506C106.28 22.7082 107.953 20.4028 109.146 19.2419C111.388 17.0569 111.962 15.9069 111.962 15.3904C111.962 14.72 111.559 14.0678 110.755 14.0678C109.949 14.0678 107.248 15.3904 103.856 19.0693ZM92.8538 21.803C92.8538 20.7912 96.2381 17.5341 97.3744 17.5341C97.534 17.5341 97.7551 17.661 97.7551 17.8505C97.7551 19.1469 94.3724 22.2132 93.2963 22.2132C93.0753 22.2132 92.8538 22.0564 92.8538 21.803ZM17.7188 16.8536C19.5772 17.7022 21.4045 18.4923 23.1922 19.2273C23.5035 18.7889 23.8252 18.358 24.1572 17.935C22.2972 17.3015 20.4499 16.6313 18.6162 15.925C18.3051 16.237 18.0081 16.5453 17.7188 16.8536ZM30.7832 22.1259C32.4678 22.7203 34.1622 23.2871 35.8655 23.8259C36.3792 23.1125 36.895 22.4004 37.4127 21.6899C35.7754 21.325 34.1463 20.9244 32.5264 20.4885C31.9514 21.0407 31.3703 21.5866 30.7832 22.1259V22.1259ZM38.8352 22.9502C38.5656 23.2141 37.8936 23.7887 37.1759 24.234C39.2291 24.8635 41.295 25.4505 43.3723 25.9947C43.713 25.1061 44.3806 24.1043 45.2013 23.1074C43.3408 22.8471 41.4885 22.5321 39.6466 22.1627C39.3747 22.4237 39.1042 22.6863 38.8352 22.9502V22.9502ZM66.8179 23.4113C65.5261 25.7664 63.6907 27.923 61.4835 27.9283C60.7961 27.9303 60.3581 27.5581 60.3375 26.9063C60.312 26.1131 60.8519 24.9614 61.5805 23.8239C59.5409 23.9243 57.4985 23.9548 55.4568 23.9152C55.3368 24.525 54.6919 26.8243 54.6575 28.4233C58.4116 29.12 62.0149 29.5835 65.4598 29.8494C67.376 27.9315 68.9366 25.3687 70.0038 23.0052C68.9403 23.1604 67.8783 23.2957 66.8179 23.4113V23.4113ZM46.8379 26.8542C47.7589 27.0711 48.6824 27.277 49.6083 27.4721C50.9996 25.9797 52.218 24.5763 53.3672 23.8489C52.1404 23.7948 50.9237 23.7168 49.7195 23.6142C49.2531 24.5173 48.0324 25.8411 46.8379 26.8542Z" fill="url(#paint1_radial_4699_116460)"/>
<path d="M25.4653 10.1393C22.7732 12.0967 20.4997 14.0428 18.6211 15.9247C20.4547 16.631 22.302 17.3011 24.162 17.9347C25.2671 16.5211 26.4845 15.1989 27.8021 13.981C33.2348 8.97951 39.5302 6.53635 43.4394 6.53635C45.078 6.53635 47.0395 6.85963 47.3292 6.90085C47.5305 6.92913 47.598 6.89075 47.684 6.7477C47.8036 6.54848 50.7333 1.34049 50.7333 1.34049C50.7798 1.26493 50.7535 1.19825 50.6828 1.17562C50.6125 1.153 50.0989 0.969533 49.0329 0.969533C44.6469 0.969533 35.0864 3.14518 25.4653 10.1393V10.1393ZM53.1838 5.99042C53.1838 8.74958 54.8365 12.5299 61.7789 14.8433C61.951 14.9011 62.1232 14.9225 62.1232 15.0664C62.1232 15.361 58.8468 19.7874 55.8856 20.3051C55.5461 20.3653 55.3109 20.0756 55.3109 19.7592C55.3109 19.4428 55.7712 18.523 55.7712 17.1144C55.7712 15.7061 55.3396 13.7228 52.6665 13.7228C50.0848 13.7228 47.1264 14.9569 39.6514 22.1623C41.486 22.5288 43.3412 22.8477 45.2061 23.1071C47.5321 20.2837 51.093 17.5055 51.9937 17.4829C52.5502 17.4683 52.7793 17.7047 52.7995 17.9468C52.8835 18.9413 51.4542 19.6363 50.5681 20.2768C49.5332 21.024 49.199 21.2588 49.3028 21.8863C49.361 22.231 49.8601 22.3235 49.9211 22.9321C49.9389 23.1079 49.8641 23.3423 49.7243 23.6138C50.9285 23.7165 52.1452 23.7945 53.3721 23.8486C53.8922 23.5193 54.3969 23.3277 54.8971 23.3277C55.321 23.3277 55.4811 23.5136 55.4811 23.7823C55.4811 23.8058 55.4746 23.8522 55.4617 23.9149C57.5033 23.9544 59.5457 23.924 61.5853 23.8235C62.6554 22.1554 64.1331 20.5193 64.8395 20.0929C66.0279 19.3753 66.6781 18.6681 66.6648 18.2644C66.6523 17.8607 65.8053 17.3176 65.72 16.922C65.6214 16.4617 65.9924 16.214 66.818 16.4225C67.9999 16.7216 68.8582 16.7592 68.8865 17.6284C68.9092 18.3384 68.1559 20.9807 66.8228 23.411C67.8831 23.2954 68.9451 23.16 70.0087 23.0048C71.0331 20.7395 71.6045 18.6584 71.6045 17.5083C71.6045 17.2582 71.6869 16.9555 72.1451 16.9555C72.6038 16.9555 73.8795 17.0929 74.4436 17.1491C75.0587 17.2109 75.8636 17.7088 75.8636 18.8588C75.8636 19.5826 75.386 20.7872 74.6699 22.1934C78.5452 21.4071 82.4092 20.3415 86.2028 18.9708C86.3661 16.5381 87.5626 15.5457 87.5626 14.7464C87.5626 14.1992 87.3379 13.981 86.6938 13.981C85.2281 13.981 82.3591 17.4877 81.8426 17.4877C81.4224 17.4877 80.9391 15.8823 80.4634 15.2458C79.7724 14.3257 78.8236 14.0958 76.1222 14.0958C74.7714 14.0958 73.9955 14.2117 72.7881 14.2117C71.4133 14.2117 71.0917 14.1535 70.8335 13.5498C70.5744 12.9469 66.55 2.33941 57.3807 2.33941C55.3396 2.33941 53.1838 3.23126 53.1838 5.99042V5.99042ZM57.7832 7.28595C57.7832 6.06518 58.6128 5.36084 59.7835 5.36084C65.3382 5.36084 68.1082 13.2629 68.1082 13.764C68.1082 14.0145 67.9599 14.1548 67.5599 14.1548C65.5309 14.1548 57.7832 11.135 57.7832 7.28595V7.28595ZM36.9428 16.1082C36.3213 16.7091 34.6281 18.4745 32.5313 20.4881C34.1511 20.9241 35.7803 21.3246 37.4176 21.6895C38.9047 19.6484 40.8278 17.0372 41.341 16.4537C42.1746 15.5052 42.6058 15.0446 42.6058 14.7282C42.6058 14.3641 42.0885 14.0675 41.4557 14.0675C40.9098 14.0675 38.6679 14.4417 36.9428 16.1082" fill="url(#paint2_radial_4699_116460)"/>
<path d="M38.6534 22.7616C38.2481 23.1576 37.5276 23.7375 36.8398 24.1299C37.0661 24.2002 37.2892 24.268 37.5119 24.3359C38.0461 23.9773 38.5514 23.5774 39.0232 23.1398C39.3469 22.8226 39.6592 22.5203 39.9671 22.2245C39.7562 22.1833 39.5457 22.1417 39.3355 22.0985C39.1073 22.3185 38.8799 22.5394 38.6534 22.7612" fill="#63BBEB"/>
<path d="M79.2456 24.768L78.0898 26.5428C77.4186 27.574 76.5082 28.973 75.7812 30.0879C75.9974 30.081 76.2132 30.0729 76.4278 30.0653C77.0279 29.1443 77.7645 28.0125 78.5327 26.8309L79.6856 25.0613C79.7935 24.9005 79.9475 24.7959 80.0788 24.7959C80.1431 24.7959 80.1738 24.8274 80.2716 25.1814C80.4538 25.8396 80.7581 26.942 83.0303 26.942C83.6571 26.942 84.2673 26.7347 84.6713 26.5973C84.7966 26.5549 84.9441 26.5052 85.0019 26.4959C85.0059 26.5161 85.0088 26.5468 85.0088 26.6006C85.0088 26.6907 84.9449 26.8911 84.877 27.1041C84.7405 27.5288 84.5542 28.1107 84.5101 28.8259C84.4987 29.0094 84.4927 29.1932 84.4919 29.3771C84.6685 29.3533 84.8459 29.3306 85.0213 29.306C85.0241 29.1443 85.0294 28.9924 85.0375 28.8594C85.0783 28.2093 85.2528 27.6637 85.3805 27.2653C85.4719 26.98 85.5385 26.7735 85.5385 26.6006C85.5385 26.0251 85.1724 25.9629 85.0152 25.9629C84.8936 25.9629 84.7372 26.0162 84.5004 26.0962C84.1299 26.2223 83.5694 26.4135 83.0303 26.4135C81.161 26.4135 80.9504 25.6517 80.7815 25.0399C80.6866 24.6956 80.5678 24.2669 80.0788 24.2669C79.766 24.2669 79.4549 24.4544 79.2456 24.768" fill="url(#paint3_linear_4699_116460)"/>
<path d="M66.5044 23.4429C65.9689 24.3973 65.3381 25.3142 64.6188 26.059C63.5937 27.1205 62.539 27.66 61.4847 27.6628C61.1646 27.6636 60.6252 27.565 60.6038 26.8963C60.5787 26.1156 61.1497 24.9481 61.9025 23.8066C61.6859 23.8179 61.4693 23.8284 61.2535 23.8389C60.5536 24.9635 60.0489 26.0966 60.0752 26.9141C60.1003 27.7037 60.6405 28.1938 61.4859 28.1914C62.6893 28.1882 63.8709 27.5941 64.9995 26.4263C65.8231 25.5737 66.5444 24.4907 67.1444 23.373C66.9311 23.3976 66.7177 23.4202 66.5044 23.4429" fill="url(#paint4_linear_4699_116460)"/>
<path d="M43.125 25.9283C43.298 25.9728 43.4685 26.0185 43.6382 26.0625C43.9586 25.2402 44.5959 24.2497 45.5181 23.149C45.3128 23.1207 45.1071 23.0932 44.9018 23.0641C44.1752 23.9612 43.4846 24.9751 43.125 25.9283" fill="#3777C5"/>
<path d="M30.5078 22.0268L31.0679 22.2248C31.6589 21.6779 32.2445 21.125 32.8245 20.5664L32.2337 20.4088C31.6644 20.9543 31.0892 21.4937 30.5082 22.0268H30.5078ZM49.4405 23.5886C49.2546 23.92 48.9406 24.3613 48.4521 24.9141C47.8563 25.5841 47.2101 26.2075 46.5193 26.779C46.7375 26.8303 46.9517 26.88 47.161 26.9297C47.7579 26.4105 48.3215 25.8544 48.8485 25.2644C49.4154 24.6219 49.8009 24.0796 50.0082 23.6383C49.8191 23.623 49.63 23.606 49.4405 23.5886Z" fill="#63BBEB"/>
<path d="M49.9885 26.6793C49.7679 26.9177 49.5424 27.1614 49.3125 27.4079C49.5206 27.4523 49.7235 27.4952 49.9166 27.5352C50.0726 27.3675 50.2262 27.2018 50.3773 27.0381C51.6595 25.6492 52.8108 24.4022 53.8715 23.868C53.5603 23.8563 53.2496 23.8425 52.9397 23.8276C52.0038 24.4992 51.0384 25.5426 49.9885 26.6793" fill="#4980CA"/>
<path d="M22.9418 19.1231L23.4481 19.332C23.7648 18.889 24.092 18.4535 24.4293 18.026L23.8951 17.8441C23.5674 18.2631 23.2495 18.6896 22.9414 19.1231" fill="#2F67AB"/>
<path d="M101.008 15.851C101.008 18.8397 95.5675 23.2528 92.2862 24.2206C91.2679 24.5209 90.6602 25.1747 90.6602 25.9688H91.1887C91.1887 25.422 91.655 24.9581 92.4366 24.7278C95.8649 23.7163 101.537 19.1488 101.537 15.851H101.008Z" fill="url(#paint5_linear_4699_116460)"/>
<path d="M88.7232 20.9472C88.1668 21.6127 87.6006 22.0257 87.2466 22.0257C86.9763 22.0257 86.4473 21.2725 86.4473 19.5308C86.4473 19.2993 86.457 19.0803 86.4744 18.8726C86.2938 18.9384 86.1127 19.0047 85.9321 19.0694C85.9232 19.2189 85.918 19.3712 85.918 19.5308C85.918 21.6087 86.607 22.5547 87.2466 22.5547C87.9615 22.5547 88.7325 21.7602 89.1285 21.2866C89.7413 20.5513 90.3879 19.8447 91.0661 19.1692L90.8415 18.6438C90.0979 19.3763 89.391 20.1451 88.7232 20.9472" fill="url(#paint6_linear_4699_116460)"/>
<path d="M90.8398 18.6426L91.0645 19.168C95.4481 14.8199 98.8126 14.4417 99.8362 14.4417C100.952 14.4417 101.008 15.6152 101.008 15.8503H101.537C101.537 14.8858 101.011 13.9131 99.8362 13.9131C98.4789 13.9131 95.141 14.4231 90.8398 18.6426Z" fill="url(#paint7_linear_4699_116460)"/>
<path d="M92.5898 21.8048C92.5898 22.2275 92.9499 22.4805 93.2974 22.4805C94.5416 22.4805 98.0201 19.3091 98.0201 17.852C98.0201 17.5097 97.6806 17.2717 97.3759 17.2717C96.1237 17.2717 92.5898 20.6184 92.5898 21.8048V21.8048ZM93.1188 21.8048C93.1188 20.9061 96.4211 17.8002 97.3759 17.8002C97.4164 17.8002 97.4818 17.837 97.4927 17.8604C97.4911 18.9931 94.2402 21.9511 93.2974 21.9511C93.2231 21.9511 93.1188 21.9054 93.1188 21.8048Z" fill="url(#paint8_linear_4699_116460)"/>
<path d="M109.949 11.6832C109.949 12.7763 111.467 13.5 112.082 13.5C112.897 13.5 115.451 11.8638 115.451 9.55643C115.451 8.63752 114.802 7.65314 113.836 7.65314C112.528 7.65314 109.949 10.3274 109.949 11.6832V11.6832ZM110.478 11.6832C110.478 10.6366 112.832 8.1821 113.836 8.1821C114.476 8.1821 114.922 8.90665 114.922 9.55643C114.922 11.5187 112.676 12.971 112.082 12.971C111.689 12.971 110.478 12.3916 110.478 11.6832Z" fill="url(#paint9_linear_4699_116460)"/>
<path d="M69.5703 30.0775C69.7769 30.0848 69.9835 30.0915 70.1902 30.0977C71.693 27.8072 73.7361 24.6367 74.9904 22.1236C74.771 22.1693 74.552 22.2142 74.3326 22.2574C73.0132 24.8012 70.9454 27.985 69.5703 30.0775Z" fill="#72C1ED"/>
<path d="M17.4609 16.7326C17.6282 16.8093 17.7959 16.8873 17.9628 16.9629C18.2641 16.6455 18.5701 16.3327 18.8809 16.0246C18.7011 15.9559 18.5233 15.8872 18.3451 15.8185C18.0408 16.1256 17.743 16.4307 17.4609 16.7326" fill="#63BBEB"/>
<path d="M37.1292 21.6255C36.4693 22.5319 35.9048 23.3126 35.5977 23.7401C35.7747 23.7967 35.9533 23.8532 36.1282 23.9082C36.4729 23.4302 37.0443 22.641 37.6933 21.7507C37.505 21.7095 37.3175 21.6675 37.1292 21.6255Z" fill="#326CB3"/>
<path d="M55.0613 24.4544C54.8374 25.3891 54.4313 27.0895 54.3945 28.3713C54.5703 28.4044 54.7465 28.4384 54.9215 28.4707C54.9393 27.239 55.3514 25.5143 55.5753 24.5776C55.6581 24.2325 55.7038 24.039 55.7252 23.9169L55.1886 23.9064C55.1607 24.0386 55.1106 24.2475 55.0613 24.4544Z" fill="#63BBEB"/>
<path d="M69.6979 23.0486C69.1777 24.1819 68.5803 25.2781 67.9098 26.3295C67.26 27.3446 66.3059 28.6579 65.1094 29.8188C65.3341 29.837 65.5612 29.8584 65.7842 29.875C67.6988 27.9087 69.2562 25.3301 70.3161 22.9569C70.1105 22.9888 69.904 23.0195 69.6979 23.0486" fill="#4980CA"/>
<path d="M103.665 18.8898L102.615 20.039C99.4662 23.5025 95.8968 27.4279 92.7065 27.4279C91.4526 27.4279 91.1887 26.6339 91.1887 25.9675H90.6602C90.6602 27.1147 91.3095 27.8344 92.4131 27.9415C93.5551 27.9653 94.2897 27.7629 95.5493 27.1483C98.0939 25.7974 100.664 22.9715 103.007 20.3946L104.053 19.2482C107.445 15.5697 110.078 14.332 110.758 14.332V13.8034C109.828 13.8034 107.081 15.1838 103.665 18.8898Z" fill="url(#paint10_linear_4699_116460)"/>
<path d="M110.757 14.3331C111.409 14.3331 111.7 14.8645 111.7 15.3914C111.7 15.6242 111.503 16.5787 108.963 19.0533C107.689 20.2947 105.937 22.7338 104.707 24.6367C105.008 24.5078 105.305 24.3793 105.594 24.2508C106.646 22.6797 108.243 20.4939 109.332 19.432C111.228 17.5857 112.23 16.1879 112.23 15.3914C112.23 14.6022 111.724 13.8045 110.757 13.8045V14.3331Z" fill="url(#paint11_linear_4699_116460)"/>
<path d="M42.8748 27.34C42.9414 28.1376 43.5169 28.6003 44.4136 28.5773C45.0629 28.5619 46.1504 27.8111 47.1626 26.929L46.5205 26.7779C45.6206 27.521 44.793 28.039 44.4002 28.0496C43.7811 28.0645 43.4453 27.8111 43.4017 27.2959C43.3722 26.9468 43.4542 26.531 43.6373 26.0614L43.1245 25.9272C42.9374 26.4235 42.838 26.9031 42.8748 27.34" fill="url(#paint12_linear_4699_116460)"/>
<path d="M35.373 24.0634C35.1293 24.4105 35.0586 24.653 35.1442 24.8486C35.1996 24.9755 35.3168 25.0603 35.4667 25.0805C36.0603 25.1629 36.8358 24.7815 37.511 24.3354C37.2884 24.2679 37.0653 24.1996 36.839 24.1297C36.4163 24.3713 36.0054 24.5431 35.6886 24.5568C35.7132 24.5091 35.7471 24.4505 35.8057 24.3669C35.847 24.3083 35.9629 24.1458 36.1335 23.9103L35.6025 23.7417C35.4873 23.9026 35.4061 24.0157 35.373 24.0634" fill="url(#paint13_linear_4699_116460)"/>
<path d="M16.6128 40.4654C15.9213 40.4714 13.2446 42.3856 11.1607 44.1548C9.4433 45.6135 6.5625 48.2935 6.5625 49.8642C6.5625 50.8138 7.0757 51.3359 8.00795 51.3359C9.20205 51.3359 10.9005 49.8816 12.1148 48.6608C14.5309 46.2322 17.227 42.4596 17.2201 41.0452C17.2189 40.9244 17.2023 40.7486 17.0682 40.6157C16.9655 40.5151 16.8213 40.465 16.6273 40.465L16.6128 40.4654V40.4654ZM7.09146 49.8642C7.09146 47.5314 15.6183 41.021 16.6176 40.9939C16.6176 40.9939 16.6592 40.9988 16.6863 41.0008L16.6907 41.0473V41.0521C16.6907 42.1925 14.2419 45.7728 11.7402 48.2874C10.1472 49.8885 8.78664 50.8074 8.00795 50.8074C7.37392 50.8074 7.09146 50.5164 7.09146 49.8642" fill="url(#paint14_linear_4699_116460)"/>
<path d="M19.3438 26.4565C19.3438 28.0947 20.3847 28.6758 21.2757 28.6758C23.4752 28.6758 27.2244 25.7711 31.0653 22.224L30.5053 22.0264C27.1509 25.1003 23.3354 28.1468 21.2757 28.1468C20.3968 28.1468 19.8723 27.5148 19.8723 26.4565C19.8723 25.5364 21.104 22.6079 23.4469 19.3307C23.278 19.262 23.1091 19.1917 22.9402 19.1218C20.5589 22.479 19.3438 25.4648 19.3438 26.4565" fill="url(#paint15_linear_4699_116460)"/>
<path d="M0.902344 52.2812H1.4309C1.4309 46.8934 10.2741 41.1323 22.7675 33.5813L22.4903 33.1316C9.85144 40.7698 0.902344 46.6166 0.902344 52.2812" fill="url(#paint16_linear_4699_116460)"/>
<path d="M11.293 28.2856C11.293 31.0855 13.3001 32.6914 16.7996 32.6914V32.1629C14.9403 32.1629 11.8219 31.6589 11.8219 28.2856C11.8219 25.6484 13.5498 21.6309 17.9642 16.9636C17.7973 16.888 17.6296 16.8101 17.4623 16.7333C13.0294 21.4701 11.293 25.5725 11.293 28.2856Z" fill="url(#paint17_linear_4699_116460)"/>
<path d="M22.7677 33.5801C23.9391 32.8422 25.3478 31.0711 25.1352 30.3356C25.0694 30.1073 24.8702 29.9719 24.6027 29.9719C24.2503 29.9719 23.8268 30.1909 23.2408 30.4948C22.0391 31.1191 20.0279 32.1625 16.8008 32.1625V32.6919C20.1568 32.6919 22.2399 31.6101 23.4841 30.9644C23.9844 30.7049 24.4014 30.4908 24.6027 30.4908C24.6309 30.4908 24.6423 30.5122 24.6423 30.5445C24.6423 30.926 23.6955 32.371 22.49 33.1307" fill="#AF0A55"/>
<path d="M40.0652 32.7601C38.3005 32.7601 37.361 31.5195 37.361 30.6249H36.832C36.832 31.9107 38.1312 33.2891 40.0652 33.2891C44.3353 33.2891 47.4209 30.2187 49.913 27.5356C49.7198 27.4956 49.517 27.4523 49.3089 27.4083C46.9255 29.9565 43.9914 32.7601 40.0652 32.7601Z" fill="url(#paint18_linear_4699_116460)"/>
<path d="M32.2048 30.3223L31.9696 30.4908L31.3578 30.9163C30.5371 31.4768 29.7612 32.0066 29.2294 32.8313C15.7678 53.6948 6.96741 54.7519 5.33972 54.7519C2.99354 54.7519 1.4309 54.332 1.4309 52.2808H0.902344C0.902344 55.2812 3.89952 55.2812 5.33972 55.2812C6.31399 55.2812 9.02587 54.9665 13.1638 52.055C18.3807 48.3842 23.9346 42.0124 29.6735 33.1178C30.1479 32.3828 30.8806 31.8825 31.656 31.3527L32.2787 30.9204L32.5139 30.7506C35.7778 28.394 36.6874 27.9373 36.9751 27.8961C37.2103 27.863 37.2649 27.9192 37.2855 27.9345L37.6589 27.5607C37.4912 27.3902 37.3328 27.3672 36.9751 27.3672C36.4866 27.3672 35.149 28.196 32.2048 30.3223" fill="url(#paint19_linear_4699_116460)"/>
<path d="M54.3945 28.5556C54.3945 31.5342 56.1063 33.1094 59.3439 33.1094C61.7398 33.1094 63.9292 31.7807 65.7848 29.8762C65.5613 29.8596 65.3342 29.8386 65.1095 29.8204C63.5538 31.3293 61.5882 32.5804 59.3439 32.5804C56.3697 32.5804 54.9239 31.2639 54.9239 28.5556L54.9251 28.4728C54.7505 28.4405 54.5744 28.4069 54.3982 28.3738C54.3966 28.4352 54.3945 28.4966 54.3945 28.5556" fill="url(#paint20_linear_4699_116460)"/>
<path d="M75.7807 30.0863C75.3821 30.7018 74.98 31.3151 74.5745 31.9262C74.3906 32.184 74.2286 32.2749 74.1377 32.2749H68.7664C68.7733 32.2656 68.7786 32.2555 68.785 32.2482L68.7931 32.2373L69.6837 30.8768C69.845 30.6315 70.0171 30.37 70.1953 30.0977C69.9896 30.0924 69.7827 30.0851 69.5754 30.0783L69.2421 30.5854L68.3623 31.931C68.3118 31.9945 68.1914 32.1662 68.1914 32.3614C68.1914 32.4196 68.2027 32.4794 68.2302 32.538C68.2868 32.6596 68.427 32.8047 68.7721 32.8047H74.1377C74.4383 32.8047 74.7386 32.6067 75.0045 32.2341C75.0752 32.1355 75.6312 31.2857 76.4273 30.0637C76.2127 30.0714 75.9969 30.0795 75.7807 30.0863" fill="url(#paint21_linear_4699_116460)"/>
<path d="M84.4887 29.3764L84.4883 29.4112C84.4883 30.4945 84.6883 31.7687 85.4719 32.6031C85.9984 33.1632 86.7197 33.4473 87.6164 33.4473V32.9179C86.8716 32.9179 86.28 32.6904 85.8578 32.2406C85.1421 31.4789 85.0096 30.2092 85.0181 29.3053C84.8427 29.3299 84.6653 29.3526 84.4887 29.3764" fill="url(#paint22_linear_4699_116460)"/>
<path d="M37.4741 27.741L37.285 27.9325C37.3218 27.9709 37.3287 28.0263 37.3254 28.0942C37.3218 28.1628 37.3 28.2348 37.2858 28.2994C37.2713 28.3641 37.222 28.577 37.1496 28.8219C37.0155 29.2765 36.832 29.8984 36.832 30.625H37.361C37.361 29.9748 37.5251 29.4184 37.6568 28.9719C37.7441 28.6756 37.7893 28.4966 37.8217 28.2845L37.8322 28.1406C37.835 27.9325 37.8196 27.7232 37.6584 27.5599L37.4741 27.741Z" fill="url(#paint23_linear_4699_116460)"/>
<path d="M91.1233 38.4489C89.1965 40.7878 87.5684 42.7097 86.1311 44.4041C82.1366 49.1187 80.3125 51.2697 80.3125 52.7596C80.3125 53.5144 80.5529 54.1052 80.9009 54.5469L81.2338 54.1113C80.9999 53.7718 80.8415 53.3281 80.8415 52.7596C80.8415 51.464 82.7439 49.2185 86.5356 44.7468C87.9725 43.05 89.6027 41.1273 91.531 38.7847C94.1136 35.6498 95.8625 33.3193 97.0465 31.6027L96.4981 31.4645C95.3307 33.1432 93.6218 35.415 91.1233 38.4489" fill="url(#paint24_linear_4699_116460)"/>
<path d="M104.706 24.6359C103.363 26.7153 102.533 28.3232 100.896 31.2263C99.0233 34.5467 96.9014 38.3092 94.1467 42.7878C87.5692 53.483 84.2973 55.0796 82.9318 55.0796C82.552 55.0796 81.724 54.8262 81.2314 54.1098L80.8984 54.5454C81.4791 55.2829 82.3605 55.6094 82.9318 55.6094C85.5164 55.6094 89.5501 51.2714 94.5973 43.0659C97.3576 38.5776 99.482 34.8106 101.357 31.4861C103.171 28.2679 104.123 26.4442 105.593 24.2496C105.304 24.3781 105.008 24.5066 104.706 24.6359" fill="url(#paint25_linear_4699_116460)"/>
<path d="M98.9913 26.5999C98.883 26.633 98.7827 26.6859 98.1649 27.2202C96.3634 28.7788 91.5777 32.9179 87.6172 32.9179V33.4473C91.7741 33.4473 96.6689 29.214 98.5112 27.6206C98.6878 27.4679 98.8523 27.326 98.9731 27.2262C98.8632 27.5673 98.3944 28.7347 96.498 31.4632L97.0463 31.6014C99.4915 28.0578 99.5336 27.1252 99.5336 27.1119C99.5336 27.006 99.5336 26.81 99.384 26.6823C99.2943 26.6055 99.1881 26.5853 99.106 26.5853C99.0555 26.5853 99.0143 26.593 98.9913 26.5999" fill="url(#paint26_linear_4699_116460)"/>
<path d="M71.3407 17.5094C71.3407 18.6655 70.7491 20.7709 69.6992 23.0508C69.9053 23.0217 70.1118 22.991 70.3175 22.9599C71.3132 20.7333 71.87 18.6898 71.87 17.5094C71.87 17.286 71.9314 17.2209 72.1452 17.2209C72.5287 17.2209 73.5454 17.3243 74.1532 17.3866L74.4174 17.4133C74.8563 17.4573 75.5994 17.8113 75.5994 18.8599C75.5994 19.5719 75.0903 20.8121 74.339 22.2604C74.5581 22.2167 74.7775 22.1719 74.9969 22.1266C75.6786 20.7604 76.1284 19.5881 76.1284 18.8599C76.1284 17.6181 75.2689 16.9667 74.47 16.8871L74.2069 16.8604C73.5494 16.7934 72.5554 16.6923 72.1452 16.6923C71.6413 16.6923 71.3407 16.9978 71.3407 17.5094" fill="url(#paint27_linear_4699_116460)"/>
<path d="M57.5156 7.28407C57.5156 11.3832 65.4581 14.418 67.557 14.418C68.2638 14.418 68.3696 14.007 68.3696 13.7625C68.3696 13.24 65.6088 5.09509 59.7802 5.09509C58.4046 5.09509 57.5156 5.9546 57.5156 7.28407V7.28407ZM58.0446 7.28407C58.0446 6.2601 58.7097 5.62405 59.7802 5.62405C65.0524 5.62405 67.8011 13.2348 67.8407 13.7678C67.8407 13.8248 67.8407 13.889 67.557 13.889C65.6925 13.889 58.0446 10.9221 58.0446 7.28407Z" fill="url(#paint28_linear_4699_116460)"/>
<path d="M52.9375 23.8271C53.2482 23.8422 53.5589 23.8556 53.8697 23.8675C54.2217 23.6905 54.5632 23.5911 54.8962 23.5911C55.2158 23.5911 55.2158 23.701 55.2158 23.781C55.2103 23.8234 55.2026 23.8655 55.1928 23.9071C55.3718 23.9111 55.55 23.9147 55.729 23.918C55.7395 23.8582 55.7447 23.8145 55.7447 23.781C55.7447 23.6125 55.6837 23.0621 54.8962 23.0621C54.246 23.0621 53.5994 23.353 52.9375 23.8271" fill="url(#paint29_linear_4699_116460)"/>
<path d="M65.6331 16.3031C65.463 16.4671 65.4011 16.7067 65.4597 16.9775C65.5147 17.2361 65.743 17.4757 65.9851 17.7299C66.1382 17.8903 66.3944 18.1595 66.398 18.2726C66.4049 18.488 65.9503 19.1111 64.7 19.8664C63.9306 20.3307 62.3518 22.0744 61.2539 23.8398C61.4697 23.8293 61.6863 23.8188 61.9029 23.8075C62.9394 22.2352 64.3218 20.7121 64.974 20.3186C66.2138 19.5698 66.9444 18.7983 66.927 18.2556C66.9169 17.9405 66.6502 17.6612 66.3677 17.365C66.213 17.2022 66.0008 16.9795 65.9762 16.8668C65.9576 16.7791 65.9657 16.7173 66.0004 16.6841C66.074 16.6126 66.3148 16.5686 66.75 16.6785L67.281 16.8045C68.2799 17.0325 68.6036 17.1468 68.6194 17.6366C68.6388 18.2557 67.8912 20.974 66.5047 23.4438C66.7181 23.4212 66.9314 23.3986 67.1448 23.3739C68.4411 20.9615 69.1726 18.3874 69.1479 17.6196C69.1176 16.6813 68.3215 16.4995 67.399 16.2885L66.8801 16.1661C66.6888 16.1146 66.4919 16.0871 66.2938 16.084C65.9495 16.084 65.7487 16.1919 65.6331 16.3031" fill="url(#paint30_linear_4699_116460)"/>
<path d="M36.7602 15.9193L35.7908 16.8895C34.9329 17.7567 33.6746 19.0288 32.2344 20.4088C32.4304 20.4621 32.6276 20.5143 32.8252 20.5664C33.9525 19.4784 35.0666 18.3766 36.167 17.2613L37.128 16.2992C38.8001 14.6828 41.0016 14.3328 41.457 14.3328C41.9755 14.3328 42.342 14.5579 42.342 14.7305L42.8706 14.7292C42.8706 14.1534 42.1598 13.8043 41.457 13.8043C40.9269 13.8043 38.5771 14.1627 36.7602 15.9193" fill="url(#paint31_linear_4699_116460)"/>
<path d="M42.3407 14.7284C42.3407 14.9168 41.9232 15.3904 41.3454 16.0462L41.1417 16.2773C40.6115 16.8807 38.6331 19.5691 37.1367 21.6247C37.3242 21.6676 37.5121 21.7096 37.7004 21.75C39.175 19.7275 41.0447 17.189 41.5393 16.6265L41.7426 16.3961C42.516 15.5176 42.8692 15.1164 42.8692 14.7272L42.3407 14.7284Z" fill="url(#paint32_linear_4699_116460)"/>
<path d="M27.6184 13.7853C26.2673 15.0335 25.0206 16.3902 23.8906 17.8416C24.068 17.9022 24.2458 17.9632 24.4244 18.0234C25.4464 16.7275 26.6316 15.4126 27.976 14.1744C30.0018 12.3099 32.1184 10.8225 34.1704 9.68574L33.932 9.21659C31.8368 10.3743 29.6789 11.8885 27.6184 13.7853" fill="url(#paint33_linear_4699_116460)"/>
<path d="M39.3359 22.0966C39.5461 22.1394 39.7566 22.1814 39.9675 22.2227C47.0978 15.3664 50.0606 13.986 52.665 13.986C53.8005 13.986 54.5986 14.3683 55.0536 15.1255C55.3539 15.6258 55.5046 16.2889 55.5046 17.1133C55.5046 18.0318 55.3021 18.7325 55.1676 19.1964C55.0936 19.451 55.0447 19.6191 55.0447 19.7577C55.0447 20.0123 55.1534 20.2555 55.3357 20.4083L55.6759 20.0038C55.6129 19.9504 55.5737 19.8567 55.5737 19.7577C55.5737 19.6942 55.6258 19.5156 55.6751 19.3435C55.8182 18.8509 56.0336 18.1065 56.0336 17.1133C56.0336 16.3354 55.903 15.6727 55.6509 15.134C55.1377 14.0401 54.1202 13.4574 52.665 13.4574C49.8945 13.4574 46.7895 14.8932 39.3359 22.0966Z" fill="url(#paint34_linear_4699_116460)"/>
<path d="M61.8043 15.1297C61.3436 15.9007 58.4665 19.5857 55.8386 20.0451C55.8103 20.0512 55.7809 20.0508 55.7527 20.0438C55.7246 20.0368 55.6984 20.0234 55.6762 20.0047L55.3359 20.4096C55.4172 20.4782 55.5127 20.5277 55.6155 20.5547C55.7184 20.5817 55.8259 20.5854 55.9304 20.5656C59.0067 20.0282 62.3866 15.5459 62.3866 15.0667L61.8043 15.1297Z" fill="url(#paint35_linear_4699_116460)"/>
<path d="M83.0257 16.1961C82.5853 16.6091 82.0478 17.1122 81.8527 17.2076C81.7031 17.1053 81.4312 16.5319 81.2647 16.1779C81.0748 15.775 80.8788 15.3588 80.6747 15.0865C79.9356 14.1005 78.9573 13.8309 76.1226 13.8309C75.4207 13.8309 74.8731 13.8613 74.3438 13.8912L74.3728 14.4193C74.8953 14.3898 75.4356 14.3595 76.1226 14.3595C78.7807 14.3595 79.6297 14.5745 80.2516 15.4037C80.4234 15.6328 80.608 16.0248 80.7858 16.4034C81.1402 17.1566 81.4207 17.7515 81.843 17.7515C82.1173 17.7515 82.4451 17.4658 83.3878 16.582C84.3799 15.651 85.8791 14.2447 86.6941 14.2447C87.2433 14.2447 87.2986 14.389 87.2986 14.7446C87.2986 14.9842 87.1362 15.2946 86.9309 15.6878C86.5616 16.3953 86.0209 17.4355 85.9324 19.0664C86.113 19.0018 86.2941 18.9355 86.4747 18.8696C86.589 17.486 87.0501 16.6018 87.4001 15.9326C87.6389 15.4752 87.8276 15.1139 87.8276 14.7446C87.8276 14.452 87.7642 14.2245 87.6361 14.0585C87.455 13.8269 87.1451 13.7158 86.6941 13.7158C85.6697 13.7158 84.2037 15.0909 83.0257 16.1961" fill="url(#paint36_linear_4699_116460)"/>
<path d="M70.5898 13.6554C70.9285 14.4454 71.4748 14.4766 72.7877 14.4766L74.3722 14.4216L74.3431 13.893L72.7877 13.948C71.3924 13.948 71.2611 13.8785 71.0764 13.4473L70.5898 13.6554Z" fill="url(#paint37_linear_4699_116460)"/>
<path d="M51.9867 17.2183C51.0544 17.2418 48.1195 19.5164 45.9059 21.9046C45.557 22.2793 45.221 22.6657 44.8984 23.0632C45.1037 23.0931 45.3094 23.1202 45.5147 23.1484C45.8546 22.7417 46.2083 22.3467 46.575 21.964C48.8246 19.6073 51.3809 17.7627 52 17.7473C52.3132 17.7392 52.5237 17.8261 52.5354 17.9683C52.5374 17.9879 52.5383 18.0076 52.5383 18.0273C52.5383 18.6529 51.7062 19.2004 50.9692 19.6849L50.4127 20.0624L50.3861 20.0818C49.4631 20.7473 49.019 21.0686 49.019 21.6755C49.019 21.7551 49.0267 21.8388 49.0416 21.9297C49.08 22.1596 49.2279 22.3051 49.3584 22.4328C49.4789 22.5512 49.5851 22.6571 49.6336 22.8341H50.1723C50.1097 22.4332 49.8918 22.215 49.729 22.055C49.6324 21.9612 49.573 21.8998 49.5637 21.8424C49.4914 21.4116 49.6389 21.2734 50.6952 20.5105L50.7223 20.4911L51.2597 20.127C52.1427 19.5459 53.1432 18.8881 53.0628 17.9239C53.0345 17.5945 52.7488 17.2175 52.038 17.2175L51.9867 17.2183" fill="url(#paint38_linear_4699_116460)"/>
<path d="M49.6358 22.8345C49.6473 22.8752 49.6553 22.9169 49.6596 22.959C49.6608 22.9695 49.6608 22.9796 49.6608 22.9901C49.6608 23.1146 49.5954 23.3142 49.4414 23.5886C49.6309 23.6063 49.8196 23.6229 50.0092 23.6387C50.1449 23.3506 50.206 23.1049 50.1857 22.9069C50.1837 22.881 50.1781 22.8588 50.1744 22.8345H49.6358Z" fill="url(#paint39_linear_4699_116460)"/>
<path d="M53.2223 4.34401C53.0218 4.82569 52.918 5.37728 52.918 5.98989C52.918 8.29768 54.0583 12.5492 61.6933 15.0942L61.7895 15.1241L61.804 15.1289L62.3863 15.0663C62.3863 14.7499 62.0958 14.6634 61.9402 14.6169L61.8606 14.5927C54.54 12.1523 53.4469 8.15543 53.4469 5.98989C53.4469 5.40031 53.5492 4.91217 53.7225 4.50847C54.4495 2.81855 56.4251 2.60357 57.3792 2.60357C65.434 2.60357 69.4944 10.9857 70.5474 13.5546L70.5882 13.654L71.0748 13.4458L71.0368 13.3541C69.9522 10.7081 65.7629 2.07501 57.3792 2.07501C55.2839 2.07501 53.8223 2.89816 53.2223 4.34401" fill="url(#paint40_linear_4699_116460)"/>
<path d="M49.9346 1.28717C50.1318 1.31263 50.289 1.34455 50.4082 1.37445C49.3688 3.22076 47.5435 6.46201 47.4534 6.61153L47.4316 6.64426L47.3633 6.63941L47.2441 6.62163C45.7174 6.38968 44.436 6.2729 43.4359 6.2729C41.0182 6.2729 37.5709 7.20797 33.9336 9.21835L34.172 9.6875C37.7264 7.71794 41.0857 6.80145 43.4359 6.80145C44.4094 6.80145 45.6641 6.91702 47.1649 7.14453L47.2885 7.16312C47.4316 7.18332 47.5455 7.17605 47.6413 7.13644C47.7468 7.09321 47.8308 7.01158 47.9068 6.88429C48.0268 6.68426 50.8405 1.68358 50.9606 1.47103C50.9904 1.42284 51.0091 1.36858 51.0153 1.31221C51.0215 1.25585 51.0149 1.19882 50.9961 1.14533C50.9764 1.09299 50.945 1.04588 50.9042 1.00762C50.8634 0.969364 50.8144 0.940993 50.7609 0.924694C50.5322 0.848724 50.2502 0.792552 49.9346 0.755375V1.28717Z" fill="url(#paint41_linear_4699_116460)"/>
<path d="M25.6146 10.3547C35.5174 3.15569 44.991 1.23502 49.0271 1.23502C49.3973 1.23502 49.6838 1.24715 49.9363 1.28837V0.756581C49.6438 0.713342 49.3492 0.706068 49.0271 0.706068C44.9268 0.706068 35.3162 2.64815 25.3035 9.92672C22.5185 11.9516 20.2204 13.9313 18.3438 15.8213L18.8792 16.0273C20.7057 14.2105 22.9298 12.3068 25.6146 10.3547" fill="#90C643"/>
<defs>
<radialGradient id="paint0_radial_4699_116460" cx="0" cy="0" r="1" gradientUnits="userSpaceOnUse" gradientTransform="translate(58.2041 29.9552) scale(83.2063)">
<stop stop-color="#C11566"/>
<stop offset="0.994" stop-color="#AF0A55"/>
<stop offset="1" stop-color="#AF0A55"/>
</radialGradient>
<radialGradient id="paint1_radial_4699_116460" cx="0" cy="0" r="1" gradientUnits="userSpaceOnUse" gradientTransform="translate(66.4498 19.0257) scale(35.3423)">
<stop stop-color="#63BBEB"/>
<stop offset="1" stop-color="#3777C5"/>
</radialGradient>
<radialGradient id="paint2_radial_4699_116460" cx="0" cy="0" r="1" gradientUnits="userSpaceOnUse" gradientTransform="translate(69.0728 21.9453) scale(44.8366)">
<stop stop-color="#90C643"/>
<stop offset="0.831" stop-color="#5FB233"/>
<stop offset="1" stop-color="#5FB233"/>
</radialGradient>
<linearGradient id="paint3_linear_4699_116460" x1="79.7903" y1="27.431" x2="82.9318" y2="30.0671" gradientUnits="userSpaceOnUse">
<stop stop-color="#4980CA"/>
<stop offset="1" stop-color="#63BBEB"/>
</linearGradient>
<linearGradient id="paint4_linear_4699_116460" x1="65.4501" y1="26.6017" x2="61.7285" y2="24.3888" gradientUnits="userSpaceOnUse">
<stop stop-color="#82C7EF"/>
<stop offset="1" stop-color="#3777C5"/>
</linearGradient>
<linearGradient id="paint5_linear_4699_116460" x1="90.6598" y1="20.9099" x2="101.536" y2="20.9099" gradientUnits="userSpaceOnUse">
<stop stop-color="#2F67AB"/>
<stop offset="1" stop-color="#2D61A2"/>
</linearGradient>
<linearGradient id="paint6_linear_4699_116460" x1="89.9739" y1="20.3188" x2="86.9843" y2="20.7021" gradientUnits="userSpaceOnUse">
<stop stop-color="#63BBEB"/>
<stop offset="1" stop-color="#3777C5"/>
</linearGradient>
<linearGradient id="paint7_linear_4699_116460" x1="98.4461" y1="16.7899" x2="100.285" y2="16.9432" gradientUnits="userSpaceOnUse">
<stop stop-color="#63BBEB"/>
<stop offset="1" stop-color="#2D61A2"/>
</linearGradient>
<linearGradient id="paint8_linear_4699_116460" x1="95.7431" y1="20.4051" x2="94.812" y2="19.2414" gradientUnits="userSpaceOnUse">
<stop stop-color="#5AAAD7"/>
<stop offset="1" stop-color="#2F67AB"/>
</linearGradient>
<linearGradient id="paint9_linear_4699_116460" x1="112.13" y1="10.2333" x2="113.51" y2="10.8082" gradientUnits="userSpaceOnUse">
<stop stop-color="#63BBEB"/>
<stop offset="1" stop-color="#2B5C99"/>
</linearGradient>
<linearGradient id="paint10_linear_4699_116460" x1="109.931" y1="16.4764" x2="105.447" y2="19.0062" gradientUnits="userSpaceOnUse">
<stop stop-color="#63BBEB"/>
<stop offset="1" stop-color="#2F67AB"/>
</linearGradient>
<linearGradient id="paint11_linear_4699_116460" x1="106.821" y1="17.2705" x2="107.315" y2="18.0124" gradientUnits="userSpaceOnUse">
<stop stop-color="#63BBEB"/>
<stop offset="1" stop-color="#2B5C99"/>
</linearGradient>
<linearGradient id="paint12_linear_4699_116460" x1="42.8671" y1="27.2527" x2="47.1626" y2="27.2527" gradientUnits="userSpaceOnUse">
<stop stop-color="#AF0A55"/>
<stop offset="1" stop-color="#DB4990"/>
</linearGradient>
<linearGradient id="paint13_linear_4699_116460" x1="35.1095" y1="24.417" x2="37.511" y2="24.417" gradientUnits="userSpaceOnUse">
<stop stop-color="#A2094D"/>
<stop offset="1" stop-color="#D73585"/>
</linearGradient>
<linearGradient id="paint14_linear_4699_116460" x1="11.6285" y1="45.2537" x2="12.6634" y2="46.7486" gradientUnits="userSpaceOnUse">
<stop stop-color="#AF0A55"/>
<stop offset="1" stop-color="#DB4990"/>
</linearGradient>
<linearGradient id="paint15_linear_4699_116460" x1="21.8984" y1="22.4311" x2="26.1126" y2="25.6638" gradientUnits="userSpaceOnUse">
<stop stop-color="#A2094D"/>
<stop offset="1" stop-color="#DB4990"/>
</linearGradient>
<linearGradient id="paint16_linear_4699_116460" x1="18.8325" y1="38.5574" x2="22.8951" y2="36.1043" gradientUnits="userSpaceOnUse">
<stop stop-color="#DB4990"/>
<stop offset="1" stop-color="#AF0A55"/>
</linearGradient>
<linearGradient id="paint17_linear_4699_116460" x1="17.8315" y1="27.8059" x2="18.8279" y2="29.1854" gradientUnits="userSpaceOnUse">
<stop stop-color="#DB4990"/>
<stop offset="1" stop-color="#AF0A55"/>
</linearGradient>
<linearGradient id="paint18_linear_4699_116460" x1="40.8494" y1="28.8363" x2="39.0674" y2="28.089" gradientUnits="userSpaceOnUse">
<stop stop-color="#A2094D"/>
<stop offset="1" stop-color="#DF5E9C"/>
</linearGradient>
<linearGradient id="paint19_linear_4699_116460" x1="11.0634" y1="36.2347" x2="12.7312" y2="37.1549" gradientUnits="userSpaceOnUse">
<stop stop-color="#DB4990"/>
<stop offset="1" stop-color="#A2094D"/>
</linearGradient>
<linearGradient id="paint20_linear_4699_116460" x1="59.4271" y1="30.9353" x2="56.2653" y2="30.7054" gradientUnits="userSpaceOnUse">
<stop stop-color="#A2094D"/>
<stop offset="1" stop-color="#DF5E9C"/>
</linearGradient>
<linearGradient id="paint21_linear_4699_116460" x1="72.8163" y1="31.8737" x2="70.9117" y2="29.6805" gradientUnits="userSpaceOnUse">
<stop stop-color="#A2094D"/>
<stop offset="1" stop-color="#DB4990"/>
</linearGradient>
<linearGradient id="paint22_linear_4699_116460" x1="87.4299" y1="33.1399" x2="86.5675" y2="32.2775" gradientUnits="userSpaceOnUse">
<stop stop-color="#C01F6E"/>
<stop offset="1" stop-color="#D63384"/>
</linearGradient>
<linearGradient id="paint23_linear_4699_116460" x1="37.4959" y1="30.2113" x2="37.1511" y2="28.2762" gradientUnits="userSpaceOnUse">
<stop stop-color="#DF5E9C"/>
<stop offset="1" stop-color="#A2094D"/>
</linearGradient>
<linearGradient id="paint24_linear_4699_116460" x1="89.5415" y1="41.9474" x2="95.923" y2="34.0464" gradientUnits="userSpaceOnUse">
<stop stop-color="#DF5E9C"/>
<stop offset="1" stop-color="#A2094D"/>
</linearGradient>
<linearGradient id="paint25_linear_4699_116460" x1="87.3805" y1="37.5988" x2="88.8361" y2="38.104" gradientUnits="userSpaceOnUse">
<stop stop-color="#DF5E9C"/>
<stop offset="1" stop-color="#A2094D"/>
</linearGradient>
<linearGradient id="paint26_linear_4699_116460" x1="87.6172" y1="30.0165" x2="99.5333" y2="30.0165" gradientUnits="userSpaceOnUse">
<stop stop-color="#C01F6E"/>
<stop offset="1" stop-color="#A2094D"/>
</linearGradient>
<linearGradient id="paint27_linear_4699_116460" x1="73.3713" y1="20.8018" x2="74.1763" y2="21.4343" gradientUnits="userSpaceOnUse">
<stop stop-color="#5FB233"/>
<stop offset="1" stop-color="#90C643"/>
</linearGradient>
<linearGradient id="paint28_linear_4699_116460" x1="63.9565" y1="9.59913" x2="65.5088" y2="9.02419" gradientUnits="userSpaceOnUse">
<stop stop-color="#5FB233"/>
<stop offset="1" stop-color="#90C643"/>
</linearGradient>
<linearGradient id="paint29_linear_4699_116460" x1="54.3074" y1="23.5733" x2="55.0232" y2="23.9574" gradientUnits="userSpaceOnUse">
<stop stop-color="#5FB233"/>
<stop offset="1" stop-color="#90C643"/>
</linearGradient>
<linearGradient id="paint30_linear_4699_116460" x1="66.2565" y1="20.9207" x2="67.1765" y2="21.3808" gradientUnits="userSpaceOnUse">
<stop stop-color="#5FB233"/>
<stop offset="1" stop-color="#90C643"/>
</linearGradient>
<linearGradient id="paint31_linear_4699_116460" x1="40.8864" y1="18.0876" x2="38.9607" y2="17.6062" gradientUnits="userSpaceOnUse">
<stop stop-color="#5FB233"/>
<stop offset="1" stop-color="#90C643"/>
</linearGradient>
<linearGradient id="paint32_linear_4699_116460" x1="37.1363" y1="18.2388" x2="42.8694" y2="18.2388" gradientUnits="userSpaceOnUse">
<stop stop-color="#529B2B"/>
<stop offset="0.83" stop-color="#5FB233"/>
<stop offset="1" stop-color="#5FB233"/>
</linearGradient>
<linearGradient id="paint33_linear_4699_116460" x1="23.8906" y1="13.62" x2="34.1706" y2="13.62" gradientUnits="userSpaceOnUse">
<stop stop-color="#529B2B"/>
<stop offset="0.04" stop-color="#529B2B"/>
<stop offset="0.831" stop-color="#5AAB30"/>
<stop offset="1" stop-color="#5AAB30"/>
</linearGradient>
<linearGradient id="paint34_linear_4699_116460" x1="39.3359" y1="17.8398" x2="56.0337" y2="17.8398" gradientUnits="userSpaceOnUse">
<stop stop-color="#90C643"/>
<stop offset="1" stop-color="#56A32E"/>
</linearGradient>
<linearGradient id="paint35_linear_4699_116460" x1="57.0344" y1="19.7751" x2="60.9329" y2="16.3323" gradientUnits="userSpaceOnUse">
<stop stop-color="#56A32E"/>
<stop offset="0.5" stop-color="#83B43C"/>
<stop offset="1" stop-color="#5AAB30"/>
</linearGradient>
<linearGradient id="paint36_linear_4699_116460" x1="86.8574" y1="16.5107" x2="78.1655" y2="13.8613" gradientUnits="userSpaceOnUse">
<stop stop-color="#56A32E"/>
<stop offset="0.299" stop-color="#90C643"/>
<stop offset="0.665" stop-color="#59A72F"/>
<stop offset="1" stop-color="#90C643"/>
</linearGradient>
<linearGradient id="paint37_linear_4699_116460" x1="70.5902" y1="13.9617" x2="74.3727" y2="13.9617" gradientUnits="userSpaceOnUse">
<stop stop-color="#5FB233"/>
<stop offset="1" stop-color="#90C643"/>
</linearGradient>
<linearGradient id="paint38_linear_4699_116460" x1="48.6737" y1="20.0004" x2="50.4276" y2="22.322" gradientUnits="userSpaceOnUse">
<stop stop-color="#56A32E"/>
<stop offset="0.495" stop-color="#90C643"/>
<stop offset="1" stop-color="#90C643"/>
</linearGradient>
<linearGradient id="paint39_linear_4699_116460" x1="47.8528" y1="20.6236" x2="49.6063" y2="22.9448" gradientUnits="userSpaceOnUse">
<stop stop-color="#5FB233"/>
<stop offset="1" stop-color="#90C643"/>
</linearGradient>
<linearGradient id="paint40_linear_4699_116460" x1="56.7315" y1="3.86955" x2="55.554" y2="2.4663" gradientUnits="userSpaceOnUse">
<stop stop-color="#5FB233"/>
<stop offset="0.813" stop-color="#9BCB52"/>
<stop offset="1" stop-color="#9BCB52"/>
</linearGradient>
<linearGradient id="paint41_linear_4699_116460" x1="42.6746" y1="5.66918" x2="42.3099" y2="4.8216" gradientUnits="userSpaceOnUse">
<stop stop-color="#5AAB30"/>
<stop offset="1" stop-color="#90C643"/>
</linearGradient>
</defs>
</svg>
