<svg width="115" height="54" viewBox="0 0 115 54" fill="none" xmlns="http://www.w3.org/2000/svg">
<path fill-rule="evenodd" clip-rule="evenodd" d="M8.40225 39.2271H11.6443L6.58078 43.933L10.4278 50.5852H7.18575L4.5472 45.6856L3.12734 46.9831L2.6368 50.5852H0.0390625L1.58575 39.2271H4.18348L3.55373 43.8514L8.40225 39.2271V39.2271ZM15.2559 42.3428L14.1334 50.5852H11.7405L12.8637 42.3428H15.2559V42.3428ZM13.2406 39.2271H15.7282L15.4651 41.1581H12.9782L13.2406 39.2271ZM18.9688 42.3428L18.8048 43.5427C19.9353 42.1797 20.8836 42.034 21.466 42.034C23.0404 42.034 23.4792 43.0891 23.5863 43.6891C24.7831 42.1796 25.8735 42.034 26.5499 42.034C27.7781 42.034 29.1914 42.6347 28.7912 45.5713L28.1083 50.5852H25.7168L26.3772 45.7336C26.4763 45.0033 26.5769 43.6891 25.4595 43.6891C24.8772 43.6891 23.9384 44.1106 23.7022 45.8472L23.0571 50.5852H20.6642L21.3246 45.7336C21.4747 44.6305 21.4303 43.6891 20.3909 43.6891C19.8559 43.6891 18.8836 44.1274 18.6489 45.8472L18.0038 50.5852H15.6109L16.7334 42.3428H18.9688V42.3428ZM32.2651 50.5852H30.0464L31.5931 39.2271H33.986L33.4495 43.1699C34.0953 42.4724 35.0363 42.034 36.0123 42.034C38.1377 42.034 39.5036 43.5595 39.1122 46.4312C38.653 49.8068 36.4897 50.8939 34.8373 50.8939C33.6412 50.8939 33.0844 50.4716 32.4481 49.5956H32.4007L32.2651 50.5852V50.5852ZM34.3694 49.2389C35.408 49.2389 36.3636 48.3462 36.6202 46.464C36.6734 46.0744 36.9664 43.6891 35.1245 43.6891C34.0224 43.6891 33.1361 44.533 32.8737 46.464C32.5785 48.6382 33.5195 49.2389 34.3694 49.2389V49.2389ZM48.5199 48.1998C47.525 50.6507 45.272 50.8939 43.9972 50.8939C41.3681 50.8939 39.8965 49.45 40.3054 46.4479C40.6611 43.8354 42.5278 42.034 45.3923 42.034C49.0119 42.034 49.0491 45.1169 48.8923 46.6096L48.8472 47.0639H42.7085C42.5919 48.0374 42.9002 49.2381 44.3332 49.2381C45.1044 49.2381 45.8165 48.8646 46.0956 48.1991H48.5199V48.1998V48.1998ZM46.5475 45.6856C46.7531 43.8354 45.6233 43.6898 45.135 43.6898C43.608 43.6898 43.0715 44.9713 42.8958 45.6856H46.5475ZM56.375 43.6898C53.6133 43.3978 53.0266 45.5065 52.7948 47.2103L52.3349 50.5859H49.9434L51.0651 42.3435H53.4581L53.2744 43.6905C54.1141 42.2627 55.3728 42.0355 56.3182 42.0355H56.6017L56.375 43.6898V43.6898ZM60.5574 39.2271L59.0114 50.5852H56.6185L58.1645 39.2271H60.5574ZM61.3475 51.9322C61.5567 52.013 61.7884 52.0458 62.1033 52.0458C62.8592 52.0458 63.1682 51.5106 63.4241 50.8939L63.591 50.4876L61.2206 42.3428H64.1019L65.228 47.7134L67.3906 42.3428H69.9417L65.973 51.0235C65.3665 52.3538 64.739 53.7336 62.787 53.7336C62.1893 53.7336 61.5654 53.6855 61.123 53.588L61.3475 51.9322V51.9322ZM69.9417 44.7237H74.3041L74.0388 46.7523H69.6771L69.9417 44.7237ZM84.9895 46.5775C84.6505 48.0214 83.5485 50.9099 79.6256 50.9099C77.2101 50.9099 74.5862 49.8549 75.2057 45.1169C75.5847 42.2124 77.0578 38.9023 81.1024 38.9023C84.5747 38.9023 85.4968 41.0765 85.3248 43.0891H82.8801C82.8998 41.3205 81.7044 41.1093 80.9354 41.1093C78.6562 41.1093 78.0709 43.7378 77.9047 45.0201C77.6511 46.9503 78.1927 48.7037 80.0185 48.7037C81.7241 48.7037 82.3305 47.2918 82.5142 46.5783H84.9895V46.5775ZM89.5873 39.2271L88.104 50.5852H85.8095L87.2927 39.2271H89.5873ZM90.8861 45.0033C91.1128 43.6243 92.0436 42.034 94.8819 42.034C98.4876 42.034 98.1093 44.3546 97.9949 45.1169L97.4585 48.8813C97.3375 49.6925 97.2551 50.3252 97.7077 50.4395L97.6895 50.5852H95.274L95.1843 49.774H95.1391C94.1829 50.8611 92.7601 50.8939 92.427 50.8939C90.1638 50.8939 89.9473 49.4333 90.0683 48.5085C90.3088 46.6591 91.7068 46.1239 93.7484 45.8633C95.2988 45.6688 95.6005 45.6688 95.7171 45.0033C95.7274 44.9225 95.7354 44.8577 95.747 44.7762C95.7696 44.597 95.8578 43.6891 94.6508 43.6891C94.3345 43.6891 93.2426 43.7211 93.0764 45.0033H90.8861V45.0033ZM95.5153 46.6591C94.7609 46.9999 94.8308 46.9351 93.9482 47.0974C93.548 47.1622 92.5757 47.3246 92.4503 48.2821C92.3577 48.9957 92.9897 49.2389 93.5021 49.2389C93.9409 49.2389 95.22 48.9148 95.4467 47.1783L95.5153 46.6591ZM105.335 43.6898C102.687 43.3978 102.125 45.5065 101.902 47.2103L101.461 50.5859H99.167L100.244 42.3435H102.538L102.362 43.6905C103.167 42.2627 104.375 42.0355 105.28 42.0355H105.552L105.335 43.6898V43.6898ZM111.565 42.3428H114.327L110.869 45.5873L113.522 50.5852H110.79L109.094 47.1615L108.197 48.0222L107.863 50.5852H105.569L107.051 39.2271H109.346L108.53 45.4744L111.565 42.3428V42.3428Z" fill="#4E4A79"/>
<path fill-rule="evenodd" clip-rule="evenodd" d="M53.7144 0.517731C66.0413 0.357339 72.8816 9.38958 72.6894 16.5093C72.5951 20.0026 71.1392 24.1177 68.0303 27.3435C64.8998 30.5918 60.1382 32.8918 53.5375 32.8002C40.2634 32.6161 35.134 23.1484 34.9426 17.3972C34.8456 14.4835 36.1369 10.3249 39.1253 6.87262C42.1458 3.38335 46.9032 0.609646 53.7139 0.517738L53.7144 0.517731ZM53.7399 2.47501C47.5038 2.55929 43.2702 5.0752 40.6053 8.15374C40.2815 8.52774 39.981 8.90997 39.7028 9.29719C39.8032 9.22373 39.9184 9.16888 40.0435 9.13767C40.1268 9.11689 40.2111 9.10742 40.2945 9.10861L46.3452 9.15365L49.4858 4.7022C49.6809 4.42559 50.0009 4.27404 50.3288 4.28859L56.7141 4.22068C57.2514 4.21496 57.6929 4.6436 57.703 5.18091L57.815 11.124C57.955 10.944 58.0915 10.7771 58.2219 10.6237C58.5691 10.2156 58.8767 9.89981 59.101 9.68312C59.2133 9.57469 59.3049 9.4908 59.3705 9.43234C59.4033 9.4031 59.4297 9.38019 59.4489 9.36371L59.4722 9.34384L59.4757 9.34092C59.6434 9.19853 59.8596 9.1117 60.0957 9.10863M57.695 15.115L60.6076 11.0696L64.733 11.0991C63.5368 12.4524 62.4703 13.8145 61.8575 14.9761C61.6371 15.3938 61.4565 15.8198 61.3553 16.2363C61.2553 16.6479 61.217 17.1158 61.3587 17.5741C61.6882 18.6401 62.715 19.0018 63.7325 19.0466C65.685 19.1353 66.9432 19.1361 67.7233 19.1134L67.6901 22.0986C67.1634 22.0907 66.47 22.0806 65.7234 22.0704C64.1299 22.0488 62.2854 22.027 61.3078 22.027C60.4733 22.027 59.584 21.8345 58.8767 21.5477C58.5242 21.4048 58.2439 21.2492 58.0486 21.1042C57.8775 20.977 57.8214 20.8951 57.8105 20.8792C57.808 20.8755 57.8079 20.8754 57.8095 20.8793C57.6354 20.4435 57.1765 20.1926 56.7157 20.2812C56.2549 20.3698 55.9218 20.773 55.9218 21.2423V24.8321L51.0425 20.3479C50.9514 20.2636 50.8471 20.1991 50.7358 20.1553C50.6238 20.1113 50.5046 20.0884 50.3845 20.0875C50.2413 20.0865 50.0967 20.1169 49.9615 20.1804C49.9531 20.1843 49.9448 20.1884 49.9366 20.1926L46.5507 21.8855L41.9909 19.049H43.5014C44.4392 19.049 45.5404 18.7382 46.0302 17.7587C46.5351 16.7488 46.105 15.6143 45.3233 14.6375C44.6106 13.747 43.535 12.4495 42.6419 11.3797C42.5572 11.2782 42.4741 11.1787 42.393 11.0817L46.5655 11.1128C47.0277 11.4358 47.6672 12.0464 48.2536 12.7611C48.582 13.1614 48.8691 13.5646 49.0791 13.9249C49.3012 14.3059 49.3903 14.5604 49.4074 14.6803C49.4788 15.1807 49.9196 15.5444 50.4244 15.5195C50.9293 15.4947 51.3322 15.0895 51.3541 14.5845C51.4415 12.5709 51.4213 10.2859 51.3784 8.48447L56.0943 15.0986C56.1544 15.1858 56.2291 15.2642 56.3174 15.3295C56.3655 15.3652 56.4166 15.3963 56.47 15.4224C56.6137 15.4929 56.768 15.5252 56.9202 15.522C57.0021 15.5204 57.0846 15.5084 57.1659 15.4855C57.3725 15.4274 57.5608 15.3013 57.6948 15.1153C57.6949 15.1152 57.6949 15.1151 57.695 15.115ZM55.8624 11.4016L55.7642 6.18833L52.1725 6.22653L55.8624 11.4016ZM49.4132 8.2005L48.2059 9.91185C48.6301 10.2712 49.0625 10.7059 49.4574 11.1552C49.455 10.1865 49.4392 9.24451 49.4185 8.40769C49.4168 8.33786 49.415 8.26878 49.4132 8.2005ZM39.3363 9.82959C37.5635 12.5182 36.8337 15.372 36.8989 17.3321C36.9324 18.3361 37.1488 19.4996 37.5798 20.7145L37.5858 18.0722C37.5858 18.0708 37.5858 18.0695 37.5858 18.0681C37.5859 18.0246 37.5889 17.9815 37.5946 17.939C37.5983 17.9116 37.6032 17.8845 37.6091 17.8578L39.3236 9.88159C39.3274 9.86408 39.3316 9.84674 39.3363 9.82959ZM38.5654 17.0916H38.5645V18.0703L38.0476 18.9014L38.0497 18.9027C38.2026 18.9973 38.3805 19.049 38.5645 19.049M39.5393 19.8293L39.5343 22.0234L43.0694 22.0252L39.5393 19.8293ZM46.4918 23.9845L39.2464 23.9806C41.6866 27.5507 46.1977 30.7408 53.5647 30.843C59.6589 30.9275 63.8892 28.8196 66.6209 25.9852C67.1225 25.4647 67.5751 24.9182 67.9804 24.354L57.2224 27.9852C57.1437 28.0126 57.0609 28.0302 56.9756 28.0367C56.9508 28.0386 56.9257 28.0396 56.9005 28.0396C56.8993 28.0396 56.8982 28.0396 56.897 28.0396H50.3777C49.8372 28.0396 49.399 27.6014 49.399 27.0609V23.2375C49.048 23.4114 48.7006 23.5388 48.3953 23.6327C47.9065 23.7831 47.4541 23.8695 47.1255 23.9186C46.9601 23.9434 46.8232 23.9591 46.7253 23.9687C46.6763 23.9736 46.6369 23.9769 46.6083 23.9791L46.5736 23.9817L46.5678 23.982C46.555 23.9829 46.5422 23.9836 46.5293 23.984C46.5382 23.9837 46.5471 23.9833 46.5561 23.9828L46.4987 23.0057M51.3564 23.295V26.0821H54.3892L51.3564 23.295ZM57.8793 27.0523V25.6975L62.9247 23.9945C63.7868 24.0028 64.7803 24.0153 65.6968 24.0277C66.4937 24.0385 67.2301 24.0493 67.7673 24.0575L68.1837 24.0638M69.6561 21.3403C70.3446 19.6762 70.6913 17.9881 70.7327 16.4565C70.8926 10.5307 65.0395 2.32821 53.7404 2.475M69.6561 21.3403L69.6924 18.0812C69.6925 18.0728 69.6925 18.0643 69.6923 18.0559C69.6915 17.9894 69.6838 17.9226 69.6691 17.8566L67.9057 9.92242C67.8272 9.56952 67.5606 9.28859 67.2123 9.19179C67.1106 9.16353 67.0068 9.15231 66.9046 9.1571L60.1172 9.10858M66.4001 12.1706C65.1664 13.5487 64.1327 14.8584 63.5887 15.8895C63.413 16.2226 63.3076 16.4919 63.2574 16.6984C63.2199 16.8529 63.2214 16.9387 63.2253 16.975C63.2268 16.9759 63.2285 16.9768 63.2302 16.9778C63.2939 17.0128 63.4642 17.0756 63.8196 17.0911L63.8213 17.0912C65.6054 17.1722 66.7754 17.1774 67.5093 17.1608L66.4001 12.1706ZM57.8793 23.2495V25.6975L57.1363 25.9483M57.8793 23.2495C57.9653 23.2884 58.0527 23.3258 58.1411 23.3616C59.0644 23.7361 60.2028 23.9845 61.3078 23.9845C61.7175 23.9845 62.2849 23.9884 62.9247 23.9945L67.6869 22.3871M46.4918 23.9845L46.4982 23.9845C46.5086 23.9845 46.519 23.9843 46.5293 23.984C46.5168 23.9844 46.5043 23.9845 46.4918 23.9845ZM39.543 18.1754L39.6661 17.6029ZM39.776 17.0916H38.5654ZM39.776 17.0916H43.5014C43.7964 17.0916 44.0065 17.0415 44.1358 16.9838C44.1983 16.9559 44.2351 16.9293 44.2547 16.9119C44.2732 16.8954 44.2782 16.8856 44.2794 16.8833L44.2794 16.8832C44.2804 16.8812 44.2852 16.8717 44.287 16.8464C44.289 16.8191 44.2878 16.766 44.2658 16.682C44.22 16.5076 44.0926 16.2325 43.795 15.8606C43.0964 14.9877 42.0326 13.7042 41.1392 12.6341C41.0288 12.5018 40.921 12.3728 40.817 12.2485L39.776 17.0916ZM51.3564 21.0738V21.0662H50.3777" fill="#4E4A79"/>
</svg>
