<svg width="76" height="76" viewBox="0 0 76 76" fill="none" xmlns="http://www.w3.org/2000/svg">
<path d="M36.3664 0.178039C36.2662 0.182591 35.8884 0.209899 35.5242 0.237213C27.7628 0.792578 20.3336 3.78792 14.3611 8.768C8.90308 13.3156 4.87895 19.2244 2.68935 25.8887C1.77436 28.6747 1.23265 31.3423 0.941314 34.4696C0.877584 35.1797 0.859375 35.7988 0.859375 37.5878C0.859375 39.9732 0.895792 40.6196 1.13251 42.4587C2.19316 50.6754 5.91229 58.2138 11.8074 64.1043C15.2397 67.5366 19.1591 70.1905 23.6203 72.0934C27.039 73.5546 30.7991 74.5197 34.5227 74.8884C45.8895 76.0219 57.0515 71.9841 65.0223 63.8494C69.6883 59.0878 72.9477 53.3202 74.5819 46.9198C75.1555 44.6756 75.4878 42.618 75.6835 40.0688C75.7564 39.1128 75.7518 36.0902 75.679 35.1297C75.3467 30.7368 74.4681 27.0086 72.8293 23.0664C72.4287 22.0968 71.3817 19.9755 70.8264 19.015C65.737 10.1564 57.4248 3.82889 47.542 1.28877C45.2932 0.710645 43.1355 0.378331 40.4406 0.191692C39.8488 0.150722 36.8216 0.141621 36.3664 0.178039ZM63.9981 37.1144C66.0011 40.7197 67.649 43.6878 67.6535 43.7151C67.6626 43.7378 66.8751 43.756 65.5732 43.756H63.4746L63.1468 43.096L62.8145 42.4359H60.3245H57.8299L57.5021 43.096L57.1698 43.756H55.0622H52.9545L53.0865 43.5148C53.1594 43.3873 53.8604 42.1218 54.6434 40.7061C57.6615 35.248 60.2926 30.5547 60.3336 30.5547C60.3473 30.5547 61.9951 33.5091 63.9981 37.1144ZM11.953 31.6746C12.5858 32.2299 14.0288 33.4863 15.1532 34.4696L17.2017 36.2541L17.2154 33.8824L17.2245 31.5107H19.2274H21.2304V38.0931C21.2304 44.3251 21.2258 44.6756 21.153 44.6164C21.1075 44.58 19.6508 43.3145 17.9073 41.8032L14.7435 39.0536L14.7299 41.4026L14.7208 43.756H12.7178H10.7148V37.1964C10.7148 33.2086 10.7331 30.6458 10.7558 30.6549C10.7786 30.6594 11.3157 31.1237 11.953 31.6746ZM28.8325 37.6425V43.756H26.8296H24.8266V37.6334V31.5107L26.8296 31.5198L28.8325 31.5334V37.6425ZM35.0963 34.242C35.8429 35.7442 36.462 36.9733 36.4756 36.9733C36.4893 36.9733 37.1175 35.7442 37.8686 34.242L39.2342 31.5107H41.3601C42.5346 31.5107 43.4905 31.5198 43.4905 31.5334C43.4905 31.5562 43.1355 32.2254 39.1113 39.7501C36.462 44.7029 36.5075 44.621 36.4756 44.621C36.4483 44.621 29.5472 31.6746 29.5244 31.5744C29.5108 31.5198 29.8431 31.5107 31.6276 31.5107H33.7489L35.0963 34.242ZM52.0031 33.1039V34.6517H50.0684H48.1338V35.4938V36.336L50.0593 36.3451L51.9804 36.3588L51.994 37.5059L52.0031 38.6576H50.0684H48.1338V39.6136V40.5695H50.0684H52.0031V42.1628V43.756H48.0655H44.1278V37.6561V31.5562H48.0655H52.0031V33.1039Z" fill="#0F0E9A"/>
<path d="M58.6855 37.2038C58.0878 38.3784 57.5977 39.3605 57.5977 39.3862C57.5977 39.4182 58.578 39.4375 59.78 39.4375C60.982 39.4375 61.9623 39.4182 61.9623 39.3862C61.9623 39.3605 61.5057 38.4298 60.9484 37.3193C60.3911 36.2089 59.921 35.2461 59.9009 35.1819C59.8807 35.1242 59.8472 35.0728 59.8203 35.0728C59.7934 35.0728 59.2831 36.0356 58.6855 37.2038Z" fill="#0F0E9A"/>
</svg>
