<svg width="95" height="53" viewBox="0 0 95 53" fill="none" xmlns="http://www.w3.org/2000/svg">
<path d="M21.5879 2.1307V3.98503L23.4293 4.02366L25.2579 4.06229L25.2965 8.65947L25.3223 13.2695H27.769H30.2157V8.83975C30.2157 6.40595 30.2543 4.31984 30.2929 4.20394C30.3573 4.02366 30.6535 3.99791 32.1601 3.99791H33.9501V2.1307V0.263502H27.769H21.5879V2.1307Z" fill="black"/>
<path d="M37.4378 0.842978C37.2961 1.15203 37.1673 1.49972 37.1673 1.58986C37.1673 1.68 37.0514 2.00193 36.9098 2.29811C36.7681 2.58141 36.6522 2.90334 36.6522 3.00636C36.6522 3.0965 36.6007 3.22527 36.5492 3.28966C36.4848 3.36692 36.3046 3.79187 36.15 4.25545C35.9955 4.71903 35.8152 5.20837 35.7637 5.35002C35.4933 6.00676 34.5532 8.47919 34.4374 8.82688C34.2828 9.27758 34.2056 9.50937 33.845 10.3721C33.7033 10.7198 33.4844 11.2736 33.3685 11.5955C33.2526 11.9174 33.0724 12.3681 32.9693 12.5999C32.8663 12.8317 32.7891 13.0764 32.7891 13.1408C32.7891 13.218 33.742 13.2695 35.2229 13.2695H37.6567L37.9142 12.6514C38.1846 12.0204 39.2663 8.814 39.82 6.99831C40.245 5.60756 40.5283 5.45304 40.773 6.45746C40.8889 6.97255 41.2752 8.09287 41.4297 8.40193C41.4941 8.5307 41.5456 8.73674 41.5456 8.86551C41.5456 8.99428 41.5971 9.14881 41.6486 9.22607C41.713 9.29046 41.8289 9.59951 41.9319 9.92144C42.0221 10.2434 42.241 10.9001 42.4084 11.4023C42.5887 11.8917 42.7689 12.5098 42.8076 12.7544L42.8977 13.2051L45.4474 13.2438C46.8382 13.2567 47.9842 13.2438 47.9842 13.2051C47.9842 13.1665 47.8941 12.9218 47.7782 12.6514C47.6494 12.3939 47.5464 12.1106 47.5335 12.0333C47.5078 11.9432 47.2631 11.2864 46.9798 10.5524C46.2716 8.73674 45.074 5.58181 44.6361 4.31984C44.4301 3.75324 44.0052 2.62004 43.6832 1.80877L43.1166 0.327888L40.4124 0.289255L37.7082 0.263502L37.4378 0.842978Z" fill="black"/>
<path d="M46.8531 2.09207L46.8917 3.93352L48.6044 3.95927C49.5573 3.97215 50.3686 4.01078 50.4072 4.06229C50.4587 4.1138 50.4973 4.53875 50.4973 5.00233C50.4973 5.47879 50.5102 7.52627 50.536 9.57376L50.5617 13.2695L53.047 13.2438L55.5195 13.2051L55.5452 8.76249C55.571 6.31581 55.5839 4.24257 55.5839 4.15243C55.5839 4.03654 56.0217 3.99791 57.3609 3.99791H59.138L59.1251 2.15646V0.327888L52.9698 0.289255L46.8145 0.263502L46.8531 2.09207Z" fill="black"/>
<path d="M62.794 0.521047C62.794 0.64982 62.7296 0.933119 62.6524 1.12628C62.5751 1.31944 62.4592 1.60274 62.4077 1.74439C62.3562 1.88604 62.2403 2.16934 62.1502 2.38825C62.06 2.59428 61.9441 2.89046 61.8926 3.03211C61.8411 3.17376 61.6093 3.77899 61.3775 4.38422C61.1457 4.98945 60.9011 5.6462 60.8367 5.86511C60.7594 6.07114 60.592 6.49609 60.4632 6.79227C60.3216 7.10132 60.2186 7.42326 60.2186 7.5134C60.2186 7.61642 60.1799 7.73231 60.1284 7.78382C60.064 7.83533 60.0254 7.92547 60.0254 7.9641C60.0254 8.01561 59.8966 8.37617 59.7421 8.76249C59.5876 9.14881 59.227 10.076 58.9437 10.81C58.6475 11.544 58.4157 12.2522 58.4157 12.381C58.4157 12.5098 58.3642 12.6257 58.287 12.6257C58.2226 12.6257 58.1582 12.7673 58.1582 12.9476V13.2695H60.4632C61.7381 13.2695 62.8584 13.2309 62.9743 13.1923C63.0902 13.1408 63.1803 12.9605 63.1803 12.7544C63.1803 12.5484 63.219 12.3681 63.2834 12.3424C63.3349 12.3166 63.5667 11.6985 63.8113 10.9516C64.0431 10.2047 64.2878 9.49649 64.3522 9.3806C64.4165 9.25183 64.4681 9.03291 64.4681 8.90414C64.4681 8.76249 64.5324 8.60796 64.5968 8.56933C64.6741 8.5307 64.7256 8.3633 64.7256 8.19589C64.7256 8.04136 64.7771 7.86108 64.8286 7.78382C64.893 7.71943 65.0089 7.41038 65.1119 7.08845C65.3695 6.19992 65.5497 5.80072 65.6785 5.83935C65.7429 5.86511 65.8846 6.16129 65.9876 6.50897C66.1035 6.86953 66.2451 7.16571 66.2966 7.19147C66.3481 7.21722 66.3996 7.3975 66.3996 7.59066C66.3996 7.78382 66.4512 7.98986 66.5027 8.06712C66.5671 8.13151 66.6829 8.44056 66.7731 8.76249C66.9405 9.32909 67.1465 9.96008 67.623 11.2736C67.7518 11.6212 67.8805 12.0719 67.9063 12.278C67.9449 12.4711 68.0222 12.6643 68.0866 12.7029C68.151 12.7416 68.2025 12.8832 68.2025 13.0249C68.2025 13.2567 68.3184 13.2695 70.7135 13.2695C72.0914 13.2695 73.2246 13.2309 73.2246 13.1665C73.2246 13.012 72.8898 12.1235 72.7996 12.0333C72.7481 11.9818 72.7095 11.8659 72.7095 11.7629C72.7095 11.6728 72.6065 11.3508 72.4648 11.0418C72.3361 10.7456 72.1687 10.3206 72.0914 10.1146C72.0141 9.89569 71.924 9.61239 71.8596 9.47074C71.5892 8.73674 71.1514 7.53915 70.7779 6.50897C70.5461 5.86511 70.3143 5.28563 70.2757 5.22125C70.2242 5.14398 70.0954 4.83493 70.0053 4.513C69.9023 4.19106 69.7864 3.90777 69.7477 3.86913C69.7091 3.8305 69.5417 3.36692 69.3743 2.83895C69.0524 1.88604 68.9751 1.68 68.7176 1.16491C68.6532 1.02326 68.5888 0.804346 68.5888 0.662696C68.5888 0.533923 68.4986 0.379397 68.3827 0.340765C68.2668 0.302133 66.9662 0.263502 65.4854 0.263502C62.897 0.263502 62.794 0.276379 62.794 0.521047Z" fill="black"/>
<path d="M5.19457 19.979C3.39175 20.4168 1.74347 21.6916 1.00946 23.2369C0.455739 24.3959 0.352721 24.9367 0.339844 26.5464C0.339844 29.2248 1.35715 31.0019 3.49477 32.045C4.74387 32.6502 5.28471 32.7403 7.17767 32.6888C9.13501 32.6244 9.95916 32.4184 9.89477 32.0063C9.86902 31.8647 9.83038 31.5041 9.77888 31.1951C9.74024 30.8989 9.63723 30.6542 9.55996 30.6542C9.4827 30.6542 8.90322 30.7443 8.28511 30.8731C7.30644 31.0534 7.03602 31.0663 6.28914 30.9246C3.71369 30.4224 2.36157 28.4393 2.67063 25.6063C2.82515 24.1641 3.03119 23.7005 3.86821 22.8506C4.4992 22.2325 4.7825 22.0393 5.29759 21.9106C5.65815 21.8204 6.16036 21.6916 6.41791 21.6144C6.90725 21.4727 7.69276 21.5242 8.71006 21.7689C9.03199 21.8462 9.3668 21.9234 9.46982 21.9363C9.71449 21.9749 10.0879 20.6615 9.90765 20.3653C9.84326 20.2623 9.58572 20.1077 9.34105 20.0433C8.73582 19.8759 5.78692 19.8244 5.19457 19.979Z" fill="black"/>
<path d="M15.4063 19.9773C13.7967 20.4409 12.4446 21.5354 11.7749 22.9133C11.144 24.2268 11.144 24.2397 10.9379 26.1455C10.8349 27.1628 11.1826 28.6694 11.7621 29.8155C12.0711 30.4336 13.1528 31.6827 13.3717 31.6827C13.4232 31.6827 13.5906 31.7986 13.7194 31.9274C14.1572 32.3652 15.5609 32.7129 16.8615 32.7129C18.059 32.7129 18.4454 32.6356 19.6429 32.1205C20.5057 31.76 21.6647 30.6525 22.0896 29.7898C22.2442 29.4549 22.4373 29.0686 22.5017 28.9527C22.5661 28.824 22.6176 28.5793 22.6176 28.399C22.6176 28.2187 22.682 28.0771 22.7464 28.0771C22.9267 28.0771 22.9138 24.7934 22.7335 24.2268C22.1025 22.2437 21.2397 21.1491 19.7202 20.4022C18.8188 19.9644 18.6772 19.9258 17.3122 19.8871C16.5138 19.8614 15.651 19.9 15.4063 19.9773ZM18.2651 21.8059C18.6385 21.9733 19.1407 22.3209 19.3596 22.5785C19.8747 23.1708 20.4285 24.3555 20.4285 24.8706C20.4285 25.0896 20.4928 25.3857 20.5701 25.5274C20.686 25.7334 20.686 26.0811 20.5572 26.9052C20.4027 28.0256 20.3641 28.1672 20.0035 28.9785C19.0377 31.2063 16.0888 31.7213 14.5178 29.9314C13.7194 29.03 13.346 27.871 13.346 26.3258C13.3588 24.6775 13.7838 23.3898 14.6208 22.5012C15.5222 21.5226 17.0031 21.2521 18.2651 21.8059Z" fill="black"/>
<path d="M33.0889 24.3704C33.1276 26.8686 33.1662 29.032 33.192 29.1736C33.2177 29.3153 33.192 29.4569 33.1404 29.4955C33.0117 29.5728 32.8571 29.2895 32.2133 27.8859C31.9557 27.3193 31.4793 26.4179 31.1702 25.8899C30.8483 25.3619 30.5392 24.834 30.4749 24.731C30.4105 24.6279 30.1272 24.1644 29.8567 23.7008C29.5734 23.2372 29.1871 22.5676 28.9811 22.2199C28.7879 21.8593 28.4402 21.2927 28.1956 20.945C27.9638 20.6102 27.7706 20.2497 27.7706 20.1467C27.7706 20.005 27.4873 19.9664 26.4185 19.9664H25.0664V26.2762C25.0664 29.7402 25.105 32.5861 25.1694 32.5861C25.2209 32.5861 25.6459 32.6118 26.1352 32.6376L26.998 32.6891V27.8086C26.998 23.5591 27.0237 22.9281 27.1912 22.9281C27.2942 22.9281 27.3843 23.0183 27.3843 23.1213C27.3843 23.2243 27.5131 23.5205 27.6547 23.7909C27.8093 24.0613 28.2085 24.8082 28.5561 25.465C28.9038 26.1217 29.4189 27.036 29.7022 27.4996C29.9855 27.9631 30.2173 28.401 30.2173 28.4654C30.2173 28.5426 30.2688 28.5941 30.3203 28.5941C30.3718 28.5941 30.4877 28.7487 30.565 28.9418C30.6551 29.1479 30.7968 29.4183 30.8869 29.5599C31.196 30.0493 31.9557 31.3627 32.136 31.7104C32.239 31.9165 32.3678 32.071 32.4322 32.071C32.4837 32.071 32.5352 32.1611 32.5352 32.2642C32.5352 32.5861 33.0246 32.7277 33.9903 32.6891L34.9175 32.6505V26.2762V19.902L33.9775 19.8634L33.0374 19.8247L33.0889 24.3704Z" fill="black"/>
<path d="M40.387 19.9902C40.1423 20.0803 39.9105 20.1704 39.8719 20.2091C39.8333 20.2477 39.7045 20.2992 39.5757 20.325C39.125 20.4022 38.1335 21.368 37.8759 21.9861C37.76 22.2437 37.6828 22.8489 37.6828 23.3898C37.6828 24.4071 37.8888 24.9479 38.5584 25.6819C38.9447 26.094 41.0952 27.1757 41.5331 27.1757C41.6747 27.1757 41.8035 27.2272 41.8035 27.3044C41.8035 27.3688 41.8679 27.4332 41.9451 27.4332C42.0224 27.4332 42.3057 27.5877 42.589 27.7809C43.9153 28.7338 43.4518 30.498 41.7648 30.9101C41.3785 31.0002 40.8763 31.0388 40.6316 31.0002C39.6401 30.8586 38.6357 30.6139 38.3009 30.4465C38.0819 30.3306 37.9274 30.3177 37.8759 30.395C37.7085 30.6783 37.4252 31.9918 37.5153 32.0819C37.5669 32.1334 38.0304 32.3008 38.5327 32.4425C39.2023 32.6356 39.8075 32.7129 40.7862 32.7129C42.2155 32.7129 42.795 32.5712 43.851 31.9918C44.5978 31.5668 44.7652 31.438 44.9198 31.1032C44.9842 30.9616 45.1516 30.6397 45.2932 30.395C45.6795 29.6996 45.628 28.3217 45.2031 27.459C44.7524 26.5447 44.1986 26.1326 42.383 25.3471C41.5331 24.9737 40.6188 24.4714 40.3612 24.2268C39.9234 23.8405 39.8719 23.7374 39.8719 23.1708C39.8719 22.6944 39.9363 22.4883 40.1681 22.2823C40.9149 21.5612 42.0353 21.3551 43.2844 21.7028C44.6751 22.0892 44.5592 22.1278 44.8039 21.3423C44.9198 20.9688 45.0228 20.5954 45.0228 20.5181C45.0228 20.4537 44.8039 20.2863 44.5463 20.1576C43.9411 19.8743 41.1081 19.7584 40.387 19.9902Z" fill="black"/>
<path d="M47.7168 20.0288C47.7168 20.0932 47.7168 22.0634 47.7297 24.3813C47.7554 28.9141 47.8069 29.4292 48.4379 30.6268C48.8371 31.3994 48.9659 31.5411 49.6226 31.9789C50.3953 32.5069 51.2194 32.7129 52.5973 32.7129C54.2584 32.7129 55.0826 32.4167 56.0741 31.438C56.7953 30.7427 56.8983 30.5495 57.3619 29.0944C57.4649 28.7853 57.5164 27.2143 57.5164 24.2654V19.9H56.4862C55.9196 19.9 55.4432 19.9 55.4303 19.9C55.4174 19.9 55.3659 21.896 55.3273 24.3427C55.2757 26.7894 55.1985 28.9527 55.1341 29.1716C54.9796 29.764 54.31 30.5366 53.7305 30.7942C53.0866 31.0904 52.2625 31.1032 51.6315 30.8457C50.949 30.5624 50.7043 30.3048 50.2922 29.4292L49.9188 28.6566V24.4071C49.9188 22.0634 49.8673 20.0932 49.8158 20.0288C49.7643 19.9515 49.2749 19.9 48.7341 19.9C48.1546 19.9 47.7297 19.9515 47.7168 20.0288Z" fill="black"/>
<path d="M61.0561 20.1208C60.9917 20.4685 60.9145 21.3828 60.7342 24.1514C60.6698 25.2846 60.5539 26.9973 60.4767 27.9502C60.3994 28.9031 60.3093 30.3582 60.2706 31.1695L60.1934 32.6504L61.1334 32.6246L62.0863 32.6118L62.1893 32.1739C62.2795 31.7876 62.434 29.019 62.6529 24.1772C62.7302 22.2713 62.9105 21.7176 63.0779 22.8508C63.1165 23.1727 63.1938 23.4947 63.2453 23.5719C63.3354 23.7136 63.374 23.9067 63.5157 24.7695C63.5543 25.0271 63.6445 25.2846 63.7089 25.3232C63.7732 25.3619 63.8247 25.5164 63.8247 25.658C63.8247 25.9156 63.9793 26.4693 64.2111 27.1132C64.2626 27.2548 64.3785 27.6283 64.4686 27.9502C64.5588 28.2721 64.6746 28.6456 64.7262 28.7872C64.9451 29.4053 65.1253 29.959 65.1769 30.2037C65.267 30.6029 65.6404 31.8391 65.7692 32.1739C65.8722 32.4444 65.9495 32.4701 66.735 32.4315C67.6622 32.3928 67.675 32.38 67.9326 31.4914C68.0227 31.2081 68.1386 30.8605 68.1901 30.7188C68.2545 30.5772 68.3704 30.2295 68.4477 29.9462C68.5378 29.6629 68.6537 29.3152 68.7181 29.1735C68.7696 29.0319 68.8984 28.6584 68.9885 28.3365C69.0787 28.0146 69.1817 27.6926 69.2332 27.6283C69.2847 27.551 69.3877 27.2419 69.4779 26.92C69.568 26.5981 69.6968 26.2375 69.7612 26.1216C69.8255 25.9928 69.8771 25.7739 69.8771 25.6452C69.8771 25.5035 69.9414 25.349 70.0058 25.3104C70.0831 25.2717 70.1346 25.0657 70.1346 24.8468C70.1346 24.6407 70.199 24.4733 70.2634 24.4733C70.3406 24.4733 70.3921 24.3059 70.3921 24.0999C70.3921 23.881 70.4565 23.6749 70.5209 23.6363C70.5982 23.5977 70.6497 23.353 70.6497 23.1083C70.6497 22.825 70.727 22.6319 70.8429 22.5804C70.9587 22.5417 71.0746 22.5289 71.1004 22.5675C71.1262 22.5933 71.2163 24.293 71.3064 26.3405C71.3837 28.4009 71.4738 30.6544 71.5125 31.3627L71.564 32.6504L72.6199 32.6375L73.6759 32.6246L73.6501 31.9937C73.5857 30.4097 73.2638 24.924 73.0191 21.0222L72.9418 19.8375H71.5253C70.2247 19.8375 70.1088 19.8633 70.0445 20.0951C70.0058 20.2367 69.9286 20.3526 69.8771 20.3526C69.8255 20.3526 69.7354 20.5458 69.6968 20.7647C69.4907 21.782 69.4521 21.8979 69.3491 21.8979C69.2847 21.8979 69.2332 22.0267 69.2332 22.1941C69.2332 22.3615 69.1817 22.5417 69.1302 22.6061C69.0658 22.6834 68.834 23.3401 68.6022 24.087C68.3575 24.8339 68.1258 25.555 68.0614 25.6967C67.9197 26.0444 67.263 28.4138 67.1084 29.1735L67.0183 29.5598L66.7865 29.1091C66.6449 28.8645 66.5418 28.4782 66.529 28.2464C66.529 28.0275 66.4775 27.7957 66.4002 27.757C66.3358 27.7184 66.2714 27.5252 66.2714 27.345C66.2714 27.023 65.8336 25.5164 65.6147 25.0914C65.5503 24.9627 65.4988 24.7695 65.4988 24.6407C65.4988 24.4476 65.1253 23.25 64.8549 22.6061C64.8034 22.4645 64.6746 22.091 64.5845 21.7691C64.4944 21.4472 64.3785 21.1381 64.3141 21.0737C64.2626 20.9965 64.2111 20.8419 64.2111 20.7132C64.2111 20.5973 64.1467 20.3397 64.0565 20.1594C63.9149 19.8375 63.8891 19.8375 62.5241 19.8375C61.172 19.8375 61.1205 19.8504 61.0561 20.1208Z" fill="black"/>
<path d="M76.1855 26.2743V32.7129H79.9843H83.7831V31.8244C83.7831 31.129 83.7316 30.923 83.5771 30.8586C83.4612 30.8199 82.2507 30.7813 80.8729 30.7813H78.3747V28.8497V26.9181H80.8214H83.2809L83.2423 26.0425L83.2037 25.1797H80.8214H78.4391L78.4004 23.467L78.3618 21.7672H80.9501H83.5256V20.8014V19.8356H79.8556H76.1855V26.2743Z" fill="black"/>
<path d="M86.6571 19.9277L85.9746 19.9792V26.3148V32.6504L87.0692 32.6118L88.1637 32.5731V30.0106C88.1637 27.1776 88.1251 27.3063 89.0652 27.3063C89.6961 27.3063 90.7392 27.654 90.9581 27.9373C91.3058 28.3623 91.6277 29.0705 91.7565 29.7015C91.9883 30.8089 92.2458 31.7619 92.4261 32.1482C92.5935 32.5087 92.6579 32.5216 93.6237 32.586C94.1774 32.6246 94.6539 32.6118 94.6796 32.5602C94.7183 32.5087 94.6152 32.0194 94.4607 31.4657C94.3062 30.912 94.1388 30.2295 94.0873 29.9462C93.8169 28.5425 93.0571 27.1003 92.4905 26.8814C92.2587 26.7912 92.2072 26.4049 92.439 26.4049C92.7352 26.4049 93.4821 25.7095 93.907 25.0399C94.2933 24.4347 94.3448 24.2544 94.3448 23.4818C94.3448 22.2713 94.1517 21.6918 93.5336 21.0351C93.1086 20.5973 92.7738 20.4041 92.0527 20.1595C91.1899 19.8633 90.9195 19.8375 89.2197 19.8633C88.1766 19.8762 87.0177 19.9019 86.6571 19.9277ZM90.7134 21.4987C90.9839 21.576 91.3959 21.8464 91.6406 22.091C92.0527 22.516 92.0913 22.619 92.1299 23.4818C92.1686 24.3832 92.1557 24.4218 91.7436 24.8725C91.0482 25.6323 90.7649 25.7353 89.4386 25.7868L88.2281 25.8254L88.1895 23.7651C88.1766 22.6448 88.1766 21.6532 88.2153 21.576C88.2796 21.3828 90.0825 21.3313 90.7134 21.4987Z" fill="black"/>
<path d="M3.1201 39.231C2.93982 39.4113 2.91406 40.1581 2.91406 45.6052V51.7734H3.94424H4.97442L5.00018 49.4813L5.03881 47.202L5.61829 47.1763C8.74746 47.0089 10.37 46.2105 11.0782 44.5107C11.3744 43.7895 11.3615 41.9223 11.0396 41.1883C10.679 40.3513 9.37845 39.2825 8.73458 39.2825C8.59293 39.2825 8.42553 39.2181 8.3869 39.1537C8.33539 39.0765 7.33096 39.025 5.81145 39.025C3.71245 39.025 3.2875 39.0636 3.1201 39.231ZM8.07784 41.0209C8.81185 41.4845 9.09515 42.0254 9.09515 42.9268C9.09515 43.9312 8.77321 44.5364 8.03921 44.9099C6.94464 45.4507 5.63116 45.5795 5.14183 45.1803C5.01306 45.0773 4.97442 44.472 4.97442 42.9525C4.97442 41.8064 5.01306 40.8278 5.06456 40.7891C5.1032 40.7376 5.68267 40.699 6.35229 40.699C7.4211 40.699 7.61426 40.7376 8.07784 41.0209Z" fill="black"/>
<path d="M13.8976 39.1678L13.4727 39.2965V45.5291V51.7746H14.5672H15.6618V49.1991V46.6237H16.7435C17.632 46.6237 17.8896 46.6752 18.2501 46.907C18.7395 47.2289 19.3833 48.4008 19.3962 48.9673C19.3962 49.1605 19.4477 49.4438 19.5121 49.6112C19.5765 49.7786 19.6924 50.1649 19.7825 50.4869C20.156 51.8519 20.0658 51.7746 21.2891 51.7746H22.3837L22.2936 51.4269C22.2549 51.2209 22.1777 50.8732 22.139 50.6414C22.1004 50.4225 22.0232 50.2293 21.9716 50.2293C21.9201 50.2293 21.8429 49.9847 21.7914 49.6756C21.6626 48.5939 21.5596 48.169 21.4437 48.169C21.3793 48.169 21.3278 48.0144 21.3278 47.8084C21.3278 47.3963 20.4908 46.2374 20.0658 46.0442C19.731 45.8897 19.7052 45.748 20.0143 45.6321C20.6968 45.3875 21.8429 44.0997 21.8429 43.5718C21.8429 43.4301 21.9073 43.2627 21.9845 43.1855C22.1262 43.0438 22.0875 42.2583 21.9073 41.3826C21.8042 40.8933 20.9543 39.876 20.4264 39.6056C19.4477 39.1034 18.9841 39.0261 16.6276 39.039C15.3527 39.039 14.1165 39.1034 13.8976 39.1678ZM18.469 40.7645C19.3061 41.1251 19.9113 41.9235 19.9113 42.6961C19.9113 43.1468 19.5507 43.9066 19.1644 44.2672C18.5978 44.7822 18.0441 44.9496 16.8079 44.9496H15.6747L15.636 42.8893C15.5974 40.9062 15.6103 40.816 15.8549 40.7645C15.9966 40.7388 16.2284 40.6873 16.37 40.6615C16.9753 40.5327 18.0183 40.5843 18.469 40.7645Z" fill="black"/>
<path d="M28.1551 39.1536C28.0521 39.218 27.8332 39.2824 27.6787 39.2824C27.5113 39.2824 27.3825 39.3339 27.3825 39.4112C27.3825 39.4755 27.3052 39.5399 27.2151 39.5399C26.5197 39.5399 24.9744 41.0594 24.4207 42.2957C24.2018 42.7592 24.0344 43.2486 24.0344 43.3774C24.0344 43.5061 23.97 43.6735 23.8928 43.7508C23.7511 43.8924 23.8026 46.8928 23.97 47.6269C24.0215 47.8715 24.2533 48.451 24.4851 48.9146C25.1032 50.1637 26.0175 50.9878 27.5113 51.6188C28.2324 51.9279 30.473 52.1468 30.473 51.915C30.473 51.8377 30.7048 51.7733 30.9881 51.7733C31.2714 51.7733 31.6062 51.7218 31.735 51.6574C31.8509 51.593 32.2243 51.4128 32.572 51.2711C32.9068 51.1166 33.1773 50.9363 33.1773 50.8719C33.1773 50.7947 33.2288 50.7431 33.306 50.7431C33.4863 50.7431 34.4779 49.6357 34.7869 49.082C35.5209 47.7814 35.8815 45.7339 35.6368 44.2788C35.4565 43.2357 35.4308 43.1713 34.9028 41.9995C34.3491 40.7633 33.1515 39.7588 31.6062 39.218C30.9752 38.9991 28.4642 38.9476 28.1551 39.1536ZM31.0139 41.0079C31.3873 41.1753 31.8509 41.4715 32.0312 41.6776C32.469 42.154 33.0485 43.21 33.0485 43.5319C33.0485 43.6607 33.1129 43.8152 33.1773 43.8538C33.3704 43.9697 33.3318 46.3778 33.1257 47.1633C32.9068 47.9874 32.6622 48.554 32.5076 48.554C32.4561 48.554 32.4046 48.6313 32.4046 48.7085C32.4046 48.9017 31.3744 49.8417 31.1555 49.8417C31.0783 49.8417 30.9881 49.9061 30.9624 49.9834C30.9366 50.0607 30.4859 50.1122 29.8034 50.1122C28.8247 50.1122 28.6316 50.0607 28.0779 49.7387C27.3954 49.3395 26.5455 48.3351 26.4296 47.7943C26.3909 47.614 26.3008 47.1633 26.2107 46.8156C25.9917 45.824 26.0948 43.5319 26.3652 43.5319C26.4296 43.5319 26.4811 43.4289 26.4811 43.3001C26.4811 42.6434 27.8718 40.9564 28.3998 40.9564C28.5414 40.9564 28.696 40.892 28.7346 40.8277C28.8891 40.5701 30.3056 40.686 31.0139 41.0079Z" fill="black"/>
<path d="M38.2374 39.154C37.8511 39.3085 37.8897 38.5488 37.9155 46.0691L37.9412 51.748L38.8297 51.9025C39.9887 52.0957 43.8647 51.8896 43.8647 51.6321C43.8647 51.5677 44.0064 51.5162 44.1738 51.5162C44.7146 51.5162 46.247 50.6405 46.8651 49.9838C48.0241 48.7476 48.7195 46.7001 48.5907 44.8844C48.5134 43.7641 48.2559 42.6309 48.0756 42.6309C48.0241 42.6309 48.0112 42.5665 48.0499 42.5021C48.14 42.3476 47.7022 41.5749 47.2257 41.0341C46.6849 40.4546 45.3971 39.6047 44.7662 39.4244C44.4442 39.3343 44.0064 39.2055 43.7875 39.1411C43.2853 38.9866 38.6108 38.9995 38.2374 39.154ZM43.3497 40.8667C43.6716 40.9568 44.0708 41.1242 44.2511 41.2401C44.4185 41.3689 44.6245 41.4719 44.7018 41.4719C44.9464 41.4719 45.7963 42.7983 46.0281 43.5194C46.569 45.2836 46.144 47.6272 45.0623 48.8248C44.148 49.8164 43.3754 50.1126 41.6241 50.1383L40.1947 50.1641L40.1561 45.4252L40.1303 40.6993H41.4438C42.1778 40.7122 43.0277 40.7765 43.3497 40.8667Z" fill="black"/>
<path d="M50.7793 39.1006C50.6376 39.2551 50.6762 46.8656 50.8308 47.6897C50.908 48.1276 51.1141 48.8487 51.2944 49.2865C51.6292 50.1235 52.5048 51.2567 52.8267 51.2567C52.9298 51.2567 53.007 51.3083 53.007 51.3855C53.007 51.4499 53.1229 51.5143 53.2517 51.5143C53.3933 51.5143 53.535 51.5658 53.5736 51.6302C53.8183 52.0165 57.3467 52.0165 57.5913 51.6302C57.63 51.5658 57.7974 51.5143 57.9776 51.5143C58.1451 51.5143 58.2867 51.4757 58.2867 51.4113C58.2867 51.3598 58.5056 51.1795 58.7889 51.0121C59.3813 50.6386 59.9479 49.8016 60.3342 48.7328C60.5917 47.9988 60.6046 47.7284 60.6046 43.4918V39.0233H59.51H58.4284L58.4155 43.3759C58.4155 45.771 58.364 47.9087 58.2996 48.1147C58.1193 48.7457 57.7201 49.3509 57.2179 49.7501C56.7801 50.1107 56.6642 50.1364 55.6726 50.1364C54.6038 50.1493 54.5909 50.1493 54.0758 49.66C53.5479 49.1835 53.2388 48.5396 53.0714 47.5867C52.9813 47.1231 52.9426 45.5907 52.8911 40.5944L52.8783 39.0233H51.8738C51.3201 39.0233 50.8308 39.062 50.7793 39.1006Z" fill="black"/>
<path d="M67.7521 39.1536C67.7135 39.218 67.5332 39.2824 67.3787 39.2824C66.9795 39.2824 66.1425 39.6429 66.1425 39.8103C66.1425 39.8747 66.1039 39.9133 66.0523 39.8876C65.988 39.849 65.6274 40.0421 65.2411 40.2997C64.4684 40.8147 63.6443 41.8836 63.2709 42.8622C63.1421 43.197 62.9747 43.5705 62.9103 43.6864C62.7429 44.0083 62.7686 46.9572 62.936 47.5109C63.0906 48.026 63.6057 49.1335 63.8503 49.5069C64.3139 50.2023 65.5244 51.2453 65.9493 51.3097C66.0137 51.3226 66.1425 51.3612 66.2069 51.3999C66.3872 51.5029 67.2242 51.7218 68.0869 51.9149C68.9755 52.0952 71.0873 51.9278 72.0016 51.5801C72.1433 51.5286 72.3364 51.4642 72.4395 51.4385C72.5811 51.3999 72.5682 51.3226 72.4008 51.065C72.2849 50.8976 72.1948 50.5371 72.1948 50.2795V49.8159L71.7183 49.9061C70.7397 50.0864 68.6664 50.125 68.1385 49.9576C67.237 49.6872 66.825 49.4683 66.3228 48.9789C65.8334 48.4767 65.2411 47.3306 65.2411 46.8799C65.2411 46.7383 65.2024 46.6224 65.1381 46.6224C64.8676 46.6224 65.0608 44.0469 65.3698 43.5962C65.4214 43.519 65.4986 43.3129 65.5501 43.1198C65.6531 42.6691 66.9151 41.4329 67.5332 41.1753C68.5634 40.7504 69.4519 40.6345 70.4435 40.8147C70.9457 40.9049 71.5381 41.0079 71.757 41.0465C72.1948 41.1238 72.1819 41.1496 72.4008 39.8361C72.4781 39.4498 72.4652 39.4369 71.7698 39.2308C70.9586 38.9991 67.8809 38.9347 67.7521 39.1536Z" fill="black"/>
<path d="M73.8691 39.9907V40.9565H75.672H77.4748V46.365V51.7734H78.5693H79.6639V46.365V40.9565H81.5182H83.3726L83.4241 40.0809C83.4498 39.6044 83.4112 39.1795 83.3339 39.128C83.2695 39.0765 81.1062 39.025 78.5436 39.025H73.8691V39.9907Z" fill="black"/>
<path d="M87.2358 39.1928C86.9654 39.2701 86.7464 39.3731 86.7464 39.4375C86.7464 39.489 86.6563 39.5405 86.5533 39.5405C86.2442 39.5405 85.214 40.5578 84.9307 41.1373C84.7633 41.4978 84.6861 41.9228 84.6861 42.5924C84.6861 43.7127 84.9436 44.3308 85.6776 44.936C86.167 45.3481 87.6736 46.1208 88.8454 46.5715C89.4249 46.8032 89.7855 47.0608 90.1975 47.5759C90.3907 47.8206 90.4036 48.7348 90.2104 49.0825C90.0173 49.456 89.6052 49.8423 89.412 49.8423C89.3219 49.8423 89.1802 49.9067 89.103 49.9839C88.8583 50.2286 85.7935 49.9968 85.5875 49.7135C85.5489 49.662 85.3686 49.5847 85.1754 49.5332C84.8535 49.456 84.8149 49.4946 84.699 49.9453C84.3899 51.0785 84.3899 51.1944 84.7118 51.3489C86.3859 52.1473 88.8197 52.2117 90.3521 51.4777C91.8973 50.7437 92.5412 49.7779 92.5412 48.1682C92.5412 46.9707 92.1935 46.2109 91.3436 45.5155C91.0603 45.2837 88.1372 43.9187 87.9311 43.9187C87.8668 43.9187 87.6092 43.7127 87.3517 43.468C86.9396 43.056 86.8752 42.9272 86.8752 42.3863C86.8752 41.9485 86.9525 41.7039 87.1328 41.5236C87.5577 41.0986 87.7637 40.957 87.944 40.957C88.0342 40.957 88.1758 40.8926 88.2531 40.8153C88.4076 40.6608 89.6181 40.7252 90.4165 40.9312C91.6398 41.266 91.614 41.266 91.6913 40.9312C91.7428 40.7767 91.8458 40.4161 91.9231 40.1457C92.0004 39.8882 92.039 39.6306 92.0004 39.6049C91.9617 39.5662 91.614 39.4117 91.2406 39.2829C90.6998 39.0769 90.2491 39.0254 89.1287 39.0383C88.3561 39.0511 87.4933 39.1155 87.2358 39.1928Z" fill="black"/>
</svg>
