<svg width="75" height="83" viewBox="0 0 75 83" fill="none" xmlns="http://www.w3.org/2000/svg">
<path d="M30.0493 80.3385C30.6827 80.3385 31.7719 80.1332 32.6288 78.7604C32.1388 77.6716 31.7901 75.4715 31.7399 74.6708C31.4873 70.5735 33.0661 66.7191 34.7947 66.6134C36.0607 66.5369 37.0741 67.7357 37.1909 69.6771C37.5015 74.7826 35.8021 76.9144 34.9516 78.7515C35.0954 79.4646 36.3031 80.678 37.4442 80.678C37.8655 80.678 38.3754 80.467 38.5032 80.2962C38.4178 80.0022 38.3324 79.6211 38.3324 79.0703C38.3324 76.112 40.2346 73.6183 41.8828 73.6183C43.193 73.6183 43.9531 75.3508 43.9531 76.4941C43.9531 77.8445 42.8119 78.9458 41.1224 80.0026C41.4192 80.2962 41.9661 80.51 42.4326 80.51C44.843 80.51 46.1048 77.5929 47.0392 74.9295C47.2082 74.4207 47.5046 73.7026 48.0949 73.7026C49.1105 73.7026 49.5339 80.3805 51.2202 80.3805C51.94 80.3805 52.5314 78.9002 52.5314 77.7619C52.5314 76.9165 52.2361 76.8318 52.2361 75.6053C52.2361 74.2545 52.9548 73.1144 53.928 73.1144C54.5194 73.1144 54.7326 73.7026 54.7326 74.4203C54.7326 77.1254 52.7869 82.1554 49.9161 82.1554C47.7572 82.1554 47.9259 78.4369 47.1658 78.4369C46.3172 78.4369 45.1337 82.1984 40.9534 82.1984C40.2738 82.1984 39.5578 81.8604 38.9679 81.1829C37.9538 81.8607 37.1062 82.1554 36.134 82.1554C34.5723 82.1554 33.8959 80.5495 33.2621 80.5495C32.5 80.5495 31.6573 82.1984 29.1192 82.1984C27.091 82.1984 26.7522 79.4955 26.0363 79.4955C25.4008 79.4955 24.4294 82.1984 23.3736 82.1984C21.5959 82.1984 21.2187 77.5075 19.6531 77.5075C18.4272 77.5075 14.5551 82.2721 13.5043 82.1632C13.0809 82.1191 12.9037 81.8024 12.9482 81.38C13.0072 80.7957 13.5104 79.2308 13.7153 78.49C14.0569 77.2051 14.3708 75.7963 14.5458 75.3466C14.7198 74.8943 15.1895 74.5705 15.5656 74.6057C15.7557 74.6235 15.8129 74.9776 15.8713 75.2694C16.0844 76.3141 16.383 77.3798 16.7189 77.3798C17.3121 77.3798 19.273 73.6183 20.4131 73.6183C21.8101 73.6183 21.9777 79.5358 23.8775 79.5358C24.513 79.5358 24.9795 78.7768 25.4004 77.8445C25.4438 76.2778 25.8655 74.0435 27.1333 74.0435C28.0222 74.0435 28.4456 76.0276 27.809 77.7619C27.809 79.8314 29.1605 80.3382 30.0493 80.3382V80.3385ZM63.8568 75.2683C63.333 77.4403 61.7453 80.636 59.3762 80.636C58.8282 80.636 57.855 80.4235 57.855 79.8738C57.855 79.2813 61.5762 79.1998 61.5762 76.3664C61.5762 75.3113 60.6048 73.8304 59.1673 73.8304C57.2657 73.8304 55.4104 75.9027 55.4104 78.7764C55.4104 81.3526 57.0113 82.1984 58.6161 82.1984C61.4076 82.1984 63.0967 79.914 63.9838 78.0135C64.4079 79.2813 64.6584 82.1984 65.7181 82.1984C66.1394 82.1984 66.4369 81.9864 66.9457 80.847C68.2089 78.0135 69.4358 74.7605 71.1282 74.7605C71.7605 74.7605 71.3815 75.9027 72.9027 75.9027C73.6197 75.9027 74.1246 75.3113 74.1246 74.6317C74.1246 73.6592 73.2386 72.9013 71.8871 72.9013C67.9154 72.9013 67.0717 78.86 66.4372 78.86C65.3794 78.86 65.7185 74.0848 64.9559 74.0848C64.2791 74.0848 63.9475 74.8911 63.8568 75.2683V75.2683ZM35.8223 70.8176C35.7487 69.6373 35.4629 69.1042 34.8289 69.1466C33.987 69.1978 33.5977 71.8463 33.7699 74.6289C33.8795 76.4447 34.1499 76.7243 34.4015 76.7069C34.8669 76.6802 35.9842 73.435 35.8223 70.8179V70.8176ZM28.9495 68.336C28.8901 67.6592 28.3588 67.1966 27.64 67.1966C26.8376 67.1966 26.0826 68.0385 26.163 69.0961C26.2142 69.7921 26.6256 70.3664 27.4319 70.3664C28.3592 70.3664 29.0349 69.3096 28.9495 68.336ZM42.0949 76.9567C42.0949 76.2397 41.7127 75.6483 41.2512 75.6483C40.8669 75.6483 39.9823 76.0685 39.9823 77.4221C39.9823 78.4821 40.3595 78.9849 40.5314 79.1999C41.7551 78.8191 42.0949 77.8021 42.0949 76.9567V76.9567ZM58.6161 75.5238C59.505 75.5238 59.7594 76.5756 59.5484 77.2111C59.3349 77.8445 58.5759 78.5654 57.392 78.7768C57.138 78.1413 57.0113 75.5238 58.6161 75.5238ZM9.95527 72.5231C9.83358 72.1388 9.48273 71.2752 9.38594 70.6379C9.17493 69.2259 9.91293 68.2958 10.5908 68.0826C11.3519 67.8706 11.6487 68.2517 11.9422 69.1405C12.323 70.492 12.3657 72.2658 12.2376 74.8018C12.071 78.2676 10.3374 82.4521 6.02762 82.3653C2.30741 82.2838 0.660988 79.8738 0.49019 76.1974C0.409772 74.4648 0.53289 72.7334 1.25167 70.2817C1.63169 68.9704 1.97151 68.504 3.15287 68.2517C4.08229 68.0827 3.99867 69.053 3.78767 70.1981C3.32402 72.7334 3.10981 73.9571 3.28061 76.8318C3.44678 79.8738 4.84448 81.0583 6.36566 81.0583C8.64724 81.1014 9.66064 79.1998 10.0851 76.4507C10.4211 74.2545 10.1688 73.1977 9.95563 72.5231H9.95527ZM59.7996 17.5423C60.0921 19.672 63.3188 22.5428 64.1941 22.4756C64.778 22.4254 65.0022 19.6944 65.0022 17.5423C65.0022 16.3097 65.0698 15.3444 64.419 15.1191C63.3864 17.2054 60.6756 17.632 59.7996 17.5423V17.5423ZM59.9786 16.6001C62.3086 16.6001 64.441 14.7391 64.441 13.1019C64.441 12.3387 64.0813 11.7113 63.1622 11.5996C63.3188 11.8017 63.3864 11.9586 63.3864 12.3166C63.3864 13.5503 61.5058 14.9188 59.4637 14.9188C58.7225 14.9188 58.4983 15.4337 58.4983 15.7034C58.4983 16.3318 59.1047 16.6001 59.9786 16.6001V16.6001ZM59.4857 14.0662C59.1723 14.0662 58.7225 14.0662 58.4752 13.5734C58.2731 13.1692 58.3403 12.5187 57.9592 12.2269C58.3403 12.3387 58.7446 12.3387 59.0595 12.3387C60.07 12.3387 61.0354 11.6437 61.7755 11.6437C62.2641 11.6437 62.421 11.9586 62.421 12.2714C62.421 13.2599 60.4291 14.0662 59.4857 14.0662V14.0662ZM9.32438 31.6471C10.0859 31.6471 9.92858 26.9821 11.1626 26.9821C11.4544 26.9821 11.5433 27.2739 11.5433 27.6333C11.5433 28.6866 11.0277 30.2344 11.0277 31.0859C11.0277 31.5126 11.1395 31.6471 11.3416 31.6471C11.8803 31.6471 12.8218 26.511 13.7417 26.511C14.0334 26.511 14.1672 26.8024 14.1672 27.0949C14.1672 28.171 12.7994 31.2653 12.7994 32.1399C12.7994 32.2737 12.8446 32.3861 12.9563 32.3861C13.5175 32.3861 14.6387 29.9651 14.9967 28.7542C15.1988 28.1258 15.4681 27.7888 15.7147 27.7888C15.9389 27.7888 16.141 28.0361 16.141 28.5521C16.141 29.763 15.0187 32.6107 14.0334 34.5179C13.2712 35.9971 12.0824 38.1271 12.0824 39.3156C12.0824 39.9208 12.1931 40.5482 13.0691 41.3118C11.633 41.2221 11.0498 41.0876 10.5129 39.966C8.11385 44.7423 14.9301 44.2716 12.5973 48.5095C12.171 47.748 8.80772 46.9627 8.80772 42.5223C8.80772 38.6879 12.171 36.4458 12.171 34.8527C12.171 34.5403 12.0607 34.2706 11.7679 34.0233C11.0277 33.3949 11.0046 32.8811 10.4235 32.8811C9.99619 32.8811 9.48024 33.8667 10.0179 34.7414C10.1983 35.0332 10.3552 35.2118 10.3552 35.4815C10.3552 36.1088 9.36744 37.7901 8.67393 37.7901C7.97899 37.7901 7.44097 36.0654 7.44097 33.2832C7.44097 30.8166 8.00105 28.3279 8.69599 28.3279C8.8981 28.3279 8.96535 28.4628 8.96535 28.6417C8.96535 28.9335 8.87604 29.5164 8.87604 30.502C8.87604 31.5567 9.12227 31.6471 9.32438 31.6471" fill="#0F0E9A"/>
<path d="M15.0414 38.2185C15.9844 38.2185 16.7679 37.5225 16.7679 35.9768V33.6884C16.7679 32.8145 16.8355 31.8281 17.4194 31.1321C17.3522 31.4239 17.3522 31.7385 17.3522 32.0292C17.3522 33.9578 18.4282 35.2815 18.4282 37.1425C18.4282 37.8363 18.2261 38.2185 17.6892 38.2185C17.1721 38.2185 17.2173 37.7467 17.1049 37.7467C17.0152 37.7467 16.8807 38.0384 16.8807 38.353C16.8807 38.8238 17.2173 39.5639 18.1585 39.5639C18.9669 39.5639 19.6167 38.8238 19.6167 37.994C19.6167 35.9771 18.0471 33.7336 18.0471 31.5819C18.0471 30.6386 18.2933 30.0109 18.4955 29.5174C18.4955 33.9809 22.2851 37.2318 22.2851 39.0921C22.2851 39.5187 21.9719 39.8553 21.5012 39.8553C20.9841 39.8553 20.7379 39.4511 20.7379 39.1365C20.7379 38.9796 20.7148 38.9355 20.6482 38.9355C20.5144 38.9355 20.1102 39.3838 20.1102 39.9681C20.1102 40.7072 20.7148 41.6049 21.8371 41.6049C23.1141 41.6049 23.8098 40.5271 23.8098 39.5639C23.8098 37.2097 19.2125 33.6443 19.2125 29.8319C19.2125 29.1815 19.3242 28.1275 19.7957 27.3201C16.8352 29.2256 15.9171 31.7609 15.9171 33.9813C15.9171 35.9099 15.8499 36.872 14.8635 36.872C14.3465 36.872 14.2127 36.4023 14.033 36.4023C13.8978 36.4023 13.8309 36.8055 13.8309 36.9172C13.8309 37.7467 14.4372 38.2185 15.0414 38.2185V38.2185ZM53.9038 15.8172C54.8912 15.8172 55.6324 15.3689 55.6324 15.0992C55.6324 15.0105 55.4975 14.9426 55.205 14.9426C54.9132 14.9426 54.33 14.9202 53.2302 14.7412C52.2872 14.5832 51.5688 14.2252 51.2994 14.2252C51.2101 14.2252 51.1646 14.2697 51.1646 14.337C51.1646 14.9202 52.2427 15.8172 53.9038 15.8172V15.8172ZM49.0157 12.9695C49.3004 12.7784 50.5636 13.0809 52.1983 12.2735C52.376 12.1727 52.5764 12.1188 52.7808 12.1169C53.5671 12.1169 53.364 13.0136 54.0838 13.0136C54.6439 13.0136 55.363 12.5422 55.7893 12.5422C56.4583 12.5422 57.4226 14.6508 57.4226 15.6372C57.4226 16.7815 55.6996 17.4761 53.6565 17.4761C50.6771 17.4761 48.8801 14.876 48.8801 13.1937C48.8801 13.0588 48.9485 13.0136 49.0157 12.9695V12.9695ZM15.5129 46.672C14.7735 46.852 13.5843 48.0163 13.5843 49.8577C13.5843 52.0546 15.9392 55.4414 19.8184 55.4414C23.0914 55.4414 23.8991 53.1769 23.8991 51.6504C23.8991 48.2639 21.8146 45.8866 19.1014 45.8866C17.6212 45.8866 16.2982 46.9648 16.2982 48.5554C16.2982 50.0367 17.4191 52.256 20.0878 52.256C21.3439 52.256 22.0829 51.3589 22.0829 50.3281C22.0829 49.3186 21.1638 47.9291 19.8184 47.9291C19.4142 47.9291 19.1235 48.1963 19.1235 48.623C19.1235 49.1606 19.8636 49.6997 20.7827 49.6997C21.0069 49.6997 21.1859 49.6556 21.2766 49.6104C21.3208 49.6776 21.3439 49.7901 21.3439 49.8798C21.3439 50.3957 20.8493 50.7103 20.0878 50.7103C18.9445 50.7103 17.8446 49.8577 17.8446 48.5102C17.8446 47.7046 18.5403 47.1214 19.5491 47.1214C21.5453 47.1214 22.7338 48.8923 22.7338 50.6651C22.7338 52.2556 21.8598 53.1772 20.0657 53.1772C16.4772 53.1772 14.7283 49.947 15.5129 46.672V46.672ZM39.3717 55.3289C39.3723 55.5667 39.467 55.7944 39.6351 55.9625C39.8032 56.1306 40.031 56.2253 40.2687 56.226C40.5063 56.2253 40.734 56.1306 40.902 55.9626C41.0701 55.7946 41.1647 55.5669 41.1654 55.3293C41.1648 55.0915 41.0702 54.8636 40.9022 54.6954C40.7342 54.5271 40.5065 54.4321 40.2687 54.4312C40.0309 54.4321 39.8032 54.5271 39.6352 54.6954C39.4672 54.8636 39.3726 55.0915 39.372 55.3293L39.3717 55.3289ZM41.1102 59.811C42.1852 59.811 42.1301 59.7213 42.4667 59.7213C42.8026 59.7213 42.8261 59.9234 42.8261 60.0583C42.8261 60.5518 41.7258 61.1585 39.7759 61.1585C38.6315 61.1585 37.937 60.5518 37.7348 59.8793C36.6147 60.5963 34.9103 61.2468 33.2279 61.2468C28.6316 61.2468 27.4652 59.2498 26.0302 58.6011C24.9299 58.1076 23.2486 59.073 20.8948 56.4484C21.2087 56.516 21.635 56.5388 21.9719 56.5388C24.0332 56.5388 25.132 55.5303 25.132 53.9145C25.132 53.7124 25.11 53.4911 25.0869 53.29C25.7153 53.5363 27.1514 54.6112 27.4873 56.5156C27.5325 56.7409 28.4516 56.9419 29.0337 56.9419C29.8422 56.9419 30.8737 56.6053 31.0299 55.2838C33.7214 55.0596 35.5383 53.468 35.9197 51.4479C36.883 51.7625 37.9811 52.6374 38.2504 53.0869C38.6315 52.952 39.0802 52.8847 39.5958 52.8847C40.3128 52.8847 41.1213 53.0196 42.0849 53.3117C42.1301 53.0196 42.1752 52.6606 42.6236 52.6606C43.2961 52.6606 43.1164 53.4007 43.3406 53.8249C43.4534 54.049 44.0152 54.1839 44.0152 54.6326C44.0152 55.0596 43.6544 55.2165 43.4313 55.2165C43.3406 55.2165 43.2292 55.1944 43.1609 55.1724C42.7133 55.3289 42.6912 58.557 40.8067 58.557C39.4168 58.557 38.1391 57.4138 37.5779 55.9798C37.4199 55.5535 37.0851 55.2838 36.7702 55.2838C36.4126 55.2838 36.2105 55.3514 35.7849 55.8228C34.5744 57.144 32.555 58.2877 30.0667 58.2877C29.3031 58.2877 28.6989 58.2201 28.5409 58.2201C28.4516 58.2201 28.4516 58.2421 28.4516 58.2645C28.4516 58.4222 29.2138 59.0285 30.8737 59.0285C34.8199 59.0285 35.7849 56.8074 36.4126 56.8074C36.5019 56.8074 36.7705 56.8074 36.9271 57.1664C37.8462 59.3171 39.8545 59.811 41.1102 59.811V59.811ZM54.7115 45.528C54.2411 45.528 51.6357 49.0041 49.9583 49.0041C49.5541 49.0041 49.2182 48.2408 49.2182 47.6604C49.2182 47.3459 49.4185 47.1217 50.1384 46.9648C53.9938 46.0887 53.1409 43.1959 56.4351 43.1959C58.2513 43.1959 60.2713 44.4299 60.2713 47.211C60.2713 50.1715 56.0583 53.8476 55.4296 53.8476C54.9129 53.8476 54.3528 53.1086 54.3528 52.615C54.3528 52.4592 54.4204 52.2556 54.8688 52.077C57.0183 51.223 58.2513 49.2514 58.2513 48.2408C58.2513 48.0166 58.1396 47.7953 57.8471 47.7953C57.467 47.7953 55.8338 51.5159 54.0158 51.5159C52.7591 51.5159 51.4798 50.3737 51.4798 49.8346C51.4798 48.9379 55.115 47.2783 55.115 46.0215C55.115 45.55 54.8915 45.528 54.7118 45.528H54.7115ZM57.1301 44.1381C56.8162 44.1381 56.4803 44.3854 56.4803 44.9921C56.4803 45.6625 56.9963 46.0887 57.2881 46.2236C57.4446 46.3133 57.6923 46.4037 57.9364 46.4037C58.5879 46.4037 59.1039 46.2236 59.1039 45.6849C59.1039 44.9917 58.0944 44.1381 57.1301 44.1381V44.1381ZM15.2435 18.171C15.2443 18.409 15.3391 18.637 15.5074 18.8053C15.6757 18.9735 15.9037 19.0684 16.1416 19.0691C16.3793 19.068 16.6068 18.973 16.7746 18.8047C16.9424 18.6364 17.0368 18.4087 17.0373 18.171C17.0365 17.9336 16.942 17.7061 16.7742 17.5382C16.6064 17.3702 16.379 17.2754 16.1416 17.2743C15.9039 17.2749 15.676 17.3695 15.5077 17.5375C15.3394 17.7055 15.2445 17.9333 15.2435 18.171V18.171ZM14.0782 16.1531C14.0789 16.3906 14.1736 16.6181 14.3414 16.7861C14.5092 16.9541 14.7367 17.0489 14.9742 17.0498C15.2119 17.0492 15.4397 16.9545 15.6079 16.7865C15.7761 16.6185 15.871 16.3908 15.8719 16.1531C15.8711 15.9153 15.7762 15.6876 15.608 15.5195C15.4398 15.3514 15.2119 15.2567 14.9742 15.2561C14.7367 15.257 14.5092 15.3518 14.3414 15.5198C14.1736 15.6878 14.0789 15.9153 14.0782 16.1528V16.1531ZM13.2705 22.2969C12.7538 22.4317 11.6788 23.0601 11.6788 24.1803C11.6788 24.988 12.3051 25.5036 13.0915 25.5036C13.495 25.5036 13.7864 25.414 13.9654 25.2794C13.3381 24.6742 13.1139 24.0013 13.1139 23.3295C13.1139 22.858 13.1815 22.5662 13.2705 22.2969ZM7.7775 22.6118C7.75509 22.7242 7.75509 22.836 7.75509 22.9477C7.75509 24.0013 8.31516 24.5845 9.05529 24.5845C9.61466 24.5845 10.2662 24.2475 10.8483 23.5078C10.5814 23.5527 10.3112 23.5749 10.0406 23.574C9.21221 23.574 8.31516 23.3519 7.7775 22.6118V22.6118ZM6.99219 24.6066C6.99219 26.311 7.50814 27.1187 8.42689 27.1187C9.14496 27.1187 10.1093 26.6028 11.2515 25.6161C10.3776 25.8185 9.70504 25.952 9.09977 25.952C8.29203 25.952 7.66577 25.6385 6.99219 24.6069V24.6066ZM12.8 15.6372C12.9317 15.2163 12.9995 14.778 13.0011 14.337C13.0011 13.2609 12.5076 11.623 10.9832 11.623C10.1093 11.623 9.4798 12.318 9.4798 13.1485C9.4798 14.9205 11.2518 15.6372 12.8 15.6372V15.6372ZM10.8928 21.2885C10.1534 21.2885 9.346 20.3694 9.346 19.5396C9.346 19.0912 9.68191 18.5301 9.92921 18.5301C10.0189 18.5301 10.0641 18.5977 10.0858 18.7553C10.221 19.8534 10.9376 20.4818 11.6116 20.7946C11.6792 20.8398 11.7229 20.8622 11.7229 20.9074C11.7229 21.0639 11.2967 21.2881 10.8924 21.2881L10.8928 21.2885ZM12.957 18.5521C13.1118 18.7635 13.5402 19.024 13.5402 19.1809C13.5402 19.4944 13.3601 19.8986 13.0011 19.8986C12.2158 19.8986 11.5884 18.7101 11.5884 18.0365C11.5884 17.611 11.8357 17.5668 12.1706 17.5668C12.3286 17.5668 12.3948 17.5889 12.5076 17.6565C12.7097 17.7679 12.7097 18.2166 12.957 18.5521V18.5521ZM7.68784 21.3336C7.64549 21.403 7.62023 21.4902 7.62023 21.581C7.62023 21.782 7.8444 22.0062 8.0458 22.0062C8.22585 22.0062 8.33758 21.962 8.42689 21.962C8.96491 21.962 9.57018 22.3421 10.4452 22.3421C10.96 22.3421 11.566 22.1855 12.3286 21.8051C13.9423 20.9967 14.5717 19.0019 14.5717 18.6649C14.5717 18.2386 14.2291 18.2938 13.9423 17.9017C13.6569 17.5117 13.7665 17.1647 13.5843 16.9826C13.4797 16.8779 13.1591 16.8708 12.7538 16.826C12.59 16.81 12.4255 16.8025 12.261 16.8036C11.5208 16.8036 10.6441 16.894 9.65985 17.5216C7.71417 18.7624 8.00061 20.8177 7.68784 21.3336V21.3336ZM15.1318 20.437C14.6383 21.0187 14.1223 22.0062 14.1223 23.0149C14.1223 24.2255 14.8635 25.2343 16.0068 25.2343C17.1049 25.2343 17.6205 24.2931 17.6205 23.3295C17.6205 21.8272 16.253 20.7725 15.1318 20.4366V20.437ZM10.3334 16.1311C10.3334 16.1311 9.68191 16.6235 8.87524 16.6235C7.91201 16.6235 7.14875 15.9065 7.14875 14.8981C7.14875 14.2021 7.50814 13.4855 8.33723 13.1261C8.31516 13.2613 8.31516 13.3727 8.31516 13.5075C8.31516 14.7853 9.03216 15.75 10.3334 16.1311ZM49.8683 23.5747C49.8683 24.0913 50.2953 24.5176 50.8052 24.5176C51.0549 24.5163 51.294 24.4166 51.4706 24.24C51.6472 24.0635 51.7471 23.8244 51.7485 23.5747C51.7467 23.3254 51.6467 23.0868 51.4702 22.9107C51.2937 22.7347 51.0549 22.6353 50.8055 22.6342C50.2956 22.6342 49.8683 23.0598 49.8683 23.5743V23.5747ZM49.9355 26.4C49.9355 26.6792 50.0465 26.9469 50.2439 27.1443C50.4413 27.3418 50.7091 27.4527 50.9883 27.4527C51.2675 27.4527 51.5352 27.3418 51.7327 27.1443C51.9301 26.9469 52.041 26.6792 52.041 26.4C52.0359 26.1241 51.9228 25.8613 51.7259 25.668C51.529 25.4747 51.2642 25.3664 50.9883 25.3664C50.7124 25.3664 50.4475 25.4747 50.2506 25.668C50.0538 25.8613 49.9406 26.1241 49.9355 26.4V26.4ZM46.7046 28.3065C46.7054 28.7169 46.8689 29.1102 47.1591 29.4003C47.4494 29.6904 47.8428 29.8537 48.2532 29.8544C48.6635 29.8534 49.0567 29.6901 49.3469 29.4C49.6371 29.1099 49.8006 28.7168 49.8017 28.3065C49.8005 27.8963 49.6369 27.5032 49.3468 27.2132C49.0566 26.9232 48.6634 26.7599 48.2532 26.759C47.8428 26.7596 47.4494 26.9229 47.1591 27.213C46.8689 27.5032 46.7054 27.8965 46.7046 28.3069V28.3065ZM47.5344 25.1453C47.5351 25.3831 47.6299 25.611 47.7981 25.779C47.9664 25.9471 48.1944 26.0416 48.4322 26.042C48.6698 26.0414 48.8976 25.9468 49.0657 25.7788C49.2338 25.6107 49.3285 25.383 49.3292 25.1453C49.3285 24.9077 49.2339 24.6799 49.0659 24.5118C48.8979 24.3438 48.6702 24.249 48.4325 24.2483C48.1947 24.2488 47.9668 24.3434 47.7986 24.5114C47.6303 24.6794 47.5353 24.9072 47.5344 25.1449V25.1453ZM44.5981 26.939C44.5986 27.176 44.6928 27.4031 44.8601 27.571C45.0274 27.7388 45.2543 27.8337 45.4912 27.835C45.9858 27.835 46.39 27.4329 46.39 26.939C46.3891 26.7011 46.294 26.4732 46.1255 26.3051C45.957 26.1371 45.7288 26.0426 45.4909 26.0423C45.2539 26.0439 45.0272 26.1391 44.86 26.307C44.6928 26.4749 44.5986 26.7021 44.5981 26.939V26.939ZM46.906 21.693C46.906 22.4773 47.5565 23.127 48.3418 23.127C49.1282 23.127 49.7786 22.4773 49.7786 21.693C49.7786 20.9067 49.1282 20.2573 48.3418 20.2573C47.5565 20.2573 46.906 20.9067 46.906 21.693V21.693ZM48.5891 18.9339C48.5891 19.0458 48.6111 19.1567 48.654 19.26C48.6969 19.3634 48.7597 19.4573 48.8389 19.5364C48.918 19.6155 49.012 19.6782 49.1155 19.7209C49.2189 19.7637 49.3297 19.7856 49.4416 19.7854C49.5556 19.7887 49.6691 19.7691 49.7754 19.7278C49.8817 19.6864 49.9786 19.6242 50.0604 19.5447C50.1422 19.4653 50.2072 19.3702 50.2516 19.2652C50.296 19.1601 50.3188 19.0473 50.3188 18.9332C50.3188 18.8192 50.296 18.7063 50.2516 18.6013C50.2072 18.4962 50.1422 18.4012 50.0604 18.3217C49.9786 18.2423 49.8817 18.18 49.7754 18.1387C49.6691 18.0973 49.5556 18.0777 49.4416 18.081C49.3297 18.081 49.2188 18.1031 49.1153 18.1459C49.0118 18.1888 48.9178 18.2516 48.8387 18.3308C48.7595 18.4101 48.6967 18.5041 48.6539 18.6076C48.611 18.711 48.589 18.8219 48.5891 18.9339V18.9339ZM44.5319 21.0867C44.5313 21.3122 44.6203 21.5286 44.7792 21.6886C44.9381 21.8485 45.154 21.9388 45.3795 21.9396C45.6055 21.9396 45.8223 21.8498 45.9821 21.69C46.1419 21.5302 46.2317 21.3134 46.2317 21.0874C46.2317 20.8614 46.1419 20.6446 45.9821 20.4848C45.8223 20.325 45.6055 20.2352 45.3795 20.2352C45.1542 20.236 44.9385 20.326 44.7796 20.4857C44.6207 20.6453 44.5316 20.8615 44.5319 21.0867V21.0867ZM44.4191 24.001C44.4178 24.1806 44.4522 24.3587 44.5202 24.525C44.5882 24.6913 44.6885 24.8424 44.8153 24.9697C44.9421 25.097 45.0929 25.1978 45.259 25.2665C45.425 25.3351 45.603 25.3701 45.7826 25.3695C45.9628 25.3707 46.1414 25.3362 46.3082 25.2679C46.4749 25.1996 46.6264 25.0989 46.7539 24.9716C46.8814 24.8443 46.9824 24.693 47.0509 24.5263C47.1195 24.3597 47.1543 24.1811 47.1533 24.001C47.1533 23.2395 46.5459 22.6346 45.7826 22.6346C45.6031 22.6339 45.4253 22.6687 45.2593 22.7372C45.0934 22.8056 44.9427 22.9063 44.8159 23.0334C44.6891 23.1604 44.5887 23.3114 44.5206 23.4774C44.4525 23.6435 44.418 23.8215 44.4191 24.001V24.001ZM41.5924 25.4367C41.5924 26.1327 42.1749 26.7138 42.8705 26.7138C43.5655 26.7138 44.1497 26.1327 44.1497 25.4367C44.1497 24.7418 43.5655 24.1586 42.8705 24.1586C42.1749 24.1586 41.5924 24.7421 41.5924 25.4367ZM42.3546 22.2752C42.3554 22.5126 42.4501 22.7402 42.6179 22.9082C42.7857 23.0762 43.0131 23.1711 43.2506 23.1722C43.4885 23.1718 43.7165 23.0772 43.885 22.9092C44.0534 22.7412 44.1486 22.5134 44.1497 22.2755C44.1487 22.0376 44.0536 21.8097 43.8851 21.6416C43.7166 21.4735 43.4885 21.379 43.2506 21.3785C43.0132 21.3796 42.7858 21.4745 42.618 21.6424C42.4502 21.8103 42.3555 22.0378 42.3546 22.2752V22.2752ZM50.2273 29.1815C50.2273 28.7331 50.6315 28.3517 51.0749 28.3517C51.5695 28.3517 51.9506 28.7328 51.9506 29.1815C51.9506 29.6974 51.5699 30.0561 51.0749 30.0561C50.6315 30.0561 50.2273 29.6974 50.2273 29.1815ZM50.8059 54.9699C50.9183 54.9699 51.0532 55.0361 51.0532 55.4414C51.0532 55.9342 50.829 56.5836 50.0256 57.0996C49.4644 57.4806 48.7012 57.7956 47.5789 57.8155C47.7579 57.2785 47.8927 56.7174 47.8927 56.1815C47.8927 56.0015 47.8714 55.867 47.8486 55.6656H48.1411C49.9131 55.6656 50.6771 54.9699 50.8059 54.9699V54.9699ZM50.9856 52.7495C51.1678 52.5958 51.2098 52.3464 51.2098 52.0991V51.5831C51.2098 50.9327 50.2277 50.5526 48.8801 50.5526C47.2419 50.5526 46.3673 51.2906 46.3673 51.6052V52.6382C46.3673 53.0644 47.3547 53.4907 48.5663 53.4907C49.5317 53.4907 50.4074 53.2445 50.9859 52.7495H50.9856ZM52.152 52.9968C51.5688 53.4466 50.2056 54.4529 47.9379 54.4529C46.7263 54.4529 46.1872 54.0721 46.0072 54.0721C45.783 54.0721 45.5357 54.2963 45.2895 54.5888C44.7564 55.2172 44.0604 56.3836 44.0604 57.6607C44.0604 58.5574 44.7564 59.4516 46.0524 59.4516C50.2497 59.4516 53.3871 56.8291 53.3871 54.7005C53.3871 53.4907 52.6701 52.9968 52.1524 52.9968H52.152ZM52.938 34.1378C52.938 34.6979 53.1181 35.3484 53.6792 35.3484C54.1496 35.3484 54.5539 34.6317 54.5539 33.8464C54.5539 32.9494 54.3973 32.2534 54.3973 31.8943C54.3973 31.7385 54.4645 31.6712 54.5539 31.6712C54.8908 31.6933 55.2057 32.6124 55.5644 32.6124C55.969 32.6124 56.57 31.8723 56.8166 31.8723C56.8842 31.8723 56.9059 31.9619 56.9059 31.984C56.9059 32.321 56.3899 33.0622 56.3899 33.3525C56.3899 33.5988 57.6912 33.6443 57.6912 33.8685C57.6912 34.2051 56.3277 34.2051 55.6772 34.4969C55.0488 34.7652 54.6666 35.1021 54.6666 35.5505C54.6666 35.9988 55.115 36.0878 55.7448 36.0878C57.2429 36.0878 58.2968 35.2811 58.6324 35.2811C58.7 35.2811 58.7441 35.3263 58.7441 35.3939C58.7441 35.6181 57.9819 36.3571 57.9819 36.6941C57.9819 37.0749 59.3736 37.5225 59.3515 37.7467C59.3295 37.8143 59.2387 37.8363 59.0822 37.8363C58.8345 37.8363 58.4534 37.7698 58.1609 37.7698C57.9819 37.7698 57.825 37.7919 57.7567 37.8815C57.6019 38.0616 57.8019 39.249 57.4902 39.249C57.1977 39.249 56.4344 36.6045 54.7118 36.6045C54.4645 36.6045 54.2856 36.8055 54.2856 37.1425C54.2856 38.0384 55.1602 39.07 55.9911 39.5639C56.3672 39.8101 56.9966 40.0574 56.9966 40.1923C56.9966 40.4599 55.5648 40.2143 55.5648 40.662C55.5648 41.0662 55.7445 41.6725 55.7445 42.0305C55.7445 42.1429 55.7213 42.2767 55.5868 42.2767C55.3182 42.2767 54.6667 41.0438 54.3521 41.0438C54.0834 41.0438 53.5002 41.7832 53.2519 41.7832C53.1853 41.7832 53.1412 41.7156 53.1412 41.6505C53.1412 41.1335 53.9707 39.9681 53.9707 38.8238C53.9707 38.2858 53.9034 37.1193 53.2519 37.1193C52.7139 37.1193 52.1075 37.9708 51.8382 38.8238C51.6812 39.3166 51.7937 41.2228 51.4347 41.2228C51.098 41.2228 51.1873 39.945 50.7379 39.945C50.407 39.945 49.6893 40.5503 49.4416 40.5503C49.3975 40.5503 49.3523 40.5271 49.3523 40.4826C49.3523 40.2144 50.0028 39.3397 50.0028 39.1597C50.0028 38.8238 48.5218 38.7796 48.5218 38.5099C48.5218 38.3534 49.105 38.2406 49.6438 38.1509C50.7842 37.9488 52.4676 37.119 52.4676 35.9547C52.4676 34.6538 51.2094 34.0927 50.385 33.5536C49.958 33.2853 49.4872 33.0618 49.4872 32.8818C49.4872 32.7021 50.0259 32.7021 50.2504 32.7021C50.586 32.7021 50.9191 32.6796 50.9191 32.4113C50.9191 32.2085 50.8728 31.8061 50.8728 31.4922C50.8728 31.267 50.8959 31.087 50.9867 31.087C51.3222 31.087 51.7937 32.1861 52.0179 32.1861C52.3772 32.1861 52.8708 31.2894 53.2085 31.2894C53.3191 31.2894 53.3643 31.3574 53.3643 31.5588C53.3643 32.3879 52.938 33.3294 52.938 34.1378V34.1378ZM42.2418 27.5674C42.4894 29.4733 45.0475 28.509 45.0475 30.8187C45.0475 31.1553 44.9582 31.6492 44.9582 32.0733C44.9582 32.5679 45.0023 32.9946 45.3795 32.9946C45.7602 32.9946 45.851 32.7252 45.851 32.3662C45.851 32.0061 45.7606 31.5584 45.7606 31.3122C45.7606 30.5269 46.3217 30.3479 46.6583 30.3479C47.5123 30.3479 48.1628 31.2229 49.4416 31.2229C49.1502 32.6576 46.1869 32.2754 46.1869 33.8464C46.1869 34.6317 46.9733 34.8096 47.4892 34.8096C47.9607 34.8096 48.1187 34.742 48.1187 34.34C48.1187 34.1147 48.0724 33.8685 48.0724 33.7116C48.0721 33.6878 48.0766 33.6642 48.0856 33.6421C48.0946 33.6201 48.1079 33.6001 48.1248 33.5833C48.1416 33.5666 48.1617 33.5533 48.1837 33.5444C48.2058 33.5355 48.2294 33.5311 48.2532 33.5315C48.7471 33.5315 51.1653 35.3708 51.1653 35.9316C51.1653 36.4465 48.6111 36.9624 47.871 36.9624C47.6468 36.9624 47.6016 36.8059 47.6016 36.7162C47.6016 36.5593 47.9827 36.0878 47.9827 35.8191C47.9827 35.6181 47.6468 35.4832 46.748 35.4832C46.3217 35.4832 46.0079 35.5274 46.0079 35.8654C46.0079 36.4696 46.9953 37.2097 46.9953 37.7698C46.9953 38.2181 46.726 38.4879 46.0079 38.4879C45.4016 38.4879 44.4864 38.0164 44.4864 37.2318C44.4864 36.6045 45.1329 35.9771 45.1329 35.596C45.1329 35.4832 45.0475 35.3032 44.7781 35.3032C43.9476 35.3032 43.7231 37.5004 40.7839 37.7467C41.2558 37.3215 41.6589 36.8507 41.6589 35.8875C41.6589 35.416 41.5472 35.0335 41.5472 34.5189C41.5472 33.8464 41.861 33.5094 42.3094 33.5094C43.1392 33.5094 43.5423 34.6748 44.0821 34.6748C44.375 34.6748 44.6885 34.4072 44.6885 34.003C44.6885 32.2986 41.4123 32.5451 41.4123 30.1458C41.4123 29.4953 41.6358 28.6887 42.2421 27.5674" fill="#0F0E9A"/>
<path d="M46.5022 42.1427C46.5022 42.4562 46.7264 42.7039 47.041 42.7039C47.4004 42.7039 47.6252 42.389 47.6252 42.0299C47.6252 41.5602 47.1982 40.9091 46.7937 40.9091C46.6136 40.9091 46.6823 41.1784 46.636 41.4699C46.6136 41.6933 46.5022 41.9627 46.5022 42.1424V42.1427ZM45.3358 39.1605C47.6914 39.6089 48.9706 41.3805 48.9706 43.0398C48.9706 44.1838 48.2529 45.2356 46.9958 45.2356C45.8514 45.2356 45.0259 44.4524 45.0259 43.1956C45.0259 42.2541 45.7611 41.2677 45.7611 40.3034C45.7611 39.9227 45.6493 39.5413 45.3358 39.1602V39.1605ZM42.3554 42.9732C42.5785 43.1956 42.6472 43.4209 42.6472 43.645C42.6472 43.9817 42.4899 44.3407 42.4899 44.7218C42.4899 45.2591 42.8934 45.7306 43.4756 45.7306C44.105 45.7306 44.5324 45.236 44.5324 44.6556C44.5324 43.8027 43.6545 42.9732 42.3554 42.9732ZM49.7791 41.5382C49.936 41.7826 50.0033 42.0299 50.0033 42.2541C50.0033 42.8829 49.577 43.465 49.577 44.1165C49.577 44.8566 50.1381 45.4608 50.9868 45.4608C51.9069 45.4608 52.5353 44.7218 52.5353 43.8472C52.5353 42.6587 51.4586 41.6499 49.7791 41.5382V41.5382ZM42.8934 40.3479C43.926 40.4824 44.1733 40.8415 44.1733 41.1343C44.1733 41.6268 43.7239 41.7826 43.2966 41.7826C42.9827 41.7826 42.6241 41.7164 42.2426 41.7164C41.7491 41.7164 41.2562 41.8278 40.852 42.2996C41.1438 42.3448 41.5701 42.5459 41.5701 42.9953C41.5701 44.2955 37.9591 43.2188 37.9591 46.5607C37.9591 48.3317 39.7981 50.2613 42.5785 50.2613C44.0154 50.2613 44.9355 49.7899 44.9355 49.2508C44.9355 48.8256 44.1733 49.1163 44.1733 48.7573C44.1733 48.6003 44.4416 48.3078 44.4416 48.0613C44.4416 47.9517 44.3523 47.7495 44.1733 47.7495C43.768 47.7495 43.0059 48.3982 41.4573 48.3982C40.2468 48.3982 39.0579 47.7044 39.0579 46.7621C39.0579 46.5611 39.1476 46.4476 39.2821 46.4476C39.4173 46.4476 39.5959 46.5379 39.7529 46.5379C39.8888 46.5379 39.9109 46.4476 39.9109 46.201C39.9109 45.9547 39.9109 45.2587 40.3361 45.2587C40.7624 45.2587 41.5701 46.8294 44.6669 46.8294C45.6949 46.8294 47.6914 46.6273 48.433 45.9547C48.4099 48.4213 46.4802 51.6722 42.4447 51.6722C38.2516 51.6722 36.0081 48.3078 36.0081 45.2139C36.0081 41.7826 38.8106 38.6673 42.6468 38.6673C43.6325 38.6673 44.4641 39.0022 44.4641 39.4288C44.4641 40.0131 43.0059 39.6541 42.8934 40.3479V40.3479ZM28.3848 14.741C29.8651 14.741 30.5365 16.0191 30.5365 17.4542C30.5365 18.0815 30.3586 19.0017 30.0668 19.0017C29.7754 19.0017 29.8199 18.4857 29.7754 18.0142C29.7302 17.4097 29.6188 17.2752 29.4164 17.2752C29.0346 17.2752 28.789 18.1712 28.789 19.0017C28.789 19.5166 28.8787 20.1005 29.2819 20.1005C29.506 20.1005 29.7081 19.988 29.8419 19.8532C29.7523 20.8851 28.989 21.7828 27.9133 21.7828C25.9403 21.7828 25.2001 19.4721 24.976 18.1267C23.7875 19.3828 22.6894 20.3026 20.7156 20.3026C18.8774 20.3026 18.0469 18.9576 18.0469 17.6794C18.0469 17.2972 18.1814 16.3109 18.6532 16.3109C19.2133 16.3109 18.7208 18.1487 19.8186 18.1487C20.0879 18.1487 20.5807 17.9246 20.8505 17.1855C21.007 16.7361 21.0978 16.2664 21.0978 15.8622C21.0978 15.2559 20.9625 14.8758 20.5153 14.8758C20.1331 14.8758 19.6616 15.1665 19.5047 15.3235C20.0438 13.7083 21.344 12.8789 22.778 12.8789C24.5507 12.8789 25.4919 14.4495 25.4919 16.1981C25.4919 16.4443 25.4688 16.714 25.4243 16.9603C26.1868 15.7042 27.2415 14.741 28.3848 14.741V14.741ZM26.6573 17.3866C26.6573 17.0058 26.5679 16.9162 26.4783 16.9162C26.2541 16.9162 26.0079 17.1855 25.6488 17.7908C25.694 18.5985 25.8289 18.9572 26.0531 18.9572C26.2986 18.9572 26.6573 18.1708 26.6573 17.3866V17.3866ZM23.5854 18.3057C23.8316 18.3057 24.1465 18.0363 24.7297 17.3866C24.7749 17.0948 24.7749 16.8254 24.7749 16.4899C24.7749 16.0415 24.5949 15.5476 24.3266 15.5476C23.6526 15.5476 23.3167 17.3424 23.3167 17.8143C23.3167 18.0815 23.4505 18.3057 23.5854 18.3057V18.3057ZM27.2415 20.3026C27.8016 20.3026 28.4289 18.1488 28.4289 16.8034C28.4289 16.5116 28.3848 16.1984 28.2499 16.1984C27.7785 16.1984 26.9939 18.4185 26.9939 19.629C26.9939 20.1005 27.1067 20.3026 27.2415 20.3026ZM21.7479 19.0689C22.5101 19.0689 23.3829 14.9431 23.3829 14.2474C23.3829 14.0674 23.3164 13.9325 23.1598 13.9325C22.4649 13.9325 21.5006 17.8573 21.5006 18.732C21.5006 18.8899 21.5458 19.0689 21.7479 19.0689" fill="#0F0E9A"/>
<path d="M24.1905 20.7714C23.2262 20.7714 23.1821 21.9388 23.1821 24.2919C22.4651 22.7451 21.2763 21.0859 19.8857 21.0859C18.9445 21.0859 18.5855 21.7147 18.5855 22.8117C18.5855 23.0369 18.6075 23.3739 18.6531 23.5739C18.7645 23.1938 19.1246 23.0369 19.5718 23.0369C20.5361 23.0369 21.7029 23.776 22.4647 24.7855C21.5901 24.6289 20.7375 24.472 20.0202 24.472C19.5718 24.472 19.1676 24.5172 18.8317 24.6741C18.1813 24.9645 17.3066 25.9288 17.3066 27.387C17.3066 27.6111 17.3298 27.8574 17.3749 28.1271C18.1592 26.3775 20.2447 25.5929 21.5901 25.5929C21.8595 25.5929 22.0609 25.6153 22.2174 25.6373C21.5229 26.2647 21.3659 27.3649 21.3207 28.1039C21.2987 28.463 21.1638 28.4861 20.9176 28.4861C20.9176 29.2252 21.5008 30.325 21.5008 30.8851C21.5008 31.0862 21.388 31.2662 21.2766 31.3114C21.2766 32.2981 22.263 33.0158 22.263 33.6435C22.263 33.8001 22.2174 33.9353 22.1502 34.0025C22.2178 34.4068 23.3027 35.0853 23.4433 35.4252C23.6155 35.8386 23.8094 35.9091 23.9219 35.9091C24.303 35.9091 24.9075 35.4593 24.9075 35.0562C24.9075 34.9217 24.7958 34.7644 24.7072 34.6971C24.2809 34.3836 24.056 33.7108 23.8767 33.2624C23.719 33.2624 23.5159 33.1959 23.4454 32.9326C23.3226 32.4678 23.3166 31.6032 23.1365 31.0862C22.8448 31.02 22.7103 30.9072 22.7103 30.3033C22.7103 30.0105 22.8903 28.8672 22.8903 28.463C22.7555 28.463 22.5765 28.3733 22.5765 28.1036C22.5765 27.387 23.2945 26.8262 23.4956 25.9067C24.7748 26.8479 25.0876 27.8122 25.0876 28.6651C25.0876 29.1124 25.02 29.5397 24.9306 29.9439C25.8729 29.4725 27.2855 28.7775 27.2855 27.3649C27.2855 26.5344 26.9048 25.6153 24.3706 25.2562C25.1548 24.9645 26.1426 24.8086 26.9717 24.8086C28.4067 24.8086 29.2362 25.2562 29.4152 26.2647C29.707 25.8174 29.9322 25.3004 29.9322 24.8307C29.9322 23.7308 29.0109 23.0138 27.8456 23.0138C26.4781 23.0138 25.2673 23.7308 23.9663 24.6065C24.5506 23.396 24.9527 22.6779 25.6708 22.6779C25.7832 22.6779 25.896 22.701 26.0074 22.7231C25.738 21.7367 24.7296 20.7714 24.1905 20.7714V20.7714ZM61.9729 36.9389C63.0952 36.9389 63.9919 38.397 63.9919 40.1015C63.9919 41.9162 63.1393 43.8903 61.6189 45.2347C61.5957 42.2091 57.8912 43.1734 57.8912 40.9754C57.8912 40.0339 58.5651 39.4055 59.3736 39.4055C60.0924 39.4055 60.6524 39.6076 61.0566 40.0118C60.6524 39.6311 60.4503 39.0916 60.4503 38.5771C60.4503 37.7231 60.9894 36.9389 61.9729 36.9389V36.9389ZM45.3354 13.9992C45.155 13.7074 44.4864 13.5519 44.1725 13.5519C43.184 13.5519 42.5115 14.2469 42.3766 14.8753C42.2873 14.65 42.219 14.3814 42.219 14.112C42.219 13.1256 42.8926 11.9147 44.5319 11.9147C45.9634 11.9147 46.5235 12.6769 46.7267 12.6769C46.9501 12.6769 47.175 12.4517 47.3551 12.4517C47.6016 12.4517 47.6016 12.8339 47.6016 13.1036C47.6016 13.9992 47.1985 15.5471 46.1879 16.1078C46.0079 15.726 45.6488 15.3005 45.0696 15.0322C45.0024 15.0054 44.9449 14.9589 44.9049 14.8987C44.8648 14.8385 44.8441 14.7675 44.8454 14.6952C44.8454 14.449 45.0696 14.1341 45.335 13.9992H45.3354ZM41.9504 15.6364C42.5339 16.1975 43.0484 16.4441 43.6768 16.4441C43.9252 16.4441 44.217 16.3776 44.3746 16.3776C44.576 16.3776 44.7105 16.4658 44.7105 16.6231C44.7105 16.87 44.4864 17.2735 44.217 17.4984C44.4864 17.6102 44.7781 17.6557 45.0927 17.6557C46.3666 17.6557 47.8255 16.8469 47.8255 14.8301C48.0952 15.188 48.2532 15.9289 48.2532 16.2648C48.2532 18.7093 46.4573 19.6505 44.8013 19.6505C43.7231 19.6505 43.184 19.2915 43.0484 19.2915C42.6239 19.2915 42.6464 20.1444 42.3546 20.122C41.8379 20.0327 41.3682 18.8883 41.3682 17.6774C41.3682 16.9597 41.5472 16.1972 41.9504 15.6364V15.6364ZM22.7555 1.37506C22.7555 1.2402 22.0829 1.1057 21.1638 1.1057C19.7067 1.1057 19.9077 2.3173 18.7876 2.3173C17.6212 2.3173 17.9119 1.06015 16.432 1.06015C15.5346 1.06015 14.7062 1.21814 14.7062 1.41954C14.7062 1.6889 15.7598 1.57717 15.7598 2.3173C15.7598 3.10155 13.4953 3.32679 13.4953 3.79755C13.4953 3.9534 13.6732 4.02066 13.8974 4.02066C14.3913 4.02066 15.1759 3.7972 15.7371 3.7972C16.0516 3.7972 16.343 3.86374 16.343 4.15552C16.343 4.7163 15.1314 5.72615 15.1314 6.1745C15.1314 6.30936 15.2432 6.35455 15.3556 6.35455C15.804 6.35455 16.5665 5.2102 17.2842 5.2102C18.4727 5.2102 17.6888 7.74406 18.3382 7.74406C19.0118 7.74406 18.7203 5.25432 19.6836 5.25432C20.47 5.25432 21.0521 6.98081 21.5901 6.98081C21.725 6.98081 21.8374 6.86943 21.8374 6.71144C21.8374 6.24175 21.1638 5.27638 21.1638 4.64905C21.1638 4.26796 21.4332 4.08791 21.7922 4.08791C22.3071 4.08791 23.0031 4.40175 23.3828 4.40175C23.518 4.40175 23.6525 4.35763 23.6525 4.20071C23.6525 3.66269 21.6574 3.07949 21.6574 2.38455C21.6574 1.6889 22.7555 1.6889 22.7555 1.37506V1.37506ZM28.0257 3.66269C28.0257 4.06585 29.4383 4.94083 30.0891 4.94083C30.4691 4.94083 30.5816 4.42488 30.5816 3.8858C30.5816 3.21399 30.2912 3.19193 29.7069 3.19193C28.9679 3.19193 28.0257 3.39404 28.0257 3.66269V3.66269ZM30.3585 8.10203C30.3585 6.75699 26.7194 4.31315 26.6803 3.25918C26.6763 3.16311 26.7287 3.06703 26.8098 2.98092C27.4336 2.32441 30.0215 1.84476 30.0215 1.28468C30.0215 0.993966 29.4828 0.993966 29.2131 0.993966C27.1286 0.993966 24.0788 1.75615 24.0788 2.49628C24.0788 3.25954 26.8141 5.12053 26.8141 6.03964C26.8141 6.28694 26.6571 6.37661 26.4098 6.37661C25.6484 6.37661 23.9884 5.45643 23.2038 5.45643C22.8451 5.45643 22.7103 5.70302 22.7103 6.0617C22.7103 7.1388 23.9884 9.17877 23.9884 9.78368C23.9884 9.85093 23.9663 9.94025 23.8767 9.94025C23.4724 9.94025 21.568 7.69887 20.8945 7.69887C20.6479 7.69887 20.6258 8.03477 20.6258 8.52831V9.29085C20.6258 9.80681 20.6027 10.1199 20.3575 10.1199C19.774 10.1199 19.5035 8.48312 18.9449 8.48312C18.3613 8.48312 18.2489 11.3984 17.6888 11.3984C17.038 11.3984 17.5991 8.1917 16.9707 8.1917C16.2758 8.1917 15.4905 10.3224 14.9969 10.3224C14.818 10.3224 14.7735 10.1424 14.7735 9.98544C14.7735 9.33605 15.1535 8.28208 15.1535 7.65475C15.1535 7.33984 15.0642 7.16086 14.7955 7.16086C14.0999 7.16086 12.5744 8.28208 11.9923 8.28208C11.9026 8.28208 11.7909 8.23689 11.7909 8.14722C11.7909 7.60956 14.2344 5.90513 14.2344 5.14294C14.2344 4.40175 10.87 4.89635 10.87 4.04343C10.87 3.32679 13.2712 2.58559 13.2712 1.84653C13.2715 1.19501 10.4224 0.904297 9.32465 0.904297C8.00025 0.904297 7.28432 1.06015 7.28432 1.44231C7.28432 2.02587 10.2889 2.20557 10.2889 2.72045C10.2889 3.21399 7.17188 4.53661 7.17188 5.2988C7.17188 5.97238 11.5657 5.34399 11.5657 6.03964C11.5657 6.80182 7.73266 10.0972 7.73266 11.1963C7.73266 11.4436 7.91271 11.555 8.15788 11.555C9.32465 11.555 12.3503 9.33605 13.1808 9.33605C13.4726 9.33605 13.4953 9.69401 13.4953 10.0075C13.4953 10.5918 13.2932 11.4878 13.2932 12.1386C13.2932 12.6545 13.4284 13.0132 13.8757 13.0132C14.7062 13.0132 15.4684 11.6005 16.0285 11.6005C16.7455 11.6005 16.321 15.7485 17.397 15.7485C18.3161 15.7485 18.6972 11.2636 19.2793 11.2636C19.8636 11.2636 20.3351 12.5648 20.872 12.5648C21.5446 12.5648 21.2314 10.3003 21.9491 10.3003C22.7334 10.3003 24.9748 12.9911 25.9853 12.9911C26.2985 12.9911 26.4098 12.7438 26.4098 12.4289C26.4098 11.2415 24.7517 8.55144 24.7517 7.69887C24.7517 7.4747 24.8178 7.40709 25.0644 7.40709C25.9401 7.40709 28.4964 8.61798 29.7069 8.61798C30.1112 8.61798 30.3585 8.39381 30.3585 8.10203V8.10203ZM9.88401 6.80182C9.88401 7.25017 8.18065 8.75177 7.5761 8.75177C7.35193 8.75177 7.28432 8.48312 7.28432 8.23689C7.28432 7.78925 7.48572 7.16086 7.73302 6.95875C8.02373 6.68938 8.69625 6.55666 9.2122 6.55666C9.52498 6.55666 9.88401 6.62213 9.88401 6.80218V6.80182ZM26.3661 9.11152C26.3661 9.89612 29.1693 13.7302 29.7073 13.7302C30.1567 13.7302 30.4916 12.9459 30.4916 12.272C30.4916 12.0941 30.4474 11.9151 30.3588 11.7795C29.9546 11.2195 27.1069 8.97701 26.4785 8.97701C26.4102 8.97701 26.3657 9.04462 26.3657 9.11152H26.3661ZM62.3764 2.31765C62.3764 2.63043 62.623 2.87666 62.9376 2.87666C63.0113 2.87747 63.0844 2.86359 63.1527 2.83583C63.221 2.80807 63.283 2.76699 63.3353 2.71498C63.3875 2.66298 63.4289 2.60109 63.4569 2.53294C63.485 2.46478 63.4992 2.39172 63.4987 2.31801C63.4987 2.0031 63.2514 1.75651 62.9376 1.75651C62.8636 1.7557 62.7903 1.76966 62.7219 1.79757C62.6534 1.82549 62.5912 1.86679 62.539 1.91906C62.4867 1.97133 62.4454 2.03351 62.4175 2.10196C62.3896 2.17041 62.3756 2.24374 62.3764 2.31765V2.31765ZM58.722 7.27294C58.722 5.68025 54.9132 5.27674 54.9132 4.91806C54.9132 4.62735 57.0411 4.13274 58.1392 4.11033C56.4579 1.95862 54.0607 2.18279 54.0607 1.8017C54.0607 1.57646 55.8555 1.12811 57.5126 1.12811C58.9024 1.12811 60.2034 1.44196 60.2034 2.49557C60.2034 3.07984 59.733 3.68511 59.733 4.58216C59.733 5.07605 59.9785 5.50127 60.6307 5.50127C61.3267 5.50127 61.4836 4.76114 61.4836 3.97582C61.4836 3.32643 61.3708 2.83254 61.3708 2.5187C61.3708 1.57646 62.0174 0.949487 62.9376 0.949487C63.7008 0.949487 63.8798 1.28504 65.0021 1.28504C64.3958 1.64407 64.1723 2.29559 64.1723 2.60837C64.1723 3.55061 64.7786 4.20106 64.7786 6.12966C64.7786 9.67124 61.4605 10.9273 57.4001 10.9273C56.2828 10.9273 55.0933 10.8376 53.9258 10.6587C53.7468 10.6366 53.7016 10.5911 53.7016 10.4797C53.7016 10.1872 55.2954 10.0303 55.2954 8.59628C55.2954 8.03513 55.1154 7.49712 55.1154 7.295C55.1154 7.18363 55.205 7.11602 55.2954 7.11602C55.6324 7.11602 56.306 8.41623 57.5578 8.41623C57.8919 8.41623 58.7224 8.30378 58.7224 7.27294H58.722ZM62.5102 5.00844C62.5102 7.00358 61.0574 8.52902 58.4296 8.9546C58.7224 8.9763 58.9918 8.9763 59.2611 8.9763C62.3312 8.9763 63.4535 7.58679 63.4535 6.42144C63.4535 5.77063 63.0941 5.18742 62.5102 5.0088V5.00844ZM60.967 33.9122C61.3264 32.7913 61.7758 32.0056 62.5109 30.7951C61.7758 30.4151 59.823 29.6066 59.823 28.2829C59.823 26.7365 61.7527 25.526 62.1519 25.526C62.3309 25.526 62.3761 25.6825 62.3761 25.9743C62.3761 26.781 61.995 28.0819 61.995 28.7768C61.995 29.4045 62.3992 30.0108 62.7582 30.0108C63.139 30.0108 64.194 28.6654 64.194 27.3421C64.194 24.9637 62.1067 24.2468 61.4612 24.2468C60.8545 24.2468 59.7557 25.2335 57.1752 25.2335C52.3559 25.2335 51.2557 20.4589 51.2557 18.3724C51.2557 18.283 51.2777 18.2599 51.3001 18.2599C51.4126 18.2599 51.8841 18.8442 53.4095 18.8442C54.1948 18.8442 54.9129 18.6421 56.0583 18.6421C58.7448 18.6421 59.9347 20.5041 61.5957 22.8793C62.6002 23.507 65.0024 24.5161 65.0024 27.3642C65.0024 29.876 62.3309 31.2666 61.6854 33.9566C62.713 33.846 63.3194 32.0056 64.373 32.0056C64.9121 32.0056 65.1594 32.4319 65.1594 33.1059C65.1594 34.0915 64.5982 35.5725 63.5204 36.4916C63.5435 36.4008 63.5435 36.2895 63.5435 36.1546C63.5435 35.5273 63.2973 34.6313 62.5782 34.6313C61.4609 34.6313 61.1011 35.8411 60.4734 36.8495C59.823 34.5637 58.9469 32.4995 57.3784 31.2434C55.7897 29.9653 53.0505 30.6602 53.0505 28.3285C53.0505 27.7001 53.4547 26.8041 53.4547 26.086C53.4547 25.8398 53.4095 25.6153 53.275 25.4356C55.4299 26.244 54.6663 27.6777 55.9907 29.1579C56.8162 30.1002 59.1042 30.9972 60.4293 34.8765C60.4507 34.764 60.4734 34.4733 60.4734 34.2712C60.4734 30.952 56.0804 27.7001 55.6993 26.3547C58.2513 26.6465 58.6996 27.2745 59.9123 30.6382C60.1589 31.3342 60.9673 33.0607 60.9673 33.9122H60.967ZM60.3838 23.0362C60.3838 22.5655 59.1935 22.5213 59.0818 21.198C59.0587 20.9959 58.9925 20.6379 58.7452 20.6379C58.341 20.6379 58.6544 21.8709 58.2061 21.8709C57.1753 21.8709 56.8397 19.8526 56.4575 19.8526C56.3668 19.8526 56.2604 19.9202 56.2604 20.1896C56.2604 20.4358 56.3056 20.5938 56.3056 20.8834C56.3056 21.1759 56.238 21.377 55.9686 21.377C55.3623 21.377 54.8243 19.9654 54.3076 19.9654C54.1948 19.9654 54.0834 20.0327 54.0834 20.1444C54.0834 20.4137 54.5318 20.9066 54.5318 21.1539C54.5318 21.6919 53.0736 21.4001 53.0736 21.8488C53.0736 22.0509 53.275 22.1171 53.5444 22.1171C54.0158 22.1171 54.757 21.9161 55.1381 21.9161C55.3623 21.9161 55.6993 21.9613 55.6993 22.252C55.6993 22.5655 54.8915 22.969 54.8915 23.2604C54.8915 23.3952 55.0268 23.4614 55.1381 23.4614C55.7445 23.4614 56.8166 22.4089 57.5795 22.4089C57.7133 22.4089 58.0492 22.4761 58.0492 22.6782C58.0492 22.969 57.2877 23.4839 57.2877 23.9101C57.2877 24.0226 57.3553 24.1574 57.4902 24.1574C57.8912 24.1574 58.4303 23.1035 59.1935 23.1035C59.486 23.1035 59.9123 23.2163 60.1365 23.2163C60.3169 23.2163 60.3841 23.1035 60.3841 23.0362" fill="#0F0E9A"/>
<path d="M43.6783 9.60421C44.0384 9.60421 44.1057 10.4795 44.174 10.9944C44.2185 11.2642 44.2637 11.2862 44.3765 11.2862C44.6458 11.2862 45.071 10.2543 45.3585 10.2543C45.7841 10.2543 46.9295 11.4428 48.8368 11.4428C51.5489 11.4428 54.107 9.5366 54.107 6.17401C54.107 2.92314 51.8172 1.0166 48.6567 1.0166C47.1548 1.0166 46.0535 1.75673 45.4703 1.75673C45.1162 1.77879 44.5771 0.882812 44.3078 0.882812C44.1964 0.882812 44.0836 1.10592 44.0836 1.48701C44.0836 1.73467 44.0836 2.51892 43.8142 2.51892C43.2741 2.51892 41.1896 0.972482 41.1896 1.53256C41.1896 2.04851 42.5795 3.61772 42.5795 4.02123C42.5795 4.42546 41.2117 4.80655 41.2117 5.07591C41.2117 5.56874 42.6699 5.65805 42.6699 6.2868C42.6699 6.91413 41.1445 7.40767 41.1445 7.8795C41.1445 8.25953 42.6699 7.99087 42.6699 8.46164C42.6699 8.9324 41.5487 10.502 41.5487 10.9492C41.5487 11.062 41.5707 11.062 41.6604 11.062C42.0856 11.062 43.3638 9.60385 43.6783 9.60385V9.60421ZM44.3309 5.92777C44.3309 5.68118 43.4541 5.21077 43.4541 4.94105C43.4541 4.89693 43.4983 4.8738 43.5669 4.8738C43.8142 4.8738 44.2405 4.96418 44.5775 4.96418C44.87 4.96418 44.9141 3.7081 45.1344 3.7081C45.2902 3.7081 45.5599 4.89693 45.8083 4.89693C46.0987 4.89693 46.6367 4.55996 46.8619 4.55996C46.9071 4.55996 46.9516 4.58238 46.9516 4.62757C46.9516 4.78413 46.3905 5.38869 46.3905 5.56874C46.3905 5.77085 47.6472 6.01709 47.6472 6.19714C47.6472 6.42131 46.3684 6.39925 46.3684 6.60136C46.3684 6.75721 46.8399 7.38561 46.8399 7.58701C46.8399 7.6322 46.8167 7.65533 46.7723 7.65533C46.5926 7.65533 45.8969 7.34042 45.6945 7.34042C45.4482 7.34042 45.049 8.25953 44.8469 8.25953C44.7793 8.25953 44.7351 8.16986 44.7351 8.05741L44.6889 7.16072C44.6889 7.07105 44.6458 6.98138 44.533 6.98138C44.2637 6.98138 43.7466 6.95826 43.589 6.95826C43.4762 6.95826 43.4321 6.93619 43.4321 6.89207C43.4321 6.71202 44.3309 6.08434 44.3309 5.92777V5.92777ZM48.7026 10.1878C47.132 10.1878 46.099 9.40352 46.099 8.9993C46.099 8.79718 46.2339 8.66339 46.4139 8.66339C46.9075 8.66339 47.9846 9.42487 48.3436 9.42487C48.4329 9.42487 48.5002 9.38039 48.5002 9.24553C48.5002 8.84131 48.1194 8.1695 48.1194 7.83395C48.1194 7.74428 48.1867 7.67703 48.3215 7.67703C48.9265 7.67703 49.8256 7.92433 50.2975 7.92433C50.4533 7.92433 50.4974 7.83395 50.4974 7.74428C50.4974 7.25075 49.0393 6.28645 49.0393 5.99467C49.0393 5.7253 50.8522 5.32108 50.8522 4.89658C50.8522 4.44716 48.3877 4.761 48.3877 4.33543C48.3877 4.02088 48.8592 3.48286 48.8592 3.23627C48.8592 3.12383 48.7699 3.07971 48.613 3.07971C48.4109 3.07971 47.3341 3.50599 46.8854 3.50599C46.6602 3.50599 46.3908 3.4608 46.3908 3.14696C46.3908 2.62994 47.2665 2.06986 48.635 2.06986C50.8522 2.06986 52.1777 3.59531 52.1777 6.15123C52.1777 9.38039 49.9142 10.1878 48.7026 10.1878ZM33.5208 48.9811C33.5208 49.1832 33.4532 49.4084 33.2735 49.6319C33.028 49.1835 32.332 48.9579 32.0174 48.9594C29.7088 48.9594 30.5824 52.3006 28.1157 52.3006C27.0853 52.3006 26.9949 52.1658 26.6134 52.1658C26.4569 52.1658 26.3672 52.2334 26.3672 52.3679C26.3672 52.9521 27.1966 54.3861 29.5067 54.3861C31.816 54.3861 34.0364 52.9742 34.0364 51.2228C34.0364 50.9321 33.9691 50.6204 33.8343 50.3055C33.924 50.1706 34.1492 50.0813 34.3513 50.0813C34.7093 50.0813 34.9114 50.4855 35.2473 50.4855C35.607 50.4855 35.8757 50.2162 35.8757 49.8571C35.8757 49.5654 35.7191 49.3632 35.4494 49.2273C35.6294 49.0939 35.7632 48.8686 35.7632 48.6224C35.7632 48.241 35.4946 47.8841 35.0452 47.8841C34.8431 47.8841 34.7093 47.9517 34.5523 48.1064C34.5082 47.7044 34.2841 47.3229 33.8574 47.3229C33.5208 47.3229 33.2735 47.5695 33.2735 47.9517C33.2735 48.3075 33.5208 48.6 33.5208 48.9811" fill="#0F0E9A"/>
<path d="M27.4875 49.8351C26.815 49.8351 25.8051 49.117 25.8051 48.7128C25.8051 48.3759 26.12 48.1962 26.3652 48.1962C26.9263 48.1962 27.9348 48.8918 27.9348 49.475C27.9348 49.633 27.8223 49.8351 27.4875 49.8351ZM21.2309 44.8122C23.0247 45.2588 23.9217 46.2231 24.1007 47.3685C24.2807 48.4655 24.5049 49.3633 24.9305 49.812C25.4913 50.4415 26.5894 50.9994 27.5547 50.9994C28.3625 50.9994 29.0108 50.7329 29.0108 49.992C29.0108 49.1843 27.9127 47.3685 26.2979 47.3685C26.1421 47.3685 25.94 47.3916 25.7158 47.3916C25.5137 47.3916 25.2219 47.3464 25.0419 47.1895C24.6839 46.8746 24.5722 45.1926 23.8986 44.1838C23.1595 43.063 22.3521 42.748 21.2541 42.748C20.4698 42.748 19.5938 43.1743 19.5938 43.8027C19.5938 44.1838 19.7959 44.4525 21.2309 44.8122Z" fill="#0F0E9A"/>
<path d="M32.4876 42.074C32.4876 41.0652 30.401 41.0431 30.401 39.5177C30.401 39.1355 30.6483 38.4858 31.1422 37.7901C31.3443 38.9565 31.8147 39.5622 32.8245 39.944C34.8193 40.683 35.089 41.8042 35.089 42.9938C35.089 45.0131 33.6764 47.5239 30.0441 47.5239C27.1281 47.5239 25.0425 44.9227 25.0425 42.7255C25.0425 42.1192 25.1991 41.4463 25.5805 41.4463C25.9172 41.4463 26.03 41.7149 26.2975 41.9843C27.3081 42.9938 28.4058 43.2624 29.9989 43.2624C31.4336 43.2624 32.4876 42.6803 32.4876 42.074ZM32.5769 43.6887C31.8079 44.041 31.5012 43.9805 31.5012 44.7669C31.5012 45.0572 31.4336 45.4373 31.4336 45.6394C31.4336 45.908 31.4788 46.066 31.7916 46.066C32.6 46.066 33.8781 44.6982 33.8781 43.5318C33.8781 43.2172 33.6981 43.0845 33.496 43.0845C33.3159 43.0845 33.116 43.4425 32.5769 43.6887V43.6887ZM25.4236 32.3651C25.4236 30.9294 28.8325 30.1672 28.8325 28.3955C28.8325 28.1037 28.7207 27.5888 28.5186 27.207C29.7071 27.8575 30.581 28.9577 30.581 29.8533C30.581 31.4012 28.967 32.1178 28.967 33.0832C28.967 34.2044 30.6935 34.3834 30.6935 35.774C30.6935 36.9162 29.0556 38.2399 29.0556 39.7202C29.0556 40.8631 29.864 41.8042 31.097 41.9612C30.6935 42.0515 30.3348 42.1192 29.9537 42.1192C27.6881 42.1192 25.3564 40.2589 25.3564 38.0378C25.3564 36.9383 25.8278 35.9761 26.5448 35.2801C27.1732 35.8185 27.8009 36.1772 28.2037 36.1772C28.5631 36.1772 28.7208 35.9982 28.7208 35.7288C28.7208 34.8983 25.4236 34.1372 25.4236 32.3651V32.3651ZM12.417 43.4421C12.5116 44.2082 13.2254 44.7882 14.0317 44.6989C14.3224 44.6669 14.5929 44.5861 14.7729 44.4748C14.9519 45.1918 15.5543 45.6533 16.3678 45.5465C17.1933 45.4391 17.7555 44.7886 17.6658 43.9577C17.6498 43.7795 17.6044 43.6051 17.5313 43.4418C17.5313 43.4418 17.6409 43.4311 17.7235 43.4147C18.5326 43.2617 19.0788 42.6123 19.0116 41.827C18.9219 41.0207 18.1978 40.4215 17.4427 40.514C17.1509 40.5499 16.8805 40.6606 16.7005 40.8186C16.4983 40.1468 15.866 39.5615 15.0021 39.7052C14.2228 39.834 13.7069 40.4959 13.7855 41.3342C13.7976 41.4701 13.8296 41.626 13.8972 41.7818L13.6748 41.8149C13.0201 41.9124 12.3102 42.5711 12.417 43.4421V43.4421ZM16.6072 42.56C16.6225 42.6723 16.6152 42.7865 16.5857 42.896C16.5563 43.0054 16.5054 43.1079 16.4359 43.1974C16.3664 43.2869 16.2798 43.3617 16.1811 43.4173C16.0824 43.473 15.9735 43.5084 15.861 43.5215C15.7484 43.5346 15.6344 43.5251 15.5255 43.4937C15.4167 43.4622 15.3152 43.4093 15.227 43.3381C15.1388 43.267 15.0657 43.1789 15.0119 43.0792C14.9581 42.9794 14.9248 42.8699 14.9138 42.7572C14.9009 42.646 14.91 42.5333 14.9406 42.4256C14.9712 42.318 15.0227 42.2174 15.0921 42.1296C15.1616 42.0418 15.2477 41.9686 15.3454 41.9141C15.4432 41.8596 15.5508 41.8248 15.662 41.8119C15.7732 41.799 15.8858 41.808 15.9935 41.8386C16.1012 41.8692 16.2018 41.9207 16.2895 41.9902C16.3773 42.0597 16.4505 42.1457 16.5051 42.2435C16.5596 42.3413 16.5943 42.4488 16.6072 42.56Z" fill="#0F0E9A"/>
</svg>
