<svg width="144" height="38" viewBox="0 0 144 38" fill="none" xmlns="http://www.w3.org/2000/svg">
<path fill-rule="evenodd" clip-rule="evenodd" d="M17.9756 2.71551C18.7248 2.67313 19.2979 2.03139 19.2555 1.28213C19.2131 0.53287 18.5714 -0.0401704 17.8221 0.00220681C5.43205 0.702976 0.376647 10.5396 0.0041523 15.3326C-0.0539958 16.0808 0.505401 16.7345 1.2536 16.7926C2.0018 16.8507 2.65547 16.2914 2.71362 15.5432C3.00273 11.8232 7.2097 3.32442 17.9756 2.71551ZM19.8075 18.7142C19.8075 19.357 19.2734 19.9256 18.5555 19.9256C17.8377 19.9256 17.3036 19.357 17.3036 18.7142C17.3036 18.0714 17.8377 17.5028 18.5555 17.5028C19.2734 17.5028 19.8075 18.0714 19.8075 18.7142ZM22.5251 18.7142C22.5251 20.8841 20.7479 22.6432 18.5555 22.6432C16.3632 22.6432 14.5859 20.8841 14.5859 18.7142C14.5859 16.5442 16.3632 14.7852 18.5555 14.7852C20.7479 14.7852 22.5251 16.5442 22.5251 18.7142ZM24.9879 2.32478C25.36 1.67309 26.19 1.44647 26.8417 1.8186C31.3337 4.38368 33.8478 7.17937 35.3077 9.93382C36.6517 12.4696 37.0533 14.8957 37.3641 16.7723L37.3645 16.7749C37.3873 16.9127 37.4096 17.0476 37.4318 17.1794C37.5564 17.9194 37.0575 18.6204 36.3175 18.745C35.5775 18.8696 34.8765 18.3707 34.7519 17.6307C34.7316 17.5097 34.7113 17.3882 34.691 17.2661L34.6905 17.2634C34.3741 15.3651 34.0364 13.3383 32.9065 11.2065C31.7199 8.9678 29.6028 6.52478 25.4941 4.17858C24.8424 3.80645 24.6158 2.97647 24.9879 2.32478ZM35.997 26.17C36.317 25.4912 36.0262 24.6815 35.3474 24.3615C34.6686 24.0414 33.8589 24.3323 33.5389 25.0111C31.4028 29.5416 28.0598 31.9781 24.2412 33.8678C23.5686 34.2007 23.2932 35.0158 23.6261 35.6884C23.959 36.361 24.774 36.6364 25.4466 36.3035C29.5673 34.2643 33.5019 31.462 35.997 26.17ZM2.07396 25.0311C2.7438 24.6927 3.56112 24.9614 3.8995 25.6313C8.17065 34.0863 16.2859 34.9151 19.8092 34.71C20.5584 34.6664 21.2011 35.2384 21.2447 35.9875C21.2884 36.7367 20.7164 37.3794 19.9672 37.423C15.9924 37.6545 6.46503 36.7371 1.4738 26.8566C1.13542 26.1868 1.40412 25.3695 2.07396 25.0311ZM9.76411 12.27C10.1832 11.6475 10.0183 10.8031 9.39583 10.384C8.77332 9.96483 7.92891 10.1297 7.50979 10.7522C4.63122 15.0277 3.46618 21.5983 7.91113 27.099C8.3828 27.6827 9.23835 27.7735 9.82205 27.3018C10.4058 26.8302 10.4966 25.9746 10.0249 25.3909C6.53259 21.0691 7.3521 15.8525 9.76411 12.27ZM26.0989 8.75708C25.8116 9.45077 25.0165 9.78127 24.3231 9.49526C22.3361 8.67569 20.7855 8.1056 19.0901 7.9985C17.4292 7.89358 15.5087 8.2303 12.8485 9.47083C12.1679 9.78825 11.3596 9.49441 11.0433 8.81452C10.727 8.13463 11.0224 7.32615 11.7031 7.00873C14.6628 5.62851 17.0409 5.14612 19.2663 5.2867C21.4571 5.4251 23.3802 6.16511 25.3636 6.98319C26.057 7.26919 26.3862 8.06339 26.0989 8.75708ZM18.2812 13.1943C19.0316 13.1606 19.6148 12.526 19.5838 11.7769C19.5529 11.0278 18.9194 10.4479 18.169 10.4817C13.7975 10.6783 10.9353 13.9425 10.3488 17.4735C9.75035 21.0765 11.4943 25.0192 16.1392 26.5512C16.8516 26.7862 17.622 26.3994 17.8601 25.6873C18.0981 24.9752 17.7136 24.2075 17.0012 23.9726C13.7062 22.8858 12.6379 20.2803 13.032 17.9079C13.438 15.4635 15.3733 13.3251 18.2812 13.1943ZM20.3131 11.8903C19.9817 12.5619 20.2594 13.3767 20.9334 13.7101C22.7801 14.6237 24.0692 16.6909 24.1027 18.7723C24.134 20.7118 23.0662 22.8423 19.764 23.9791C19.0547 24.2233 18.6802 24.9959 18.9275 25.7049C19.1747 26.4139 19.95 26.7907 20.6593 26.5465C24.9649 25.0643 26.8741 21.9561 26.8223 18.7389C26.7727 15.6635 24.9189 12.6558 22.1336 11.2779C21.4597 10.9445 20.6446 11.2187 20.3131 11.8903ZM16.5527 29.3173C15.8456 29.0581 15.0596 29.4155 14.797 30.1157C14.5344 30.8159 14.8947 31.5937 15.6018 31.8529C17.2237 32.4475 19.2477 32.4125 21.2278 31.9314C23.232 31.4443 25.3232 30.4701 27.1293 29.0253C30.7934 26.0941 33.2692 21.2177 31.455 14.7491C31.2533 14.0299 30.5006 13.6092 29.7738 13.8096C29.047 14.01 28.6213 14.7555 28.8231 15.4747C30.3149 20.7938 28.3246 24.5944 25.4137 26.923C23.9323 28.1081 22.2088 28.9096 20.579 29.3056C18.925 29.7075 17.4956 29.663 16.5527 29.3173Z" fill="white"/>
<path fill-rule="evenodd" clip-rule="evenodd" d="M126.134 9.22656V28.225L130.209 25.3753V21.5756L137.341 28.225H143.453L137.341 21.5756H138.359C139.718 21.5756 142.434 21.1956 142.434 15.876C142.434 10.5565 138.869 9.22656 137.51 9.22656H126.134ZM130.209 18.7259V13.0264H136.321C137.951 13.0264 138.359 14.2929 138.359 14.9262V16.8261C138.359 18.3459 137.001 18.7259 136.321 18.7259H130.209ZM48.4509 9.22748V28.2259L52.5259 25.3762V21.5765L59.6572 28.2259H65.7696L58.6384 21.5765H60.1665C61.5249 21.5765 64.7509 21.1965 64.7509 15.8769C64.7509 10.5574 61.1853 9.22748 59.8269 9.22748H48.4509ZM52.5252 18.7258V13.0263H58.638C60.268 13.0263 60.6756 14.2929 60.6756 14.9262V16.826C60.6756 18.3459 59.3172 18.7258 58.638 18.7258H52.5252ZM70.8738 9.22656H66.7986V28.225H70.8738V9.22656ZM82.3195 9.22656H72.6414V28.225H76.207V22.5255H83.3382C85.8851 22.5255 88.9413 20.0557 88.9413 15.876C88.9413 10.5565 84.357 9.22656 82.3195 9.22656ZM76.1928 18.7249V13.0254H82.3056C83.7753 13.0254 84.8526 13.9209 84.8526 14.9253V16.8251C84.8526 18.25 83.3244 18.7249 82.3056 18.7249H76.1928ZM91.107 9.22656H100.785C102.823 9.22656 107.407 10.5565 107.407 15.876C107.407 20.0557 104.351 22.5255 101.804 22.5255H94.6726V28.225H91.107V9.22656ZM94.6695 13.0264V18.7259H100.782C101.801 18.7259 103.329 18.2509 103.329 16.8261V14.9262C103.329 13.9219 102.252 13.0264 100.782 13.0264H94.6695ZM108.306 9.22656H112.551V23.9504H124.224V28.225H108.306V9.22656Z" fill="white"/>
</svg>
