<svg width="39" height="38" viewBox="0 0 39 38" fill="none" xmlns="http://www.w3.org/2000/svg">
<path fill-rule="evenodd" clip-rule="evenodd" d="M18.9678 2.71551C19.717 2.67313 20.2901 2.03139 20.2477 1.28213C20.2053 0.53287 19.5636 -0.0401704 18.8143 0.00220681C6.42424 0.702976 1.36883 10.5396 0.99634 15.3326C0.938192 16.0808 1.49759 16.7345 2.24579 16.7926C2.99399 16.8507 3.64766 16.2914 3.70581 15.5432C3.99492 11.8232 8.20189 3.32442 18.9678 2.71551ZM20.7997 18.7142C20.7997 19.357 20.2656 19.9256 19.5477 19.9256C18.8299 19.9256 18.2958 19.357 18.2958 18.7142C18.2958 18.0714 18.8299 17.5028 19.5477 17.5028C20.2656 17.5028 20.7997 18.0714 20.7997 18.7142ZM23.5173 18.7142C23.5173 20.8841 21.7401 22.6432 19.5477 22.6432C17.3554 22.6432 15.5781 20.8841 15.5781 18.7142C15.5781 16.5442 17.3554 14.7852 19.5477 14.7852C21.7401 14.7852 23.5173 16.5442 23.5173 18.7142ZM25.9801 2.32478C26.3522 1.67309 27.1822 1.44647 27.8339 1.8186C32.3259 4.38368 34.84 7.17937 36.2999 9.93382C37.6439 12.4696 38.0455 14.8957 38.3563 16.7723L38.3567 16.7749C38.3795 16.9127 38.4018 17.0476 38.424 17.1794C38.5486 17.9194 38.0497 18.6204 37.3097 18.745C36.5697 18.8696 35.8687 18.3707 35.7441 17.6307C35.7238 17.5097 35.7035 17.3882 35.6832 17.2661L35.6827 17.2634C35.3663 15.3651 35.0286 13.3383 33.8987 11.2065C32.7121 8.9678 30.595 6.52478 26.4863 4.17858C25.8346 3.80645 25.608 2.97647 25.9801 2.32478ZM36.9892 26.17C37.3092 25.4912 37.0184 24.6815 36.3396 24.3615C35.6608 24.0414 34.8511 24.3323 34.5311 25.0111C32.395 29.5416 29.052 31.9781 25.2334 33.8678C24.5608 34.2007 24.2854 35.0158 24.6183 35.6884C24.9512 36.361 25.7662 36.6364 26.4388 36.3035C30.5595 34.2643 34.4941 31.462 36.9892 26.17ZM3.06615 25.0311C3.73599 24.6927 4.55331 24.9614 4.89169 25.6313C9.16284 34.0863 17.2781 34.9151 20.8014 34.71C21.5506 34.6664 22.1933 35.2384 22.2369 35.9875C22.2806 36.7367 21.7086 37.3794 20.9594 37.423C16.9846 37.6545 7.45722 36.7371 2.46599 26.8566C2.12761 26.1868 2.39631 25.3695 3.06615 25.0311ZM10.7563 12.27C11.1754 11.6475 11.0105 10.8031 10.388 10.384C9.76551 9.96483 8.9211 10.1297 8.50198 10.7522C5.62341 15.0277 4.45837 21.5983 8.90332 27.099C9.37499 27.6827 10.2305 27.7735 10.8142 27.3018C11.398 26.8302 11.4888 25.9746 11.0171 25.3909C7.52478 21.0691 8.34429 15.8525 10.7563 12.27ZM27.0911 8.75708C26.8038 9.45077 26.0087 9.78127 25.3153 9.49526C23.3283 8.67569 21.7777 8.1056 20.0823 7.9985C18.4214 7.89358 16.5009 8.2303 13.8407 9.47083C13.1601 9.78825 12.3518 9.49441 12.0355 8.81452C11.7192 8.13463 12.0146 7.32615 12.6953 7.00873C15.655 5.62851 18.0331 5.14612 20.2585 5.2867C22.4493 5.4251 24.3724 6.16511 26.3558 6.98319C27.0492 7.26919 27.3784 8.06339 27.0911 8.75708ZM19.2734 13.1943C20.0238 13.1606 20.607 12.526 20.576 11.7769C20.5451 11.0278 19.9116 10.4479 19.1612 10.4817C14.7897 10.6783 11.9275 13.9425 11.341 17.4735C10.7425 21.0765 12.4865 25.0192 17.1314 26.5512C17.8438 26.7862 18.6142 26.3994 18.8523 25.6873C19.0903 24.9752 18.7058 24.2075 17.9934 23.9726C14.6984 22.8858 13.6301 20.2803 14.0242 17.9079C14.4302 15.4635 16.3655 13.3251 19.2734 13.1943ZM21.3053 11.8903C20.9739 12.5619 21.2516 13.3767 21.9256 13.7101C23.7723 14.6237 25.0614 16.6909 25.0949 18.7723C25.1262 20.7118 24.0584 22.8423 20.7562 23.9791C20.0469 24.2233 19.6724 24.9959 19.9197 25.7049C20.1669 26.4139 20.9422 26.7907 21.6515 26.5465C25.9571 25.0643 27.8663 21.9561 27.8145 18.7389C27.7649 15.6635 25.9111 12.6558 23.1258 11.2779C22.4519 10.9445 21.6368 11.2187 21.3053 11.8903ZM17.5449 29.3173C16.8378 29.0581 16.0518 29.4155 15.7892 30.1157C15.5266 30.8159 15.8869 31.5937 16.594 31.8529C18.2159 32.4475 20.2399 32.4125 22.22 31.9314C24.2242 31.4443 26.3154 30.4701 28.1215 29.0253C31.7856 26.0941 34.2614 21.2177 32.4472 14.7491C32.2455 14.0299 31.4928 13.6092 30.766 13.8096C30.0392 14.01 29.6135 14.7555 29.8153 15.4747C31.3071 20.7938 29.3168 24.5944 26.4059 26.923C24.9245 28.1081 23.201 28.9096 21.5712 29.3056C19.9172 29.7075 18.4878 29.663 17.5449 29.3173Z" fill="white"/>
</svg>
