<svg width="100" height="119" viewBox="0 0 100 119" fill="none" xmlns="http://www.w3.org/2000/svg">
<rect x="5.10938" y="0.912109" width="86.7655" height="88.4296" rx="10.8049" fill="#A0C344"/>
<path d="M14.1929 12.0109C13.9968 12.1852 13.9968 77.9415 14.1711 78.421C14.3455 78.8787 17.9417 78.9005 19.8815 78.4428C23.238 77.6582 25.3739 75.5658 25.3739 73.0812C25.3739 72.6453 25.5047 72.7543 26.1367 73.6915C27.6406 75.9364 30.9317 77.8326 34.4189 78.4428C36.0318 78.748 37.2741 78.7915 40.0203 78.7044C43.9217 78.5954 45.4037 78.2467 47.9974 76.7864C49.6538 75.8492 52.9449 72.5145 54.1 70.5529C56.8027 66.0849 58.0232 60.8105 57.7834 54.686C57.6091 50.0654 56.6501 46.3384 54.6885 42.655C53.3808 40.1704 51.7897 38.2306 49.7846 36.6395C47.8448 35.0703 46.1666 34.2638 43.6819 33.6318C41.219 32.9997 36.5331 33.1305 34.201 33.8715C31.0843 34.8741 28.0765 36.8139 26.7688 38.6883L26.1367 39.6037L26.0713 25.7419L26.0278 11.8583H20.1866C16.9609 11.8583 14.2583 11.9237 14.1929 12.0109ZM39.6062 42.8512C42.178 44.0717 44.314 47.232 45.1204 51.0898C45.5999 53.3347 45.6653 58.6309 45.2512 60.4617C44.2268 64.7336 42.2652 67.9157 39.9113 69.0491C36.3151 70.7927 31.6291 69.9209 29.0573 67.0221C27.597 65.3875 27.0085 64.3413 26.2457 61.9874C25.3085 59.1322 25.047 56.6258 25.3739 53.9885C25.9406 49.3026 27.6624 45.8589 30.3432 43.8973C32.4791 42.3717 33.1766 42.1537 35.9446 42.2191C38.0369 42.2627 38.5164 42.3499 39.6062 42.8512Z" fill="#DB1C25"/>
<path d="M41.2832 21.5583V31.2572H42.2204C43.5063 31.2572 45.4025 31.7803 46.95 32.5649C47.6692 32.9136 48.3013 33.2188 48.3667 33.2188C48.432 33.2188 48.4756 28.402 48.4756 22.5391V11.8594H44.8794H41.2832V21.5583Z" fill="black"/>
<path d="M56.845 33.3078C55.9732 33.4821 54.9052 33.7219 54.4475 33.8744C53.7065 34.1142 51.5705 35.095 51.3308 35.3129C51.2872 35.3565 51.7231 35.9014 52.3116 36.5553C52.9001 37.1873 53.7283 38.1681 54.1424 38.7348C54.8616 39.7156 54.9488 39.7592 55.6681 39.6066C56.0822 39.4976 57.6078 39.4322 59.0463 39.4322C61.5528 39.4322 61.7271 39.4758 63.1656 40.1515C67.7644 42.331 70.4888 48.3029 70.4888 56.28C70.4888 64.8019 66.9144 71.1225 61.3348 72.4738C59.8092 72.8443 56.954 72.8008 55.6245 72.3866C54.6001 72.0597 54.6001 72.0597 54.2296 72.6482C54.0116 72.9533 53.0744 74.0213 52.1154 75.0021C51.1564 76.0047 50.3936 76.8547 50.459 76.8983C50.8077 77.2034 52.5295 77.9226 53.6193 78.206C55.777 78.7727 59.8963 79.056 62.1412 78.7945C64.5169 78.5329 67.0888 77.7047 68.8324 76.6585C70.3799 75.6995 72.9735 73.1713 74.1504 71.4277C77.3761 66.6763 79.0544 59.3749 78.3569 53.0979C77.4197 44.4669 73.6709 38.2117 67.6119 35.0514C64.2772 33.3296 60.1797 32.6757 56.845 33.3078Z" fill="black"/>
<path d="M0.742188 103.591V113.574H1.43979C2.52227 113.574 3.3642 113.165 3.67691 112.492C3.94152 111.89 3.96558 111.89 4.44668 112.347C5.40888 113.213 6.44326 113.574 8.07901 113.574C10.6529 113.574 12.1203 112.516 13.0825 110.038C14.4536 106.526 13.2268 101.98 10.6048 100.633C8.75255 99.6944 5.69755 100.103 4.59101 101.426C4.27829 101.811 4.20613 101.45 4.10991 97.794L3.98963 93.7287L2.37794 93.6566L0.742188 93.5844V103.591ZM9.06527 103.591C10.8453 105.612 10.3402 109.966 8.24739 110.856C6.53948 111.578 4.7594 110.567 4.13396 108.547C2.88309 104.313 6.51542 100.681 9.06527 103.591Z" fill="#DB1C25"/>
<path d="M14.8866 95.0522L14.9828 96.5195L16.5705 96.4474L18.1822 96.3752V95.0522V93.7291L16.4983 93.657L14.8145 93.5848L14.8866 95.0522Z" fill="#DB1C25"/>
<path d="M33.9395 103.473V113.335H34.7814C35.5271 113.335 35.6955 113.239 35.912 112.614L36.1525 111.892L36.8261 112.614C37.668 113.504 38.4618 113.816 39.9051 113.816C42.3347 113.792 44.1629 112.277 45.0048 109.583C46.1595 105.806 45.0529 101.837 42.5031 100.586C40.6989 99.7201 38.0529 100.057 36.9704 101.284C36.7058 101.548 36.4171 101.789 36.2969 101.789C36.2006 101.789 36.1044 99.9366 36.1044 97.6995V93.6101H35.0219H33.9635L33.9395 103.473ZM41.156 102.174C42.7436 102.799 43.2007 103.834 43.2007 106.72C43.2007 109.775 42.7677 110.761 41.0598 111.627C39.9773 112.181 39.857 112.181 38.8226 111.868C38.0769 111.627 37.4756 111.218 36.9704 110.593C36.2969 109.775 36.2247 109.486 36.1525 107.706C36.0082 104.603 36.7058 102.847 38.3656 102.126C39.3519 101.693 40.0013 101.717 41.156 102.174Z" fill="black"/>
<path d="M71.2246 103.713V113.816H72.1868H73.149V111.339V108.837L74.1353 108.043C75.314 107.105 75.0013 106.816 77.5511 110.978L79.259 113.816H80.5339C81.2315 113.816 81.8089 113.768 81.8089 113.72C81.8089 113.672 80.6542 111.796 79.235 109.583L76.6851 105.541L78.9463 103.401C80.7264 101.717 81.1353 101.236 80.8467 101.067C79.7161 100.346 78.6576 100.923 75.7951 103.809C74.5442 105.084 73.4377 106.119 73.3415 106.119C73.2212 106.119 73.149 103.304 73.149 99.8644V93.6101H72.1868H71.2246V103.713Z" fill="black"/>
<path d="M95.2796 97.0981V100.586H94.4376C93.6438 100.586 93.5957 100.634 93.5957 101.404C93.5957 102.198 93.6438 102.246 94.4617 102.318L95.3277 102.39L95.3036 107.009C95.2555 113.071 95.5442 113.816 98.0459 113.816C99.2487 113.816 99.6095 113.6 99.6095 112.878C99.6095 112.301 99.4892 112.205 98.5992 111.988L97.5648 111.772L97.4926 107.009L97.4445 102.27H98.527C99.1284 102.27 99.6095 102.15 99.6095 102.029C99.6095 101.572 98.4548 100.586 97.9256 100.586C97.4686 100.586 97.4445 100.442 97.4445 97.0981V93.6101H96.362H95.2796V97.0981Z" fill="black"/>
<path d="M22.6087 100.585C20.107 101.908 18.9764 105.132 19.7702 108.692C20.107 110.256 21.0932 111.627 22.3922 112.3C23.2823 112.757 23.7634 112.854 25.1826 112.805C26.674 112.733 26.9867 112.637 27.8768 111.939L28.8871 111.122V112.541C28.8871 114.778 27.8768 115.981 26.0245 115.981C24.9421 115.981 23.9317 115.524 23.595 114.898C23.3063 114.345 23.1379 114.297 21.5984 114.297H19.9386L20.107 114.946C20.3475 116.029 20.8767 116.63 22.0795 117.352C23.0417 117.905 23.5469 118.025 25.3991 118.098C27.2514 118.194 27.7806 118.122 28.8149 117.665C30.2101 117.063 31.3407 115.981 31.7978 114.778C32.0143 114.177 32.1345 111.988 32.2067 107.128C32.2789 100.682 32.2789 100.345 31.8459 100.345C30.8596 100.345 29.5847 100.874 29.1998 101.451L28.8149 102.053L28.2136 101.427C26.9627 100.08 24.3166 99.6713 22.6087 100.585ZM27.3957 102.991C28.406 103.616 28.8871 104.747 28.8871 106.479C28.8871 108.211 28.4301 109.293 27.3716 109.919C24.9902 111.41 22.6328 109.366 22.9214 106.07C23.0658 104.362 23.5469 103.448 24.5572 102.943C25.6637 102.39 26.4094 102.39 27.3957 102.991Z" fill="#DB1C25"/>
<path d="M49.671 100.369C48.5405 100.682 47.482 101.788 47.1693 102.967C47.025 103.544 46.9528 104.049 47.025 104.121C47.3377 104.434 48.4923 103.857 49.3102 102.967C50.3205 101.86 51.4271 101.499 52.9425 101.788C54.2656 102.029 55.1075 102.846 55.1075 103.881C55.1075 105.156 54.5061 105.541 52.2449 105.733C48.5405 106.07 47.0971 106.84 46.4477 108.836C45.8703 110.664 46.8085 112.757 48.5405 113.479C50.1762 114.176 52.5577 113.768 54.1934 112.541C55.1797 111.771 55.3481 111.747 55.3481 112.324C55.3481 113.214 56.8154 113.96 57.946 113.647C58.355 113.551 58.4752 113.335 58.4752 112.685C58.4752 112.204 58.379 111.915 58.2347 112.012C58.1144 112.084 57.7776 112.036 57.513 111.891C57.056 111.651 57.0319 111.41 57.0319 106.96V102.293L56.3103 101.475C55.9254 101.042 55.1797 100.537 54.6745 100.393C53.568 100.056 50.7535 100.056 49.671 100.369ZM55.0594 108.427C54.9632 109.895 54.891 110.087 54.0972 110.833C52.6539 112.156 50.1521 112.493 49.0697 111.506C48.1556 110.664 48.2758 108.764 49.3102 108.115C49.5748 107.946 50.7776 107.658 52.0284 107.441C53.2553 107.225 54.3137 107.008 54.3618 106.936C54.4099 106.888 54.6264 106.84 54.8188 106.84C55.0835 106.84 55.1316 107.152 55.0594 108.427Z" fill="black"/>
<path d="M61.6024 100.633C60.2072 101.331 59.4374 102.51 59.4374 103.857C59.4374 106.022 60.3275 106.767 64.056 107.682C66.8223 108.379 67.6162 108.884 67.6162 109.943C67.6162 112.565 61.8429 112.757 61.1694 110.159C61.001 109.438 60.8807 109.365 59.9426 109.293L58.9082 109.221L59.0766 110.135C59.3171 111.53 59.9426 112.42 61.1453 113.094C62.0594 113.623 62.5165 113.695 64.3687 113.695C66.2931 113.695 66.654 113.623 67.6643 113.046C70.2141 111.53 70.5028 108.066 68.1454 106.864C67.6402 106.599 66.3172 106.166 65.1866 105.877C62.3481 105.132 61.6505 104.819 61.458 104.097C61.2416 103.231 61.458 102.846 62.3721 102.269C63.5268 101.523 65.6677 101.692 66.6058 102.582C67.2794 103.207 68.3138 103.712 68.9873 103.712C69.4444 103.712 69.2279 102.702 68.5543 101.764C67.3756 100.104 63.7914 99.5268 61.6024 100.633Z" fill="black"/>
<path d="M85.1749 100.418C83.924 100.827 82.4326 102.438 81.9034 103.978C81.3742 105.566 81.3261 108.212 81.7831 109.823C82.2642 111.435 83.9481 113.191 85.4154 113.576C88.302 114.346 91.2127 113.311 92.4395 111.05C92.8004 110.377 93.1131 109.775 93.1131 109.655C93.1131 109.559 92.656 109.487 92.1028 109.487C91.2127 109.511 90.9962 109.607 90.5873 110.256C89.7694 111.555 88.9275 111.988 87.4361 111.988C86.4979 111.964 85.8965 111.82 85.4635 111.483C84.4292 110.713 83.7316 109.511 83.7316 108.5V107.562H88.5667H93.4017L93.2334 106.287C92.8485 103.232 91.8863 101.452 90.1784 100.61C88.9996 100.033 86.6422 99.9607 85.1749 100.418ZM89.5048 102.486C90.2265 103.016 90.8519 104.05 91.0443 105.084L91.1887 105.878H88.1096C85.8725 105.878 84.8622 105.974 84.357 106.239L83.6594 106.6L83.7797 105.421C83.924 103.954 84.6938 102.847 85.9928 102.246C87.1474 101.693 88.5667 101.789 89.5048 102.486Z" fill="black"/>
<path d="M14.9355 106.936V113.527L16.5232 113.623C17.3892 113.647 18.1589 113.647 18.207 113.599C18.2552 113.551 18.3033 110.544 18.3033 106.911V100.344H16.6194H14.9355V106.936Z" fill="#DB1C25"/>
</svg>
