<svg width="131" height="30" viewBox="0 0 131 30" fill="none" xmlns="http://www.w3.org/2000/svg">
<path d="M36.1485 1.26766C35.8697 2.80594 35.6774 3.43087 35.3986 3.70968C35.1967 3.91158 35.0717 3.94042 34.5141 3.94042C34.1584 3.94042 33.4277 3.87312 32.8989 3.79621C32.3701 3.71929 31.8317 3.66161 31.6971 3.66161C31.476 3.66161 31.4856 3.68084 31.7933 3.82505C34.2641 4.96915 34.6776 5.19028 34.8314 5.48832C35.0429 5.90173 34.9468 6.19016 34.0334 8.00726C33.6392 8.79562 33.3412 9.45901 33.3604 9.48785C33.4373 9.56477 35.2063 7.75728 35.5428 7.25734C35.9466 6.67087 36.3024 5.8152 36.312 5.43063C36.312 5.2095 36.3408 5.17105 36.4081 5.28642C36.4562 5.36333 36.5043 5.51716 36.5043 5.62292C36.5043 5.89212 37.0234 6.96891 37.3888 7.44001C38.0714 8.32453 39.5616 9.73782 39.4174 9.35325C39.3789 9.25711 39.0424 8.56488 38.6579 7.81497C38.2733 7.06506 37.9272 6.2863 37.8887 6.10363C37.7541 5.39218 38.0233 5.16143 40.0712 4.23846C41.4652 3.61354 41.446 3.58469 39.8693 3.79621C39.3116 3.87312 38.5906 3.94042 38.2733 3.94042C37.2638 3.94042 37.0907 3.68084 36.6869 1.48878C36.5812 0.911929 36.4658 0.354301 36.4274 0.258159C36.3793 0.152402 36.2831 0.527358 36.1485 1.26766Z" fill="#176437"/>
<path d="M33.8121 1.91985C33.2256 2.50632 34.0717 3.40044 34.7543 2.91973C35.0235 2.72745 35.0523 2.12175 34.7927 1.891C34.5524 1.66988 34.0428 1.6891 33.8121 1.91985Z" fill="#176437"/>
<path d="M38.0004 1.88105C37.7408 2.14063 37.7023 2.48674 37.9138 2.76556C38.2215 3.18859 38.7791 3.16936 39.0579 2.73672C39.356 2.28484 39.0291 1.72722 38.4715 1.72722C38.2984 1.72722 38.0773 1.79452 38.0004 1.88105Z" fill="#176437"/>
<path d="M0.495791 2.45113C0.611162 2.81648 0.736148 7.78705 0.793833 13.9402C0.851519 19.9395 0.736148 26.4868 0.543862 28.3135C0.505405 28.7365 0.476562 29.0827 0.476562 29.0923C0.486177 29.1019 1.14956 29.0634 1.93793 29.0154C2.8609 28.9481 4.19728 28.9577 5.63942 29.0154C8.40833 29.1307 13.5712 29.0057 14.821 28.7846C17.3688 28.352 19.7436 27.054 21.7337 24.9966C23.6277 23.0353 24.743 20.9201 25.3679 18.1032C25.5602 17.2763 25.5794 16.8725 25.589 14.8055C25.589 12.8538 25.5602 12.3058 25.4064 11.6328C24.4353 7.18135 21.6183 3.99903 17.638 2.84532C15.7248 2.28769 15.3594 2.26846 7.5815 2.26846C0.476562 2.25885 0.438105 2.25885 0.495791 2.45113ZM12.7059 4.69126C17.1285 5.67191 19.3109 8.71964 19.5513 14.2767C19.6378 16.5072 19.3205 19.1319 18.7244 20.8721C18.1764 22.5065 17.4746 23.641 16.3882 24.6601C15.5037 25.4965 14.6961 25.9772 13.5327 26.3522C12.1483 26.7945 11.0715 26.9194 8.64869 26.9194H6.50471V15.6611V4.40283L9.17747 4.4509C11.3695 4.48936 11.9945 4.52782 12.7059 4.69126Z" fill="#176437"/>
<path d="M54.1932 2.39916C54.1932 2.42801 54.0393 3.4856 53.8567 4.75472C53.674 6.02384 53.4336 7.77368 53.3279 8.64861C52.0107 19.1092 50.905 26.6085 50.3858 28.6949L50.3281 28.9256H52.0107H53.7028L53.7509 28.5218C53.7797 28.3007 54.0874 25.0894 54.4335 21.3879C55.3373 11.6291 55.3758 11.3311 55.4527 11.408C55.4911 11.4464 57.414 15.4172 59.7119 20.2341L63.8942 28.9833L64.6442 29.0122L65.3941 29.041L65.8171 28.0988C66.0575 27.5796 67.3554 24.8875 68.7111 22.1089C70.0667 19.3303 71.7781 15.773 72.5184 14.2058C73.2492 12.629 73.8837 11.3407 73.9318 11.3407C73.9702 11.3407 73.9991 11.408 73.9991 11.4945C73.9991 11.7733 75.7297 28.9737 75.7682 29.0026C75.7874 29.0218 76.4892 28.9929 77.3257 28.9353C78.1622 28.8776 79.5371 28.868 80.3831 28.9064L81.9022 28.9641L81.8445 28.6853C81.7772 28.3295 81.3157 24.5895 79.8159 12.2156C79.1621 6.80262 78.6044 2.36071 78.5852 2.34148C78.566 2.32225 78.1045 2.35109 77.5468 2.39916C76.9988 2.45685 76.2681 2.47608 75.922 2.43762L75.297 2.37993L74.9702 3.04334C74.7875 3.39907 72.9511 7.15835 70.8744 11.3887C68.8072 15.6191 66.9132 19.4649 66.6824 19.9361L66.2498 20.7821L61.8656 11.6195L57.4909 2.44724L55.8372 2.39916C54.9335 2.37032 54.1932 2.37032 54.1932 2.39916Z" fill="#176437"/>
<path d="M124.005 4.59238L121.284 5.80378L121.351 8.2458L121.418 10.6878L120.572 10.6301C120.101 10.5917 119.515 10.5436 119.274 10.5148L118.832 10.4667L118.842 11.4858V12.5049L120.053 12.4857L121.255 12.4761L121.303 19.3791C121.361 26.9359 121.351 26.734 121.947 27.7531C123.101 29.7337 126.168 30.2432 129.581 29.0126L130.129 28.8203L130.167 28.0896C130.196 27.6762 130.206 27.3397 130.186 27.3205C130.177 27.3013 129.937 27.359 129.658 27.4359C128.11 27.8974 126.773 27.3109 126.504 26.0514C126.437 25.7245 126.398 23.4075 126.398 18.9945V12.428L128.11 12.4761L129.821 12.5241V11.4954V10.4667L129.571 10.5244C129.052 10.6686 128.139 10.7647 127.389 10.7647H126.591V8.65921C126.591 7.5055 126.639 6.00568 126.697 5.32306C126.754 4.64045 126.783 3.91938 126.764 3.7271L126.735 3.37137L124.005 4.59238Z" fill="#176437"/>
<path d="M91.2267 9.9388C89.7845 10.2176 88.0636 10.9098 86.4772 11.852C86.0061 12.1212 85.6312 12.4097 85.6312 12.4866C85.6312 12.8904 86.0734 14.8036 86.1599 14.8036C86.2176 14.8036 86.5637 14.5633 86.9291 14.2748C88.2366 13.2365 89.3999 12.7846 90.7844 12.7846C92.14 12.7846 93.1687 13.2173 94.0629 14.1595C95.0339 15.1882 95.082 16.265 94.1782 17.2456C93.3899 18.1109 92.4477 18.4955 89.9864 18.9762C88.0155 19.3608 86.8137 19.8992 85.7754 20.8798C84.7659 21.822 84.2852 22.9757 84.2852 24.4467C84.2948 27.1483 85.8331 29.0039 88.4577 29.4654C89.5345 29.648 90.0633 29.648 90.9959 29.4558C92.1881 29.2058 93.0534 28.7347 93.986 27.8021C94.4282 27.3695 94.7935 27.0137 94.8128 27.033C94.8224 27.0522 94.9954 27.3214 95.1973 27.6387C95.6973 28.4559 96.2549 29.0039 96.9279 29.35C97.4086 29.5904 97.649 29.648 98.3316 29.6865C99.2834 29.7346 99.841 29.6288 100.899 29.225C101.889 28.8404 101.985 28.7635 102.072 28.2444L102.129 27.8021L101.591 27.7444C100.87 27.6579 100.254 27.3406 100.014 26.9272C99.8314 26.6099 99.8218 26.4176 99.8507 21.4951C99.8603 18.0917 99.8314 16.0823 99.7641 15.4766C99.4084 12.5443 97.9278 10.7849 95.2454 10.1022C94.1878 9.82343 92.2265 9.75613 91.2267 9.9388ZM94.8128 20.8798C94.6782 24.9178 94.3128 26.1292 93.0726 26.6965C91.9862 27.1868 90.7075 26.9272 90.1306 26.0908C89.5345 25.2447 89.4096 23.5526 89.8614 22.37C90.121 21.6778 90.8998 20.8125 91.6112 20.428C92.0535 20.178 94.582 19.1589 94.7935 19.1396C94.8416 19.13 94.8512 19.9184 94.8128 20.8798Z" fill="#176437"/>
<path d="M114.794 10.1392C113.592 10.3988 112.717 10.9372 112.073 11.8121C111.852 12.1101 111.362 12.9562 110.977 13.6965L110.295 15.0425L110.237 13.0716C110.208 11.9852 110.17 10.9564 110.16 10.7738L110.15 10.4469L108.785 10.5046C108.026 10.5334 106.862 10.5334 106.18 10.4949C105.276 10.4469 104.968 10.4565 104.997 10.543C105.401 11.591 105.401 23.7049 104.997 28.3775L104.939 29.0312H107.795H110.65L110.602 28.3775C110.573 28.0218 110.496 25.8201 110.429 23.4742C110.285 18.6671 110.323 18.0614 110.823 17.0423C111.294 16.0808 112.102 15.5136 113.313 15.2732C113.996 15.1386 115.207 15.2059 115.794 15.4078C116.496 15.6482 116.505 15.6194 116.534 13.1485C116.553 11.9755 116.602 10.7738 116.64 10.4949L116.717 9.99501L116.054 10.0046C115.688 10.0046 115.121 10.0719 114.794 10.1392Z" fill="#176437"/>
<path d="M32.561 10.8504C32.5129 10.9562 32.4648 11.0619 32.4648 11.0908C32.4648 11.1196 34.2339 11.1484 36.4067 11.1484H40.3389L40.262 10.9273L40.1851 10.7158L36.4259 10.687C32.7821 10.6677 32.6571 10.6677 32.561 10.8504Z" fill="#176437"/>
<path d="M31.6256 13.0441C31.5967 13.1402 31.5487 13.246 31.5294 13.2844C31.5102 13.3325 33.6926 13.3613 36.3942 13.3613H41.3071L41.1918 13.121L41.086 12.8806H36.3846C32.0005 12.8806 31.6833 12.8902 31.6256 13.0441Z" fill="#176437"/>
<path d="M30.6372 15.3714C30.5891 15.4772 30.541 15.6022 30.541 15.6599C30.541 15.7368 32.3197 15.7656 36.4057 15.7656C39.6361 15.7656 42.2704 15.7464 42.2704 15.7176C42.2704 15.6983 42.2223 15.5637 42.155 15.4291L42.0493 15.1888H36.3961C30.9064 15.1888 30.7333 15.1984 30.6372 15.3714Z" fill="#176437"/>
<path d="M29.5862 17.8907C29.5285 18.0637 29.4805 18.2176 29.4805 18.2272C29.4805 18.2464 32.5955 18.2656 36.4124 18.2656C42.9789 18.2656 43.3442 18.256 43.2769 18.0926C43.2385 18.006 43.1808 17.8522 43.1616 17.7561C43.1135 17.6022 42.7097 17.5926 36.4027 17.5926H29.692L29.5862 17.8907Z" fill="#176437"/>
<path d="M28.5604 20.333C28.4931 20.5157 28.4258 20.6887 28.4258 20.7176C28.4258 20.7464 32.0215 20.7656 36.4056 20.7656C40.7993 20.7656 44.3855 20.7464 44.3855 20.7272C44.3855 20.7079 44.3182 20.5349 44.2412 20.3426L44.097 19.9965H36.396H28.7046L28.5604 20.333Z" fill="#176437"/>
<path d="M27.4352 22.9768L27.291 23.3613H36.3669C42.6354 23.3613 45.4427 23.3325 45.4427 23.2652C45.4427 23.2075 45.3754 23.0344 45.2985 22.8806L45.1447 22.5922H36.3669H27.5891L27.4352 22.9768Z" fill="#176437"/>
<path d="M26.3591 25.5316C26.2821 25.7239 26.2148 25.9162 26.2148 25.9643C26.2148 26.0123 30.6182 26.0508 36.406 26.0508C42.0111 26.0508 46.5971 26.0316 46.5971 26.0027C46.5971 25.9835 46.5298 25.7816 46.4433 25.5701L46.2894 25.1855H36.3964H26.5033L26.3591 25.5316Z" fill="#176437"/>
<path d="M25.1662 28.3791C25.0509 28.6483 24.974 28.8887 24.9932 28.9079C25.0124 28.9271 30.156 28.9271 36.4245 28.9175L47.8271 28.8887L47.6155 28.3887L47.4136 27.8792H36.3957H25.3777L25.1662 28.3791Z" fill="#176437"/>
</svg>
