<svg width="115" height="91" viewBox="0 0 115 91" fill="none" xmlns="http://www.w3.org/2000/svg">
<path d="M9.89464 90.4609C-2.64576 90.4609 -3.28523 71.681 9.89464 71.2C12.1512 71.1223 13.9833 71.7856 14.3329 71.8942L13.8786 75.7428C13.1335 75.4278 11.914 75.0043 9.89464 75.0551C2.21588 75.3194 2.5615 86.6633 9.89464 86.6633C10.2404 86.6633 10.6129 86.6096 10.9549 86.5587V80.8444H14.8062V89.1877C13.3505 90.0106 11.6999 90.4609 9.89464 90.4609Z" fill="#F25C1C"/>
<path d="M23.4207 79.4137H26.7671C29.3453 79.4137 29.3453 75.1628 26.7671 75.1628H23.4207V79.4137ZM29.0774 90.3516L25.2529 83.1057H23.4207V90.3516H19.6191V71.3613H27.1127C33.8871 71.3613 34.5515 80.8973 28.9726 82.5199L33.3791 90.3516H29.0774Z" fill="#F25C1C"/>
<path d="M44.7709 75.1523C37.4001 75.1523 37.4001 86.5405 44.7709 86.5405C52.1386 86.5405 52.1386 75.1523 44.7709 75.1523ZM44.7709 71.3652C57.4464 71.3652 57.4464 90.3555 44.7709 90.3555C32.092 90.3555 32.092 71.3652 44.7709 71.3652Z" fill="#F25C1C"/>
<path d="M61.4388 75.1629V78.9596H66.2767V82.7602H61.4388V90.3555H57.6426V71.3614H67.1274V75.1629H61.4388Z" fill="#F25C1C"/>
<path d="M71.2793 90.3555V71.3614H80.7951V75.1629H75.08V78.9596H80.077V82.7602H75.08V86.5578H81.1099V90.3555H71.2793Z" fill="#F25C1C"/>
<path d="M89.5893 79.4137H92.9369C95.5137 79.4137 95.5137 75.1628 92.9369 75.1628H89.5893V79.4137ZM95.2468 90.3516L91.4227 83.1057H89.5893V90.3516H85.7891V71.3613H93.2813C100.057 71.3613 100.72 80.8973 95.1413 82.5199L99.5488 90.3516H95.2468" fill="#F25C1C"/>
<path d="M102.854 85.1482C105.036 86.6903 107.397 86.7441 108.274 86.6624C109.392 86.5847 110.347 85.7857 110.242 84.7525C110.16 83.6646 109.338 83.1836 108.274 82.8147C105.3 81.7202 102.644 80.2098 102.644 77.0218C102.644 73.8311 104.85 71.3893 108.007 71.2298C108.992 71.1752 110.293 71.1752 112.739 72.0258L112.258 75.691C110.16 74.8402 108.965 74.8681 108.379 74.895C107.025 74.9765 106.415 75.9588 106.493 77.0218C106.601 78.0829 107.533 78.5629 108.62 78.9328C111.567 80.0197 114.118 81.7202 114.118 84.7525C114.118 87.9098 111.943 90.3276 108.379 90.5177C107.316 90.5955 104.955 90.4601 102.377 89.1359L102.854 85.1482" fill="#F25C1C"/>
<path fill-rule="evenodd" clip-rule="evenodd" d="M85.6274 0.186994C88.2485 0.186994 90.3727 2.31118 90.3727 4.92962C90.3727 7.55204 88.2485 9.67578 85.6274 9.67578C83.0085 9.67578 80.8848 7.55204 80.8848 4.92962C80.8848 2.31118 83.0085 0.186994 85.6274 0.186994Z" fill="#F25C1C"/>
<path d="M68.4891 48.0468C65.9105 49.4967 63.0013 50.2888 59.8173 50.2888C37.6831 50.2888 36.5589 17.2613 59.8173 16.4209C63.7974 16.2826 67.0351 17.4515 67.6446 17.6337L66.849 24.4092C65.5342 23.8466 63.3737 23.1015 59.8173 23.1964C46.2667 23.664 46.8731 43.6088 59.8173 43.6088C60.4232 43.6088 61.0797 43.5175 61.6866 43.4222V33.3784H68.4891V48.0468ZM57.1815 4.93112C41.4567 4.93112 28.7168 17.678 28.7168 33.4024C28.7168 49.1242 41.4567 61.8672 57.1815 61.8672C72.9059 61.8672 85.6461 49.1242 85.6461 33.4024C85.6461 17.678 72.9059 4.93112 57.1815 4.93112Z" fill="#F25C1C"/>
<path d="M59.8142 50.2871C37.688 50.2871 36.5626 17.2596 59.8142 16.4191C63.8011 16.2808 67.0361 17.4498 67.6456 17.6319L66.8473 24.4074C65.5325 23.8449 63.3817 23.0998 59.8142 23.1946C46.2677 23.6623 46.8772 43.6071 59.8142 43.6071C60.4277 43.6071 61.0807 43.5158 61.6906 43.4205V33.3767H68.49V48.0451C65.9115 49.4949 63.0023 50.2871 59.8142 50.2871Z" fill="white"/>
</svg>
