<svg width="139" height="31" viewBox="0 0 139 31" fill="none" xmlns="http://www.w3.org/2000/svg">
<path fill-rule="evenodd" clip-rule="evenodd" d="M27.1923 12.7367H33.6523V23.1826C33.5607 24.4196 34.1792 25.3818 35.4391 25.3818C36.6532 25.3818 37.2717 24.4884 37.203 23.1826L37.1801 12.7367H43.663V22.335C43.6859 26.3897 40.181 27.5351 35.3704 27.4206C29.6893 27.6038 27.1694 25.7025 27.1694 22.3809V12.7367H27.1923ZM95.5034 12.6679L95.5492 12.6909V12.6679C101.436 12.5305 105.606 15.7376 105.652 20.2504C105.629 24.7175 102.147 27.4206 95.5492 27.4206V27.3977V27.4206C88.9517 27.4206 85.4698 24.7175 85.4468 20.2504C85.4927 15.7376 89.4557 12.416 95.5034 12.6679ZM95.5492 14.2486C97.9087 14.2486 99.2144 17.0662 99.2144 20.1817C99.2144 23.2972 97.9545 25.8399 95.5492 25.8399C93.1897 25.8399 91.8839 23.2972 91.8839 20.1817C91.8839 17.0662 93.1897 14.2486 95.5492 14.2486ZM15.349 3.20702V4.85639H12.6001V12.3701L22.9544 3.18412L130.529 3.16121V4.85639L24.6496 4.99384L15.9446 12.8283L26.9403 29.0241H130.529V30.6735L20.4803 30.6506L12.6459 19.6319L12.6001 29.047L15.349 29.0241V30.6735H1.00871V29.0241L3.89509 28.9783L3.84927 4.85639L0.962891 4.92511V3.16121L15.349 3.20702ZM76.3066 18.3949H82.1939V21.35H76.3066V18.3949ZM47.7864 12.645H54.842L54.7504 16.1041C55.4376 14.3631 57.7284 12.7367 59.5839 12.645C61.1188 12.5763 63.0201 13.401 63.3179 15.6689C63.5241 17.8222 62.1267 19.4258 59.8817 19.5632C57.1557 19.5861 55.9187 17.135 56.2852 15.5543C55.85 15.7605 55.0711 16.6539 55.0711 17.4786V27.3289H47.7406L47.7864 12.645ZM65.0131 6.98681C65.0131 6.91809 72.8247 6.98681 72.8247 6.98681V27.3748H65.0131V6.98681ZM108.469 27.4435V12.7138H115.364L115.387 14.7297C115.662 13.5843 125.215 10.1252 125.215 17.2266V26.321L130.506 26.3439V27.5809H118.205V18.5552V17.4099C118.205 16.6997 117.701 16.3561 117.151 16.3561C116.601 16.3561 115.387 17.1808 115.387 17.5931V27.4435H108.469V27.4435ZM135.019 2.40525V3.20702H135.752C135.913 3.20702 136.05 3.18412 136.119 3.11539C136.188 3.04667 136.233 2.95504 136.233 2.8176C136.233 2.70306 136.188 2.58851 136.119 2.51979C136.05 2.45107 135.936 2.40525 135.798 2.40525H135.019ZM134.401 1.87837H135.936C136.096 1.87837 136.256 1.90128 136.371 1.94709C136.485 1.99291 136.6 2.06164 136.669 2.15327C136.737 2.2449 136.806 2.33653 136.829 2.42816C136.852 2.51979 136.875 2.63433 136.875 2.72597C136.875 2.88632 136.829 3.04667 136.76 3.18412C136.669 3.32157 136.554 3.4132 136.417 3.45901C136.508 3.50483 136.6 3.55064 136.646 3.59646C136.692 3.64227 136.737 3.711 136.76 3.80263C136.783 3.89426 136.806 4.0317 136.806 4.23787C136.806 4.42114 136.806 4.53568 136.806 4.6044C136.806 4.67312 136.829 4.71894 136.829 4.76476C136.852 4.78767 136.875 4.83348 136.921 4.85639V4.92511H136.233C136.188 4.78766 136.165 4.6044 136.165 4.35241C136.165 4.21497 136.165 4.12334 136.142 4.03171C136.142 3.96298 136.119 3.89426 136.073 3.87136C136.004 3.77972 135.867 3.75682 135.661 3.75682H135.019V4.92511H134.401V1.87837ZM135.523 5.84142C136.188 5.84142 136.806 5.56653 137.264 5.13128C137.7 4.69604 137.974 4.07752 137.974 3.39029C137.974 2.70306 137.7 2.10745 137.264 1.6493C136.829 1.21405 136.211 0.939153 135.523 0.939153C134.836 0.939153 134.24 1.21405 133.782 1.6493C133.347 2.08454 133.072 2.70306 133.072 3.39029C133.072 4.05462 133.347 4.67313 133.782 5.13128C134.218 5.56653 134.836 5.84142 135.523 5.84142ZM135.523 6.27667C134.722 6.27667 134.011 5.95596 133.484 5.42908C132.958 4.9022 132.637 4.19206 132.637 3.39029C132.637 2.58852 132.958 1.87838 133.484 1.3515C134.011 0.824618 134.722 0.503906 135.523 0.503906C136.325 0.503906 137.035 0.824618 137.562 1.3515C138.089 1.87838 138.41 2.58852 138.41 3.39029C138.41 4.19206 138.089 4.9022 137.562 5.42908C137.035 5.95596 136.302 6.27667 135.523 6.27667Z" fill="#DA2028"/>
</svg>
