<svg width="119" height="43" viewBox="0 0 119 43" fill="none" xmlns="http://www.w3.org/2000/svg">
<path d="M2.59135 0.575656C2.12237 0.760781 1.43123 1.45192 1.17823 1.98878C1.07332 2.21093 0.962248 2.5565 0.919052 2.76014C0.869686 3.03165 0.857344 5.84555 0.869686 13.0654C0.888198 22.1181 0.90054 23.0252 0.993103 23.2843C1.35101 24.2964 2.02363 24.9752 2.94926 25.2528C3.34419 25.3763 3.49846 25.3763 8.44748 25.3639L13.5384 25.3454L13.8716 25.1726C14.2974 24.9443 14.7232 24.5062 14.9207 24.0804C15.2045 23.4571 15.1614 22.26 14.8281 21.5689C14.5998 21.0937 14.0938 20.6556 13.5878 20.5013C13.2052 20.3841 13.0262 20.3779 9.73718 20.3779H6.28768V11.7449C6.28768 6.26517 6.263 2.99463 6.22597 2.78482C6.06553 1.90239 5.28801 0.927396 4.51665 0.625025C3.98596 0.421387 3.04799 0.396702 2.59135 0.575656Z" fill="black"/>
<path d="M20.8382 0.808083C20.3383 0.968525 19.9804 1.19685 19.6595 1.55475C18.4439 2.90617 18.8697 4.99191 20.5111 5.76327C21.3071 6.13352 22.35 6.0533 23.0905 5.55963C24.4111 4.68337 24.6517 2.74573 23.5842 1.55475C22.9239 0.820424 21.7761 0.511882 20.8382 0.808083Z" fill="#BC2030"/>
<path d="M47.6845 0.808873C47.1847 0.969315 46.8453 1.18529 46.4997 1.54937C45.2779 2.86376 45.7099 4.9927 47.3575 5.75789C48.1535 6.13431 49.147 6.06026 49.906 5.56659C50.3442 5.2889 50.6033 4.98036 50.8563 4.45584C51.1279 3.90663 51.1711 3.12294 50.9736 2.52437C50.7206 1.76535 50.159 1.16678 49.4247 0.876752C48.9434 0.685456 48.1535 0.654602 47.6845 0.808873Z" fill="#BC2030"/>
<path d="M110.451 5.47452V5.81392H111.037H111.624L111.636 7.46153L111.654 9.11532L112.074 9.13383L112.488 9.15234V7.48005V5.81392H113.074H113.66V5.47452V5.13513H112.056H110.451V5.47452Z" fill="black"/>
<path d="M114.275 7.14065V9.14617H114.646H115.016L115.028 7.64666L115.047 6.15332L115.423 7.63432L115.793 9.11532L116.195 9.13383L116.589 9.15234L116.96 7.68368L117.33 6.21502L117.348 7.68368L117.361 9.15234L117.75 9.13383L118.132 9.11532L118.151 7.12214L118.163 5.12896L117.534 5.14747L116.898 5.16598L116.577 6.38781C116.404 7.05426 116.25 7.64049 116.232 7.68368C116.201 7.77625 116.139 7.57261 115.781 6.22737L115.491 5.13513H114.886H114.275V7.14065Z" fill="black"/>
<path d="M62.3751 9.05522C60.5116 9.34525 58.9688 10.0796 57.5804 11.3323C56.8091 12.0357 55.9636 13.2884 55.5379 14.3745C54.3222 17.4599 55.0318 20.86 57.3891 23.2111C58.5801 24.4083 60.1536 25.2413 61.8877 25.5992C62.1407 25.6486 62.8503 25.7103 63.4612 25.7288C64.4177 25.7597 64.6769 25.7412 65.3372 25.6301C67.2193 25.3092 68.8237 24.4947 70.1257 23.1864C71.0884 22.23 71.7733 21.1254 72.1498 19.9097C72.4645 18.9162 72.5324 18.4472 72.5324 17.3241C72.5324 16.164 72.4089 15.442 72.0695 14.5102C70.9711 11.5482 68.2251 9.43164 64.9422 9.03054C64.2141 8.94415 63.0354 8.95649 62.3751 9.05522ZM64.5535 13.7204C65.6025 13.9425 66.5405 14.7447 67.065 15.8802C67.5216 16.8613 67.4352 18.4596 66.8737 19.5333C66.6145 20.0208 66.0345 20.6009 65.547 20.86C64.7571 21.2735 63.56 21.4278 62.8071 21.2056C61.9123 20.9403 61.0422 20.2306 60.6041 19.4099C60.203 18.6509 60.0426 17.4414 60.2277 16.5404C60.4807 15.3063 61.6285 14.0721 62.8194 13.7512C63.2206 13.6402 64.103 13.6278 64.5535 13.7204Z" fill="black"/>
<path d="M21.1035 9.15262C20.4062 9.28838 19.6842 9.79439 19.3263 10.3868C18.9252 11.0594 18.9375 10.8373 18.9375 17.4154C18.9375 22.2595 18.9561 23.4319 19.0239 23.685C19.2276 24.4501 19.7829 25.1042 20.5234 25.456C20.9122 25.6411 20.9863 25.6534 21.591 25.6473C22.3624 25.6473 22.7264 25.53 23.2633 25.1042C23.6459 24.8019 23.9298 24.4193 24.1334 23.9009L24.2753 23.5554L24.2938 17.6005C24.3123 10.9113 24.3247 11.0841 23.8804 10.3991C23.4484 9.72651 22.8067 9.28838 22.06 9.15262C21.6465 9.07857 21.4923 9.07857 21.1035 9.15262Z" fill="black"/>
<path d="M47.941 9.15275C46.9229 9.35022 46.0404 10.2512 45.843 11.3002C45.8059 11.51 45.7812 13.7439 45.7812 17.4278C45.7812 22.5003 45.7936 23.2778 45.88 23.6542C46.0589 24.4441 46.713 25.1969 47.4906 25.5055C47.9966 25.7091 48.9222 25.7091 49.4406 25.5055C50.107 25.2401 50.6932 24.6601 50.9771 23.9566L51.119 23.6172L51.1375 17.6315C51.1499 13.3181 51.1375 11.5409 51.0882 11.2755C50.9894 10.7757 50.7673 10.3622 50.3724 9.94879C49.9651 9.523 49.564 9.29468 49.0086 9.17743C48.5396 9.0787 48.3483 9.07253 47.941 9.15275Z" fill="black"/>
<path d="M78.3058 9.18324C77.2938 9.45476 76.5039 10.294 76.3188 11.2813C76.2756 11.5096 76.2633 13.0215 76.2818 15.6503C76.3065 18.8961 76.325 19.7601 76.4052 20.1673C76.7137 21.8149 77.2506 22.9134 78.1886 23.8081C79.4289 24.9991 81.3974 25.647 84.0077 25.7273C86.8586 25.8137 89.2652 25.1102 90.6537 23.7834C91.5114 22.9689 91.9927 22.0186 92.326 20.5006C92.4432 19.9452 92.4555 19.6798 92.4741 15.6379C92.5049 10.9172 92.5049 10.9851 92.1161 10.368C91.1535 8.86236 89.1295 8.67723 87.9261 9.99779C87.6053 10.3434 87.3523 10.8123 87.2535 11.2505C87.2103 11.4171 87.1856 12.8549 87.1856 14.9221C87.1856 17.1066 87.161 18.4457 87.1178 18.6863C86.945 19.6428 86.2785 20.408 85.3652 20.7165C85.1986 20.7721 84.8099 20.8461 84.5137 20.8832C84.02 20.9387 83.9336 20.9325 83.5695 20.8153C82.5575 20.482 81.8479 19.7169 81.6381 18.7234C81.5949 18.5074 81.5702 17.2547 81.5702 14.99C81.5702 11.2875 81.5517 11.1085 81.2184 10.4915C81.0025 10.0965 80.4162 9.54732 80.009 9.3622C79.4104 9.08451 78.8735 9.02897 78.3058 9.18324Z" fill="black"/>
<path d="M103.016 9.12338C101.461 9.28383 100.128 9.72196 99.0974 10.4193C98.5667 10.771 97.8447 11.5177 97.5361 12.0298C96.6599 13.4677 96.7709 15.3066 97.8138 16.6641C98.4988 17.5528 99.8564 18.1883 102.497 18.861C103.972 19.2312 104.38 19.4595 104.614 20.0211C104.775 20.4037 104.744 20.669 104.509 20.9035C103.991 21.4219 103.182 21.354 100.844 20.6073C100.165 20.3852 99.3936 20.1692 99.1406 20.1322C97.9619 19.9409 96.8759 20.4901 96.5118 21.4466C96.1724 22.366 96.4871 23.162 97.5238 23.9889C98.8258 25.0256 100.924 25.5625 103.658 25.5625C105.194 25.5625 106.354 25.328 107.459 24.7973C108.15 24.4641 108.644 24.0938 109.23 23.4706C109.754 22.909 110.032 22.4709 110.242 21.8662C110.766 20.3543 110.415 18.7129 109.316 17.5528C108.428 16.6148 107.403 16.1149 104.7 15.2881C103.022 14.7759 102.553 14.4612 102.553 13.8502C102.553 13.6158 102.584 13.5417 102.788 13.3442C103.269 12.8629 103.96 12.8567 105.861 13.3319C107.379 13.7145 107.946 13.7947 108.44 13.7145C109.415 13.554 110.038 12.8506 110.032 11.9188C110.032 11.3819 109.859 10.9931 109.464 10.6229C108.853 10.0552 107.508 9.49981 106.132 9.26531C105.447 9.14807 103.602 9.06168 103.016 9.12338Z" fill="black"/>
<path d="M35.0565 9.33824C31.9464 9.75785 29.583 11.7757 28.5339 14.8982C28.2501 15.7621 28.1328 16.4779 28.1328 17.4159C28.1328 18.323 28.2377 19.0203 28.5092 19.8719C28.9289 21.1924 29.6508 22.3896 30.6011 23.346C31.6872 24.4445 32.8905 25.08 34.5937 25.4503C35.4453 25.6293 37.3767 25.6786 38.3949 25.5367C41.1286 25.1541 42.3936 24.0002 41.9925 22.2661C41.6346 20.7296 40.5362 20.2421 38.5307 20.7419C36.5498 21.2294 35.4823 21.1431 34.4579 20.4087C33.7606 19.9151 33.3348 19.298 33.1312 18.4896C32.8967 17.5763 33.0139 16.4347 33.4212 15.6695C33.5138 15.4906 33.7853 15.1512 34.026 14.9105C35.075 13.843 36.3524 13.6455 38.5924 14.207C40.2338 14.6143 40.7584 14.5526 41.431 13.8738C41.974 13.3308 42.1159 12.8248 41.9493 12.0349C41.6655 10.6897 40.5856 9.86276 38.5615 9.44314C37.8704 9.30121 35.7908 9.2395 35.0565 9.33824Z" fill="black"/>
<path d="M47.711 28.2452C46.7792 28.455 46.23 28.9487 45.7178 30.0348C45.0329 31.4788 44.3664 32.4599 43.3791 33.4781C42.3918 34.4963 41.5093 35.1504 40.232 35.7983C38.5597 36.6499 36.9121 37.0387 34.9497 37.0387C33.0059 37.0387 31.4509 36.6746 29.7539 35.8354C27.2424 34.595 25.5022 32.7746 24.1816 30.0409C23.8978 29.4485 23.762 29.2326 23.509 28.9981C22.8981 28.4242 21.9786 28.1342 21.2196 28.2637C19.5226 28.5661 18.5291 30.2137 19.066 31.849C19.1956 32.2378 19.6522 33.1757 20.0472 33.873C21.7194 36.7795 24.1631 39.1059 27.1436 40.6116C29.902 42.0124 32.7591 42.6171 35.8568 42.4628C42.0277 42.1543 47.5012 38.5814 50.2966 33.04C50.9877 31.6639 51.1235 31.0776 50.9384 30.294C50.815 29.7694 50.6545 29.4485 50.3275 29.0968C49.6363 28.3501 48.6552 28.0293 47.711 28.2452Z" fill="#BC2030"/>
<path d="M61.1775 31.1319C60.2025 31.4589 59.5237 32.2241 59.3448 33.2053C59.1411 34.2852 59.7706 35.4453 60.8196 35.9451C61.2084 36.1302 61.2886 36.1426 61.8872 36.1426C62.4857 36.1426 62.5659 36.1302 62.9547 35.9451C64.59 35.1676 64.9726 33.0818 63.7137 31.8168C63.2077 31.317 62.6955 31.0948 61.9797 31.0701C61.6403 31.0578 61.3318 31.0825 61.1775 31.1319ZM62.5351 32.5203C63.0905 32.9029 63.2571 33.6989 62.9115 34.2852C62.4178 35.1244 61.3565 35.1306 60.8628 34.2913C60.6345 33.8902 60.6283 33.3348 60.8628 32.9399C61.2392 32.2981 61.955 32.113 62.5351 32.5203Z" fill="black"/>
<path d="M83.8259 31.1319C82.8509 31.4589 82.1722 32.2241 81.9932 33.2053C81.7896 34.2852 82.419 35.4453 83.468 35.9451C83.8568 36.1302 83.937 36.1426 84.5356 36.1426C85.1342 36.1426 85.2144 36.1302 85.6031 35.9451C87.2384 35.1676 87.621 33.0818 86.3622 31.8168C85.8561 31.317 85.344 31.0948 84.6282 31.0701C84.2888 31.0578 83.9802 31.0825 83.8259 31.1319ZM85.1835 32.5203C85.7389 32.9029 85.9055 33.6989 85.5599 34.2852C85.0663 35.1244 84.0049 35.1306 83.5112 34.2913C83.2829 33.8902 83.2767 33.3348 83.5112 32.9399C83.8877 32.2981 84.6035 32.113 85.1835 32.5203Z" fill="black"/>
<path d="M54.8236 31.1928C54.805 31.2298 54.7989 32.3529 54.805 33.6735L54.8236 36.0801H56.3046C57.7732 36.0801 57.7917 36.0801 58.0941 35.9196C58.2792 35.8271 58.4767 35.6605 58.5816 35.5062C58.7359 35.2902 58.7667 35.1791 58.7914 34.7595C58.8161 34.309 58.8038 34.2412 58.6557 33.9882C58.5631 33.8339 58.4458 33.6796 58.3841 33.6488C58.1003 33.4822 58.1003 33.4822 58.3286 33.2415C58.6063 32.9576 58.705 32.6614 58.6557 32.3035C58.5816 31.7543 58.2792 31.3964 57.73 31.2113C57.3536 31.0817 54.8668 31.0632 54.8236 31.1928ZM57.1006 32.4455C57.1561 32.4948 57.1993 32.6059 57.1993 32.6861C57.1993 32.9268 57.0451 33.0255 56.6748 33.0255C56.1997 33.0255 56.1503 32.9947 56.1503 32.6861C56.1503 32.3776 56.1811 32.3591 56.6563 32.3529C56.897 32.3467 57.0327 32.3776 57.1006 32.4455ZM57.261 34.2597C57.3289 34.3276 57.3845 34.4386 57.3845 34.5065C57.3845 34.7533 57.1685 34.8768 56.7427 34.8768C56.1811 34.8768 56.1503 34.8583 56.1503 34.5065C56.1503 34.3276 56.1811 34.198 56.2305 34.1795C56.2675 34.1609 56.4897 34.1424 56.7242 34.1424C57.0574 34.1363 57.1623 34.1609 57.261 34.2597Z" fill="black"/>
<path d="M65.1849 31.1944C65.1664 31.2314 65.1602 32.3545 65.1664 33.6751L65.1849 36.0817L65.7958 36.1002C66.2463 36.1125 66.4252 36.094 66.4623 36.0385C66.4869 35.9953 66.5116 35.6868 66.5116 35.3535C66.5116 34.8784 66.5301 34.7426 66.6042 34.7179C66.8263 34.6315 67.0053 34.7673 67.4064 35.3165C68.0358 36.1681 67.9371 36.1125 68.7948 36.1125C69.4243 36.1125 69.5353 36.1002 69.5353 36.0138C69.5353 35.9644 69.3008 35.6189 69.0108 35.2548C68.7208 34.8845 68.4863 34.5513 68.4863 34.5081C68.4863 34.4649 68.6097 34.2921 68.764 34.1255C69.597 33.1999 69.2576 31.6572 68.1284 31.2376C67.8445 31.1265 67.6471 31.1142 66.5054 31.1142C65.5243 31.1142 65.2034 31.1327 65.1849 31.1944ZM67.5792 32.4162C67.8384 32.5335 67.9494 32.9407 67.7828 33.1629C67.6656 33.3172 67.4126 33.3974 67.0361 33.3974C66.524 33.3974 66.5116 33.385 66.5116 32.8729C66.5116 32.5705 66.5363 32.41 66.5918 32.3915C66.7338 32.3298 67.4311 32.3483 67.5792 32.4162Z" fill="black"/>
<path d="M70.0618 31.1879C70.0433 31.2311 70.0372 32.3542 70.0433 33.6747L70.0618 36.0813L70.6728 36.0999C71.1232 36.1122 71.3022 36.0937 71.3392 36.0382C71.3639 35.995 71.3886 35.3902 71.3886 34.6929C71.3886 33.5513 71.3947 33.4402 71.4873 33.5266C71.5367 33.5822 71.9748 34.1746 72.4561 34.8534L73.3386 36.0813L73.9803 36.0999C74.4493 36.1122 74.6344 36.0937 74.6715 36.0382C74.7332 35.9332 74.7332 31.2928 74.6715 31.1879C74.6344 31.1323 74.4555 31.1138 74.005 31.1262L73.3941 31.1447L73.3756 32.4529C73.3694 33.1749 73.3386 33.7673 73.3139 33.7673C73.2892 33.7673 72.8511 33.1749 72.3451 32.4529L71.4194 31.1447L70.753 31.1262C70.2593 31.1138 70.0804 31.1323 70.0618 31.1879Z" fill="black"/>
<path d="M77.8426 31.2116C77.7871 31.3473 77.7994 32.1804 77.855 32.2668C77.8858 32.3162 78.1142 32.347 78.4844 32.3594L79.0706 32.3779L79.1015 34.2291C79.12 35.2473 79.1447 36.0865 79.1509 36.0989C79.157 36.1051 79.4471 36.1051 79.7988 36.0989L80.4282 36.0804L80.4467 34.297C80.4529 33.1369 80.4838 32.4828 80.5269 32.4334C80.5701 32.3779 80.7923 32.347 81.1564 32.3347L81.7241 32.3162V31.7299V31.1437L79.805 31.1252C78.0895 31.1128 77.8797 31.119 77.8426 31.2116Z" fill="black"/>
<path d="M96.7825 31.1866C96.764 31.2298 96.7579 32.3529 96.764 33.6735L96.7825 36.0801H98.6338H100.485V35.4938V34.9076L99.3126 34.8706C98.6708 34.8521 98.134 34.8336 98.1278 34.8274C98.1154 34.8212 98.1093 34.704 98.1093 34.5744C98.1093 34.414 98.1401 34.3214 98.208 34.2967C98.2635 34.2782 98.7325 34.2597 99.2509 34.2597C100.337 34.2597 100.269 34.2967 100.269 33.6426C100.269 32.9885 100.337 33.0255 99.2509 33.0255C98.7325 33.0255 98.2635 33.007 98.208 32.9885C98.1401 32.9638 98.1093 32.8712 98.1093 32.6799C98.1093 32.5318 98.1154 32.4023 98.1278 32.3961C98.134 32.3899 98.6708 32.3714 99.3126 32.3529L100.485 32.3159V31.7296V31.1434L98.6461 31.1249C97.2083 31.1126 96.8011 31.1249 96.7825 31.1866Z" fill="black"/>
<path d="M105.679 31.2116C105.623 31.3473 105.635 32.1804 105.691 32.2668C105.722 32.3162 105.95 32.347 106.32 32.3594L106.907 32.3779L106.937 34.2291C106.956 35.2473 106.981 36.0865 106.987 36.0989C106.993 36.1051 107.283 36.1051 107.635 36.0989L108.264 36.0804L108.283 34.297C108.289 33.1369 108.32 32.4828 108.363 32.4334C108.406 32.3779 108.628 32.347 108.992 32.3347L109.56 32.3162V31.7299V31.1437L107.641 31.1252C105.925 31.1128 105.716 31.119 105.679 31.2116Z" fill="black"/>
<path d="M90.1258 31.2681C90.0703 31.4224 90.0826 35.9456 90.1382 36.0382C90.1752 36.0937 90.3542 36.1122 90.8046 36.0999L91.4155 36.0813L91.4464 34.9212C91.4649 34.2239 91.5019 33.7611 91.539 33.7549C91.576 33.7488 91.8598 34.1622 92.1746 34.6682C92.5942 35.347 92.7731 35.5877 92.8657 35.5877C92.9583 35.5877 93.1372 35.347 93.563 34.6621C93.8777 34.1499 94.1616 33.7426 94.1924 33.7488C94.2294 33.7611 94.2665 34.2486 94.285 34.9212L94.3158 36.0813H94.9638H95.6117V33.6439V31.2064L95.0872 31.1879C94.7972 31.1755 94.501 31.1879 94.4269 31.2064C94.3405 31.2249 94.0567 31.589 93.6 32.2554C93.2174 32.817 92.8842 33.2674 92.8533 33.2613C92.8287 33.2489 92.4893 32.7861 92.1067 32.2246L91.4155 31.2064L90.7923 31.1879C90.2616 31.1755 90.1567 31.1879 90.1258 31.2681Z" fill="black"/>
<path d="M102.817 31.2507C102.688 31.4296 100.762 35.996 100.793 36.0516C100.818 36.0886 101.145 36.1133 101.54 36.1133H102.25L102.355 35.922C102.632 35.4221 102.601 35.4345 103.478 35.4345C104.354 35.4345 104.323 35.4221 104.601 35.922L104.706 36.1133H105.421C105.952 36.1133 106.143 36.0948 106.168 36.0331C106.193 35.959 104.274 31.4173 104.144 31.2507C104.101 31.2013 103.885 31.1766 103.478 31.1766C103.07 31.1766 102.854 31.2013 102.817 31.2507ZM103.687 33.6758C103.916 34.2435 103.91 34.262 103.515 34.262C103.33 34.262 103.157 34.2312 103.132 34.1941C103.089 34.1201 103.41 33.2747 103.484 33.2747C103.509 33.2747 103.601 33.4536 103.687 33.6758Z" fill="black"/>
</svg>
