<svg width="133" height="67" viewBox="0 0 133 67" fill="none" xmlns="http://www.w3.org/2000/svg">
<path d="M132.299 0.560547H0.728516V66.2142H132.299V0.560547Z" fill="#014171" stroke="white" stroke-width="0.790798"/>
<path d="M116.832 38.7682C116.802 39.0022 116.714 39.6178 115.912 39.6978H108.869C108.067 39.6178 107.92 39.0022 107.89 38.7682V27.8951C107.92 27.6605 108.031 27.1619 108.833 27.0819H115.915C116.717 27.1619 116.802 27.6605 116.832 27.8951V38.7682ZM119.271 22.9852H105.452C103.375 23.1528 101.621 24.2058 101.387 26.5617V40.0233C101.621 42.3791 103.375 43.6272 105.452 43.7948H119.271C121.347 43.6272 123.101 42.3791 123.335 40.0233V26.5617C123.101 24.2058 121.347 23.1528 119.271 22.9852ZM63.3439 27.0819H57.1658V22.9852H76.0251V27.0819H69.847V43.7948H63.3439V27.0819V27.0819ZM55.2151 27.0819V22.9852H38.3067V43.7948L55.4398 43.7903L55.446 39.6981H44.8263L44.8274 35.2411H55.215V31.1545H44.8274V27.0819H55.215L55.2151 27.0819ZM92.9332 30.3074C92.9332 30.7577 92.8213 31.1528 92.0129 31.1528H84.4792V27.0682H92.0227C92.9403 27.0682 92.9332 27.6687 92.9332 28.0435V30.3074V30.3074ZM94.7347 35.7052C96.7634 35.5427 98.7859 34.1619 98.7859 31.8941V26.7567C98.5505 24.4118 96.7912 23.1455 94.7055 22.9785H77.9758L77.9764 43.7948H84.4792V35.7052H87.0674L91.2943 43.7948H98.773L93.7394 35.7052H94.7346H94.7347ZM24.8455 43.7948L29.2025 30.7238V43.7948H35.7056V22.9852H26.9266L22.6995 33.3903L18.4724 22.9852H9.69336V43.7948H16.1965V30.7238L20.5857 43.7948H24.8455" fill="#FBC51D"/>
</svg>
