<svg width="120" height="49" viewBox="0 0 120 49" fill="none" xmlns="http://www.w3.org/2000/svg">
<path d="M52.0745 6.56698C51.7262 6.56821 51.3816 6.49597 51.0632 6.35497C49.1563 5.52582 47.0905 5.12601 45.012 5.18383C43.0614 5.19741 41.1327 5.59538 39.3361 6.35497C39.0338 6.48595 38.7087 6.55578 38.3793 6.56043C38.05 6.56508 37.723 6.50445 37.4172 6.38206C37.1114 6.25966 36.8329 6.07791 36.5977 5.84731C36.3625 5.6167 36.1753 5.34181 36.0469 5.03848C35.9185 4.73515 35.8515 4.4094 35.8496 4.08003C35.8478 3.75065 35.9112 3.42418 36.0362 3.11944C36.1613 2.81471 36.3454 2.53775 36.578 2.30454C36.8106 2.07134 37.0871 1.88651 37.3915 1.76072C39.788 0.747065 42.3608 0.2154 44.9628 0.196091C47.7502 0.134588 50.5177 0.67929 53.0739 1.79252C53.597 2.02322 54.025 2.42669 54.2861 2.93533C54.5472 3.44397 54.6256 4.0269 54.5082 4.58646C54.3907 5.14601 54.0845 5.64821 53.6409 6.00892C53.1973 6.36964 52.6432 6.56696 52.0715 6.56783L52.0745 6.56698Z" fill="#F37029"/>
<path d="M17.0744 35.9489H5.21204C4.87991 35.9564 4.54963 35.8975 4.24059 35.7756C3.93156 35.6537 3.65 35.4713 3.41246 35.239C3.17491 35.0068 2.98617 34.7294 2.8573 34.4232C2.72844 34.117 2.66206 33.7881 2.66206 33.4559C2.66206 33.1237 2.72844 32.7948 2.8573 32.4886C2.98617 32.1824 3.17491 31.9051 3.41246 31.6728C3.65 31.4406 3.93156 31.2582 4.24059 31.1362C4.54963 31.0143 4.87991 30.9554 5.21204 30.9629H17.0744C17.9044 30.9285 18.689 30.5746 19.2641 29.9752C19.8393 29.3758 20.1604 28.5772 20.1604 27.7465C20.1604 26.9158 19.8393 26.1172 19.2641 25.5178C18.689 24.9184 17.9044 24.5645 17.0744 24.5301H8.3659C7.28167 24.5549 6.20367 24.3597 5.19702 23.9562C4.19036 23.5527 3.27595 22.9493 2.50901 22.1826C1.74207 21.4158 1.13852 20.5015 0.734829 19.4949C0.331138 18.4883 0.135682 17.4104 0.160265 16.3262C0.160937 14.1502 1.02512 12.0634 2.56305 10.524C4.10098 8.98468 6.18695 8.11857 8.36293 8.11587H19.7907C20.1228 8.10837 20.4531 8.16731 20.7621 8.28922C21.0712 8.41114 21.3527 8.59357 21.5903 8.82581C21.8278 9.05805 22.0166 9.33542 22.1454 9.64162C22.2743 9.94782 22.3407 10.2767 22.3407 10.6089C22.3407 10.9411 22.2743 11.27 22.1454 11.5762C22.0166 11.8824 21.8278 12.1597 21.5903 12.392C21.3527 12.6242 21.0712 12.8067 20.7621 12.9286C20.4531 13.0505 20.1228 13.1094 19.7907 13.1019H8.36419C7.51092 13.1032 6.69296 13.4427 6.08972 14.0462C5.48648 14.6497 5.14721 15.4678 5.14631 16.3211C5.14631 18.5442 6.76182 19.539 8.36419 19.539H17.0744C18.1589 19.5279 19.2348 19.732 20.2399 20.1394C21.2451 20.5468 22.1594 21.1494 22.9302 21.9124C23.701 22.6754 24.3129 23.5836 24.7304 24.5845C25.148 25.5854 25.363 26.6592 25.363 27.7437C25.363 28.8283 25.148 29.9021 24.7304 30.903C24.3129 31.9039 23.701 32.8121 22.9302 33.5751C22.1594 34.3381 21.2451 34.9407 20.2399 35.3481C19.2348 35.7555 18.1589 35.9596 17.0744 35.9485V35.9489Z" fill="#194895"/>
<path d="M45.5461 36.2147C42.5227 36.2143 39.5873 35.1972 37.2118 33.3269C34.8364 31.4566 33.1588 28.8418 32.449 25.9029C31.7391 22.964 32.0382 19.8718 33.298 17.1235C34.5579 14.3751 36.7054 12.1302 39.3953 10.7498C39.9833 10.4475 40.6673 10.3911 41.2968 10.5931C41.9264 10.795 42.4499 11.2388 42.7522 11.8268C43.0546 12.4148 43.111 13.0988 42.909 13.7283C42.707 14.3579 42.2632 14.8814 41.6752 15.1838C39.98 16.0529 38.6264 17.4669 37.832 19.1983C37.0376 20.9298 36.8486 22.8782 37.2955 24.73C37.7424 26.5819 38.7991 28.2297 40.2958 29.4083C41.7924 30.5869 43.6419 31.2279 45.547 31.2283H45.6084C47.5202 31.2139 49.3713 30.5548 50.8618 29.3576C52.3524 28.1603 53.3954 26.4951 53.8218 24.6314C54.2482 22.7678 54.0332 20.8147 53.2116 19.0884C52.39 17.3621 51.0098 15.9636 49.2944 15.1193L49.2241 15.085C48.9271 14.9436 48.661 14.7448 48.4412 14.5001C48.2213 14.2555 48.0521 13.9697 47.9431 13.6593C47.8342 13.349 47.7877 13.0201 47.8064 12.6917C47.8251 12.3633 47.9086 12.0419 48.0521 11.7459C48.1956 11.4499 48.3962 11.1852 48.6424 10.967C48.8886 10.7489 49.1755 10.5816 49.4866 10.4749C49.7977 10.3681 50.1269 10.3239 50.4552 10.3449C50.7834 10.3659 51.1043 10.4516 51.3993 10.5972L51.4951 10.6434C54.2189 11.9827 56.4108 14.2023 57.7157 16.9427C59.0207 19.6831 59.3622 22.7838 58.6851 25.7426C58.008 28.7014 56.3518 31.3449 53.9848 33.245C51.6179 35.145 48.6788 36.1904 45.6436 36.2118L45.5461 36.2147Z" fill="#194895"/>
<path d="M89.1669 36.2939H79.9984C76.453 36.3426 73.0279 35.0086 70.4494 32.5748C69.1516 31.2922 68.1277 29.7595 67.4398 28.0695C66.7519 26.3795 66.4143 24.5674 66.4475 22.743V10.787C66.4623 10.1355 66.7314 9.51571 67.1973 9.06019C67.6632 8.60466 68.2889 8.34961 68.9405 8.34961C69.5922 8.34961 70.2179 8.60466 70.6838 9.06019C71.1497 9.51571 71.4189 10.1355 71.4336 10.787V22.7413C71.4336 27.7829 74.9551 31.3044 79.9988 31.3044H89.1678C89.8292 31.3044 90.4635 31.5672 90.9312 32.0349C91.3989 32.5025 91.6617 33.1369 91.6617 33.7983C91.6617 34.4597 91.3989 35.094 90.9312 35.5617C90.4635 36.0294 89.8292 36.2922 89.1678 36.2922L89.1669 36.2939Z" fill="#194895"/>
<path d="M105.095 36.1676C103.424 36.1676 101.965 35.3764 101.326 34.0958C101.309 34.0615 101.292 34.0255 101.277 33.9911L91.5035 11.9179C91.3697 11.615 91.2976 11.2885 91.2915 10.9575C91.2853 10.6264 91.3451 10.2974 91.4675 9.98978C91.5898 9.68211 91.7723 9.4019 92.0042 9.16553C92.236 8.92916 92.5127 8.74137 92.818 8.61311C93.4366 8.36722 94.1267 8.37255 94.7415 8.62797C95.3562 8.88339 95.847 9.36871 96.1092 9.98058L104.409 28.7252C104.468 28.8614 104.566 28.9773 104.69 29.0587C104.815 29.1401 104.96 29.1834 105.109 29.1834C105.257 29.1834 105.402 29.1401 105.527 29.0587C105.651 28.9773 105.749 28.8614 105.808 28.7252L114.265 9.88347C114.528 9.27318 115.021 8.79044 115.636 8.53877C116.251 8.2871 116.94 8.28654 117.556 8.53721C117.861 8.66764 118.136 8.85747 118.367 9.0956C118.597 9.33373 118.778 9.6154 118.899 9.92416C119.019 10.2329 119.077 10.5626 119.069 10.8939C119.06 11.2252 118.986 11.5516 118.85 11.8539L108.973 33.8249C108.435 35.1712 107.085 36.0569 105.416 36.157C105.309 36.1646 105.199 36.1676 105.095 36.1676Z" fill="#194895"/>
<path d="M49.8052 43.3282V46.5507C49.8052 47.8872 49.1151 48.5555 47.7347 48.5555C47.381 48.5569 47.0287 48.5106 46.6874 48.4177C46.3895 48.3412 46.1105 48.2042 45.8678 48.0153L46.2702 47.3466C46.4595 47.4959 46.6753 47.6081 46.9062 47.6774C47.1583 47.7599 47.422 47.8018 47.6872 47.8016C48.0215 47.8304 48.3538 47.7285 48.6146 47.5175C48.7204 47.4006 48.8016 47.2635 48.853 47.1144C48.9045 46.9653 48.9252 46.8073 48.9139 46.65V46.4511C48.7589 46.6188 48.5668 46.7479 48.3529 46.8281C48.1211 46.9152 47.8751 46.9583 47.6274 46.9553C47.2838 46.9602 46.9442 46.8806 46.6386 46.7233C46.35 46.5752 46.1081 46.3499 45.9399 46.0724C45.7732 45.7806 45.6855 45.4503 45.6855 45.1142C45.6855 44.778 45.7732 44.4478 45.9399 44.1559C46.1089 43.881 46.3507 43.6584 46.6386 43.5126C46.9452 43.3586 47.2844 43.2806 47.6274 43.2854C47.8865 43.2821 48.1439 43.3279 48.386 43.4202C48.6084 43.5073 48.8051 43.6494 48.9576 43.8332V43.3282H49.8052ZM48.5934 45.8982C48.7013 45.7986 48.7865 45.6769 48.843 45.5413C48.8996 45.4058 48.9263 45.2597 48.9211 45.1129C48.9261 44.9674 48.8993 44.8227 48.8427 44.6886C48.7861 44.5545 48.701 44.4344 48.5934 44.3365C48.3553 44.1438 48.0582 44.0386 47.7519 44.0386C47.4456 44.0386 47.1485 44.1438 46.9104 44.3365C46.8028 44.4344 46.7177 44.5546 46.6611 44.6886C46.6045 44.8227 46.5778 44.9675 46.5827 45.1129C46.5776 45.2597 46.6042 45.4058 46.6608 45.5413C46.7173 45.6769 46.8025 45.7986 46.9104 45.8982C47.1473 46.0936 47.4448 46.2005 47.7519 46.2005C48.059 46.2005 48.3565 46.0936 48.5934 45.8982V45.8982Z" fill="#F37029"/>
<path d="M53.7459 43.2838V44.1318C53.5783 44.0869 53.4023 44.0838 53.2333 44.1228C53.0643 44.1617 52.9074 44.2416 52.7764 44.3553C52.6454 44.469 52.5443 44.6132 52.4821 44.7751C52.4198 44.937 52.3982 45.1117 52.4191 45.2839V47.1254H51.5215V43.3262H52.3772V43.8795C52.5343 43.6704 52.743 43.5055 52.9829 43.4011C53.2228 43.2967 53.4857 43.2563 53.7459 43.2838V43.2838Z" fill="#F37029"/>
<path d="M55.6892 46.926C55.3857 46.7674 55.1328 46.527 54.959 46.2319C54.7874 45.9249 54.6973 45.5791 54.6973 45.2274C54.6973 44.8757 54.7874 44.5299 54.959 44.2229C55.1339 43.9299 55.3867 43.6912 55.6892 43.5334C56.0165 43.3702 56.3773 43.2852 56.7431 43.2852C57.1089 43.2852 57.4697 43.3702 57.797 43.5334C58.099 43.6913 58.3512 43.93 58.5255 44.2229C58.6981 44.5295 58.7888 44.8755 58.7888 45.2274C58.7888 45.5793 58.6981 45.9252 58.5255 46.2319C58.3523 46.5268 58.1 46.7673 57.797 46.926C57.4697 47.0893 57.1089 47.1743 56.7431 47.1743C56.3773 47.1743 56.0165 47.0893 55.6892 46.926ZM57.5591 46.0869C57.7675 45.8488 57.8824 45.5432 57.8824 45.2268C57.8824 44.9104 57.7675 44.6047 57.5591 44.3666C57.3384 44.1566 57.0454 44.0395 56.7408 44.0395C56.4361 44.0395 56.1431 44.1566 55.9224 44.3666C55.7157 44.6055 55.6019 44.9109 55.6019 45.2268C55.6019 45.5427 55.7157 45.848 55.9224 46.0869C56.1442 46.2947 56.4367 46.4103 56.7406 46.4103C57.0444 46.4103 57.3369 46.2947 57.5587 46.0869H57.5591Z" fill="#F37029"/>
<path d="M66.0721 43.3281L64.6554 47.1248H63.7981L62.8063 44.5082L61.7997 47.1248H60.9364L59.5273 43.3281H60.3754L61.3897 46.1266L62.4471 43.3281H63.1947L64.2314 46.1436L65.2788 43.3281H66.0721Z" fill="#F37029"/>
<path d="M69.6479 46.918C69.5343 47.0078 69.4033 47.0731 69.2633 47.1097C69.1075 47.1535 68.9464 47.1752 68.7846 47.1741C68.4291 47.1965 68.0791 47.0788 67.8093 46.8464C67.6883 46.7205 67.595 46.5707 67.5355 46.4066C67.476 46.2425 67.4515 46.0677 67.4637 45.8936V44.0656H66.8281V43.355H67.4608V42.4883H68.3584V43.3558H69.3862V44.0656H68.3584V45.8711C68.3476 46.0247 68.3963 46.1765 68.4945 46.2951C68.5463 46.3467 68.6083 46.3867 68.6767 46.4125C68.745 46.4383 68.8181 46.4493 68.891 46.4448C69.0706 46.4533 69.2478 46.4005 69.3934 46.2951L69.6479 46.918Z" fill="#F37029"/>
<path d="M74.2699 43.7027C74.4261 43.8678 74.5459 44.0639 74.6215 44.2784C74.697 44.4928 74.7266 44.7207 74.7083 44.9472V47.1237H73.8106V45.0638C73.8313 44.7931 73.746 44.5249 73.5728 44.3159C73.4845 44.228 73.3785 44.1599 73.2619 44.116C73.1453 44.0722 73.0208 44.0536 72.8965 44.0615C72.7522 44.0546 72.6081 44.0776 72.4732 44.1291C72.3382 44.1807 72.2154 44.2595 72.1124 44.3608C71.9083 44.5944 71.805 44.8993 71.8254 45.2089V47.1297H70.9277V41.8477H71.8254V43.7672C71.9798 43.6076 72.1683 43.4849 72.3766 43.408C72.6099 43.3227 72.8567 43.2807 73.1051 43.2838C73.3172 43.2736 73.5294 43.3053 73.7292 43.3772C73.9291 43.4491 74.1128 43.5597 74.2699 43.7027V43.7027Z" fill="#F37029"/>
<path d="M79.1885 47.054C78.9362 46.9945 78.6956 46.8933 78.4766 46.7546L78.8221 46.0783C79.0144 46.201 79.2243 46.2933 79.4446 46.3522C79.6769 46.4197 79.9176 46.4544 80.1595 46.4553C80.6966 46.4553 80.9651 46.3156 80.9651 46.0363C80.967 45.9737 80.9479 45.9123 80.9108 45.8619C80.8736 45.8115 80.8207 45.7749 80.7604 45.7582C80.5466 45.6879 80.3267 45.6378 80.1035 45.6085C79.8421 45.5724 79.5836 45.5174 79.3301 45.444C79.1322 45.3836 78.9536 45.2722 78.8124 45.1209C78.6576 44.9436 78.5786 44.7126 78.5923 44.4776C78.5893 44.3067 78.6295 44.1378 78.7093 43.9867C78.789 43.8355 78.9057 43.707 79.0486 43.6131C79.4166 43.3802 79.8479 43.2673 80.2829 43.29C80.5486 43.2905 80.8135 43.3201 81.0729 43.3782C81.3 43.4236 81.5186 43.5043 81.7207 43.6173L81.3752 44.2919C81.0409 44.1001 80.6611 44.002 80.2757 44.0078C80.0697 43.9965 79.8641 44.0366 79.6774 44.1244C79.6178 44.1519 79.5671 44.1954 79.5308 44.2501C79.4946 44.3047 79.4743 44.3684 79.4722 44.434C79.4714 44.501 79.4924 44.5665 79.5321 44.6205C79.5718 44.6745 79.628 44.7141 79.6922 44.7333C79.9121 44.8124 80.1394 44.8693 80.3707 44.9029C80.6235 44.9395 80.8735 44.9939 81.1186 45.0658C81.3117 45.1257 81.4867 45.2331 81.6275 45.3783C81.7775 45.5513 81.8536 45.7764 81.8395 46.005C81.8422 46.1753 81.8006 46.3434 81.7189 46.4929C81.6371 46.6424 81.518 46.7681 81.3731 46.8577C80.9911 47.0903 80.5476 47.2019 80.101 47.1778C79.7927 47.1773 79.4858 47.1356 79.1885 47.054Z" fill="#F37029"/>
<path d="M83.201 42.548C83.1487 42.4992 83.1069 42.4401 83.0784 42.3745C83.0499 42.3088 83.0352 42.238 83.0352 42.1664C83.0352 42.0948 83.0499 42.024 83.0784 41.9583C83.1069 41.8927 83.1487 41.8336 83.201 41.7848C83.3131 41.6836 83.4601 41.6299 83.611 41.6351C83.7617 41.6316 83.9081 41.685 84.0211 41.7848C84.0741 41.8295 84.1165 41.8854 84.1452 41.9486C84.1739 42.0117 84.1881 42.0805 84.1868 42.1499C84.1886 42.2232 84.1752 42.2962 84.1474 42.3641C84.1196 42.4321 84.078 42.4935 84.0253 42.5446C83.9708 42.5981 83.9059 42.64 83.8347 42.6675C83.7635 42.6951 83.6873 42.7078 83.611 42.7049C83.4591 42.7081 83.312 42.6518 83.201 42.548V42.548ZM83.1586 43.3274H84.0545V47.124H83.1569L83.1586 43.3274Z" fill="#F37029"/>
<path d="M91.7724 43.7004C91.9237 43.8689 92.0393 44.0663 92.1122 44.2807C92.1851 44.4951 92.2137 44.7221 92.1964 44.9479V47.1244H91.2987V45.0645C91.3181 44.7963 91.2388 44.5303 91.0757 44.3165C90.9945 44.2294 90.8949 44.1614 90.7841 44.1174C90.6734 44.0734 90.5544 44.0545 90.4355 44.0621C90.3001 44.0568 90.1652 44.0808 90.04 44.1325C89.9148 44.1842 89.8022 44.2623 89.71 44.3614C89.514 44.5972 89.4159 44.8993 89.4361 45.2052V47.132H88.5397V45.0645C88.559 44.7963 88.4797 44.5303 88.3166 44.3165C88.2354 44.2294 88.1358 44.1614 88.0251 44.1174C87.9144 44.0734 87.7953 44.0545 87.6764 44.0621C87.5403 44.0564 87.4046 44.0803 87.2786 44.1319C87.1525 44.1836 87.0392 44.2619 86.9462 44.3614C86.7508 44.599 86.6544 44.9027 86.6769 45.2095V47.1362H85.7793V43.3273H86.635V43.8106C86.781 43.6386 86.9663 43.5042 87.1752 43.4188C87.4033 43.3266 87.6475 43.2808 87.8935 43.284C88.1577 43.2792 88.4195 43.334 88.6596 43.4443C88.8783 43.5472 89.0623 43.7115 89.1893 43.9171C89.3514 43.714 89.5609 43.5539 89.7994 43.4506C90.0599 43.3357 90.342 43.2778 90.6267 43.281C90.836 43.2712 91.0451 43.3032 91.2418 43.3752C91.4386 43.4472 91.6189 43.5578 91.7724 43.7004Z" fill="#F37029"/>
<path d="M97.0177 43.5267C97.3089 43.6839 97.5496 43.9205 97.7118 44.209C97.8839 44.5201 97.9706 44.8712 97.9632 45.2266C97.97 45.5828 97.8833 45.9346 97.7118 46.2468C97.5501 46.5365 97.3094 46.7741 97.0177 46.932C96.7092 47.097 96.3638 47.1805 96.014 47.1746C95.784 47.1854 95.5544 47.1451 95.3418 47.0566C95.1292 46.9682 94.9388 46.8336 94.7844 46.6628V48.506H93.8867V43.3292H94.7424V43.8257C94.8902 43.6475 95.0795 43.5083 95.2936 43.4203C95.5227 43.3286 95.7677 43.2828 96.0145 43.2855C96.3636 43.2793 96.7086 43.3622 97.0168 43.5263L97.0177 43.5267ZM96.7289 46.0865C96.9356 45.8477 97.0494 45.5423 97.0494 45.2264C97.0494 44.9105 96.9356 44.6052 96.7289 44.3663C96.6232 44.258 96.4961 44.173 96.3557 44.1165C96.2153 44.0601 96.0647 44.0335 95.9135 44.0385C95.7098 44.0365 95.5092 44.0881 95.3318 44.1882C95.1586 44.2858 95.0161 44.4299 94.9205 44.6042C94.8221 44.7982 94.7709 45.0127 94.7709 45.2302C94.7709 45.4478 94.8221 45.6623 94.9205 45.8563C95.0177 46.0267 95.16 46.1669 95.3318 46.2617C95.5092 46.3617 95.7098 46.4133 95.9135 46.4114C96.0646 46.4168 96.2153 46.3907 96.3557 46.3348C96.4962 46.2788 96.6234 46.1941 96.7293 46.0861L96.7289 46.0865Z" fill="#F37029"/>
<path d="M99.3594 41.8477H100.257V47.1242H99.3594V41.8477Z" fill="#F37029"/>
<path d="M102.021 42.548C101.968 42.4994 101.926 42.4404 101.897 42.3747C101.868 42.309 101.854 42.2381 101.854 42.1664C101.854 42.0947 101.868 42.0238 101.897 41.9581C101.926 41.8924 101.968 41.8334 102.021 41.7848C102.133 41.6836 102.28 41.6299 102.431 41.6351C102.581 41.6317 102.728 41.6851 102.84 41.7848C102.893 41.8295 102.936 41.8855 102.964 41.9486C102.993 42.0118 103.007 42.0806 103.005 42.1499C103.007 42.2232 102.993 42.2962 102.965 42.3641C102.938 42.4321 102.896 42.4935 102.843 42.5446C102.789 42.5981 102.724 42.6399 102.653 42.6675C102.582 42.695 102.507 42.7078 102.43 42.7049C102.279 42.708 102.132 42.6517 102.021 42.548V42.548ZM101.978 43.3274H102.877V47.124H101.979L101.978 43.3274Z" fill="#F37029"/>
<path d="M105.586 43.1268V43.3558H106.643V44.0664H105.614V47.124H104.717V44.0664H104.084V43.3558H104.717V43.1196C104.707 42.9429 104.734 42.7661 104.796 42.6004C104.858 42.4346 104.954 42.2834 105.077 42.1562C105.214 42.0332 105.375 41.9387 105.549 41.8783C105.723 41.818 105.907 41.7929 106.091 41.8047C106.377 41.7892 106.66 41.8606 106.904 42.0095L106.649 42.6705C106.503 42.5718 106.33 42.5196 106.153 42.5209C105.776 42.5217 105.587 42.7237 105.586 43.1268ZM107.866 42.548C107.813 42.4994 107.771 42.4404 107.742 42.3747C107.713 42.309 107.699 42.2381 107.699 42.1664C107.699 42.0947 107.713 42.0238 107.742 41.9581C107.771 41.8924 107.813 41.8334 107.866 41.7848C107.978 41.6837 108.125 41.63 108.275 41.6351C108.426 41.6316 108.572 41.6851 108.685 41.7848C108.738 41.8295 108.781 41.8855 108.809 41.9486C108.838 42.0118 108.852 42.0806 108.85 42.1499C108.852 42.2232 108.838 42.2962 108.81 42.3641C108.783 42.432 108.741 42.4935 108.688 42.5446C108.634 42.5981 108.57 42.6399 108.498 42.6675C108.427 42.695 108.352 42.7078 108.275 42.7049C108.124 42.7083 107.977 42.6523 107.866 42.5489V42.548ZM107.823 43.3274H108.721V47.124H107.823V43.3274Z" fill="#F37029"/>
<path d="M114.039 45.513H111.024C111.068 45.7804 111.217 46.0192 111.437 46.1775C111.68 46.3475 111.972 46.4337 112.269 46.423C112.462 46.4299 112.655 46.3969 112.835 46.3261C113.015 46.2554 113.179 46.1484 113.316 46.0117L113.798 46.5591C113.621 46.7653 113.396 46.9238 113.143 47.02C112.819 47.1376 112.475 47.19 112.13 47.1744C111.786 47.1587 111.448 47.0753 111.137 46.9288C110.826 46.7743 110.566 46.5333 110.389 46.2347C110.211 45.9297 110.12 45.5822 110.125 45.2294C110.12 44.8795 110.207 44.5345 110.38 44.23C110.546 43.9371 110.791 43.6966 111.087 43.5358C111.401 43.3678 111.753 43.2823 112.109 43.2874C112.459 43.2818 112.805 43.3664 113.113 43.5329C113.404 43.6926 113.643 43.9317 113.803 44.2223C113.973 44.5376 114.059 44.8918 114.051 45.2501C114.051 45.3078 114.047 45.3964 114.039 45.513ZM111.382 44.2503C111.181 44.4213 111.052 44.6607 111.018 44.922H113.198C113.167 44.6635 113.041 44.4257 112.844 44.255C112.641 44.0806 112.379 43.9888 112.111 43.9976C111.846 43.9896 111.586 44.0784 111.381 44.2473L111.382 44.2503Z" fill="#F37029"/>
<path d="M119.215 41.8477V47.1242H118.351V46.6336C118.205 46.8119 118.017 46.9512 117.804 47.0389C117.575 47.1307 117.33 47.1765 117.083 47.1738C116.736 47.1792 116.393 47.0957 116.087 46.9312C115.795 46.7737 115.554 46.536 115.393 46.246C115.221 45.9337 115.134 45.582 115.141 45.2258C115.134 44.8704 115.22 44.5193 115.393 44.2082C115.554 43.9193 115.795 43.6826 116.087 43.5259C116.393 43.3615 116.736 43.278 117.083 43.2834C117.321 43.2812 117.558 43.3244 117.78 43.4106C117.988 43.4943 118.172 43.6261 118.319 43.7952V41.8502L119.215 41.8477ZM117.77 46.2608C117.942 46.1632 118.084 46.0191 118.18 45.8449C118.279 45.6511 118.331 45.4365 118.331 45.2188C118.331 45.0011 118.279 44.7865 118.18 44.5928C118.084 44.4186 117.942 44.2745 117.77 44.1768C117.59 44.0816 117.39 44.0318 117.187 44.0318C116.984 44.0318 116.784 44.0816 116.604 44.1768C116.432 44.2749 116.29 44.4189 116.194 44.5928C116.095 44.7865 116.043 45.0011 116.043 45.2188C116.043 45.4365 116.095 45.6511 116.194 45.8449C116.291 46.0192 116.434 46.1632 116.607 46.2608C116.787 46.3561 116.987 46.4059 117.19 46.4059C117.393 46.4059 117.593 46.3561 117.773 46.2608H117.77Z" fill="#F37029"/>
<path d="M114.559 34.1777H116.343V34.4606H115.622V36.16H115.28V34.4606H114.559L114.559 34.1777ZM118.62 36.16V34.7701L117.872 35.9251H117.715L116.967 34.7943V36.16H116.638V34.1777H116.92L117.804 35.5346L118.667 34.1777H118.948V36.16H118.62Z" fill="#231F20"/>
</svg>
