<svg width="132" height="29" viewBox="0 0 132 29" fill="none" xmlns="http://www.w3.org/2000/svg">
<path d="M20.7036 7.55975L20.5859 11.3441L10.7158 22.0729C14.8387 22.0729 17.453 22.0326 18.9606 21.9489C18.5237 23.985 18.1683 25.6495 17.8104 28.1451C15.8277 27.9776 12.7367 27.9357 9.64412 27.9357C6.19675 27.9357 3.1837 27.9771 0.765625 28.1451L0.84621 24.3178L10.7158 13.6319C6.39507 13.6319 4.80901 13.6727 3.02619 13.7146C3.42127 11.8015 3.69913 9.68165 3.97647 7.55975C7.10778 7.68429 8.33644 7.7251 12.4196 7.7251C16.1856 7.72562 18.3248 7.68429 20.7036 7.55975V7.55975ZM31.9222 6.43574C25.499 6.43574 20.5859 12.1746 20.5859 19.0384C20.5859 24.1943 23.5581 28.1451 29.3451 28.1451C35.8065 28.1451 40.6819 22.4052 40.6819 15.501C40.6825 10.3886 37.7877 6.43574 31.9222 6.43574V6.43574ZM29.9793 22.6292C28.5518 22.6292 27.7203 21.3382 27.7203 18.8019C27.7203 15.0175 29.2661 11.9825 31.1698 11.9825C32.5559 11.9825 33.3885 13.2311 33.3885 15.8077C33.3879 19.5502 31.883 22.6292 29.9793 22.6292V22.6292ZM122.71 6.15108C116.204 6.15108 111.225 11.9658 111.225 18.916C111.225 24.142 114.237 28.1451 120.1 28.1451C126.645 28.1451 131.585 22.3298 131.585 15.3362C131.586 10.1547 128.655 6.15108 122.71 6.15108V6.15108ZM120.619 22.6072C119.191 22.6072 118.36 21.3162 118.36 18.7799C118.36 14.9956 119.907 11.9611 121.81 11.9611C123.195 11.9611 124.029 13.2086 124.029 15.7857C124.028 19.5298 122.522 22.6072 120.619 22.6072V22.6072ZM74.017 13.9223C74.5329 10.3886 74.2556 7.1856 70.332 7.1856C67.4775 7.1856 64.386 9.59792 62.206 13.6319C62.6822 10.3038 62.4038 7.1856 58.5195 7.1856C55.5865 7.1856 52.4154 9.72194 50.2344 13.9223C50.7896 11.1777 50.6714 8.05791 50.5123 7.39282C48.2533 7.76749 46.2721 7.97471 43.4967 8.05791C43.5762 9.97154 43.4569 12.465 43.1 14.8375L42.1885 21.0745C41.8316 23.5292 41.4349 26.357 41.0383 28.1456H48.4113C48.4516 27.0629 48.7295 25.3586 48.9273 23.8615L49.5615 19.579C50.0764 16.7909 52.2956 13.5073 53.9999 13.5073C54.991 13.5073 54.9523 14.4634 54.6744 16.2514L53.9607 21.074C53.6028 23.5287 53.2077 26.3565 52.8105 28.1451H60.2626C60.3028 27.0624 60.5404 25.3581 60.7382 23.861L61.3719 19.5784C61.8879 16.7904 64.1087 13.5068 65.8119 13.5068C66.8041 13.5068 66.7648 14.4205 66.6047 15.669L64.8245 28.1445H71.6256L74.017 13.9223ZM109.627 21.6161L108.834 26.5239C107.605 27.189 105.305 28.1461 102.65 28.1461C98.1308 28.1461 97.2202 25.7338 97.9324 20.6187L99.0826 12.3844H96.8587L97.4866 7.05426L99.9146 6.93704L100.827 3.06948L107.683 0.490234L106.812 6.93652H111.529C111.371 7.60161 110.815 11.2625 110.659 12.3839H106.058L105.027 19.9944C104.75 21.9489 104.909 22.6564 106.255 22.6564C107.248 22.6553 108.714 22.0729 109.627 21.6161V21.6161ZM83.6176 24.267C86.1131 23.9578 87.8305 21.5522 88.2434 19.152L88.313 18.5089C87.2408 18.2692 85.6908 18.0866 84.188 18.2702C82.7568 18.4445 81.5658 19.0395 80.9253 19.9008C80.4423 20.5193 80.1995 21.2592 80.3073 22.1415C80.4701 23.4627 81.9316 24.4727 83.6176 24.267V24.267ZM81.4936 28.0681C77.9714 28.5009 75.6517 27.1027 74.9552 23.9227C74.5183 21.9217 75.1248 19.6423 76.1854 18.2823C77.6061 16.5036 79.9211 15.3618 82.7463 15.017C85.02 14.735 86.9357 14.8742 88.7274 15.2132L88.8017 14.9061C88.853 14.4147 88.9048 13.9244 88.8331 13.3373C88.6474 11.8297 87.4585 10.9318 84.5229 11.2928C82.5422 11.5361 80.6579 12.2515 79.1948 13.0657L77.7715 8.76486C79.7547 7.6262 82.2544 6.75965 85.1152 6.40853C90.5798 5.73821 94.4197 7.48073 94.9115 11.487C95.0418 12.5524 95.0575 13.6816 94.923 14.7062C94.2213 19.6595 93.7718 23.3869 93.5746 25.885C93.5426 26.2717 93.5452 26.9363 93.5798 27.8782L86.7986 27.8719C86.943 27.4815 87.0723 26.952 87.1874 26.2879C87.2638 25.851 87.3182 25.3 87.3522 24.6323C85.919 26.5988 83.9488 27.7667 81.4936 28.0681V28.0681Z" fill="#E23744"/>
</svg>
